<svg xmlns="http://www.w3.org/2000/svg" xmlns:xlink="http://www.w3.org/1999/xlink" width="512" zoomAndPan="magnify" viewBox="0 0 384 383.999986" height="512" preserveAspectRatio="xMidYMid meet" version="1.0"><defs><g/><clipPath id="3e2ee110c4"><path d="M 97.367188 88.273438 L 286.632812 88.273438 L 286.632812 277.535156 L 97.367188 277.535156 Z M 97.367188 88.273438 " clip-rule="nonzero"/></clipPath><clipPath id="b89c262be9"><path d="M 192 88.273438 C 139.738281 88.273438 97.367188 130.640625 97.367188 182.90625 C 97.367188 235.167969 139.738281 277.535156 192 277.535156 C 244.261719 277.535156 286.632812 235.167969 286.632812 182.90625 C 286.632812 130.640625 244.261719 88.273438 192 88.273438 Z M 192 88.273438 " clip-rule="nonzero"/></clipPath><clipPath id="5ba2b51fa9"><path d="M 129.21875 117.765625 L 254.46875 117.765625 L 254.46875 248 L 129.21875 248 Z M 129.21875 117.765625 " clip-rule="nonzero"/></clipPath></defs><g clip-path="url(#3e2ee110c4)"><g clip-path="url(#b89c262be9)"><path fill="#ffffff" d="M 97.367188 88.273438 L 286.632812 88.273438 L 286.632812 277.535156 L 97.367188 277.535156 Z M 97.367188 88.273438 " fill-opacity="1" fill-rule="nonzero"/></g></g><g clip-path="url(#5ba2b51fa9)"><path fill="#f38526" d="M 215.960938 149.414062 L 215.859375 149.542969 C 215.597656 149.570312 215.632812 149.523438 215.523438 149.878906 C 215.417969 150.238281 215.679688 150.113281 215.726562 150.339844 C 215.742188 150.414062 215.609375 150.511719 215.675781 150.539062 C 216.234375 150.777344 215.695312 150.457031 216.230469 151.25 C 216.269531 151.308594 216.421875 151.464844 216.382812 151.550781 C 216.292969 151.746094 216.445312 151.714844 216.484375 151.765625 L 216.820312 152.136719 C 217.109375 152.445312 217.527344 153 217.863281 153.273438 L 218.453125 154.027344 C 219.109375 154.824219 220.304688 154.929688 221.09375 154.269531 L 222.609375 153.003906 L 222.996094 152.488281 C 223.046875 152.425781 223.082031 152.351562 223.148438 152.308594 C 223.25 152.230469 223.25 152.054688 223.398438 152.007812 L 224.15625 151.175781 C 224.226562 151.09375 224.277344 150.996094 224.324219 150.914062 L 225.386719 149.695312 L 226.007812 148.953125 C 226.027344 148.859375 226.078125 148.785156 226.09375 148.683594 L 226.226562 148.507812 C 226.226562 148.394531 226.175781 148.242188 226.261719 148.207031 C 226.277344 148.203125 226.277344 148.199219 226.261719 148.191406 C 226.191406 148.117188 226.359375 148.070312 226.3125 147.921875 C 226.257812 147.75 226.523438 147.675781 226.5625 147.277344 C 226.589844 147.023438 226.832031 147.015625 226.75 146.835938 C 226.542969 146.378906 226.792969 146.539062 226.632812 146.300781 C 226.582031 146.21875 226.582031 146.183594 226.582031 146.164062 L 226.464844 145.875 L 225.757812 145.488281 C 225.578125 145.332031 224.699219 145.261719 224.460938 145.3125 C 223.996094 145.40625 223.914062 145.09375 222.945312 145.847656 L 222.660156 146.140625 C 222.519531 146.167969 222.371094 146.386719 222.289062 146.449219 C 222.238281 146.476562 222.1875 146.492188 222.15625 146.523438 L 221.011719 147.800781 L 220.589844 148.375 C 220.246094 149.050781 219.777344 149.488281 219.597656 149.804688 C 219.578125 149.828125 219.5625 149.847656 219.5625 149.871094 L 219.429688 149.8125 C 219.441406 149.703125 219.382812 149.761719 219.277344 149.6875 C 218.542969 149.148438 218.457031 149.066406 217.511719 149.066406 L 216.214844 149.117188 C 216.074219 149.152344 216.140625 149.257812 216.078125 149.324219 C 216.046875 149.355469 215.996094 149.382812 215.960938 149.414062 Z M 199.46875 127.667969 C 199.542969 127.683594 199.46875 127.703125 199.46875 127.992188 L 199.46875 128.144531 L 199.453125 128.261719 L 199.636719 128.597656 L 199.875 129.042969 L 200.09375 129.621094 C 200.125 129.652344 200.144531 129.6875 200.175781 129.710938 L 200.328125 129.773438 C 200.34375 129.824219 200.464844 129.765625 200.429688 129.851562 L 200.699219 130.113281 L 200.917969 130.265625 L 201.1875 130.484375 C 201.195312 130.535156 201.339844 130.734375 201.589844 130.664062 C 201.589844 130.660156 201.589844 130.675781 201.589844 130.675781 C 201.625 130.679688 201.605469 130.714844 201.65625 130.691406 L 201.992188 130.570312 L 202.078125 130.554688 C 202.433594 130.644531 202.246094 130.449219 202.464844 130.578125 L 202.917969 130.296875 C 202.988281 130.230469 203.019531 130.21875 203.019531 130.222656 C 203.167969 130.25 204.191406 128.96875 204.367188 128.519531 C 204.476562 128.234375 204.648438 128.136719 204.601562 127.828125 L 204.5 127.570312 L 204.46875 127.453125 C 204.394531 127.210938 204.257812 127.070312 204.03125 126.945312 C 203.792969 126.816406 203.542969 126.796875 203.339844 126.640625 C 203.230469 126.558594 203.191406 126.640625 203.203125 126.5625 L 202.9375 126.507812 C 202.847656 126.457031 202.613281 126.191406 202.449219 126.144531 L 202.078125 126.03125 L 202.042969 125.992188 C 201.902344 126.035156 202 125.605469 200.78125 126.273438 L 200.160156 126.628906 L 199.871094 126.933594 L 199.6875 127.0625 C 199.671875 127.078125 199.296875 127.550781 199.484375 127.460938 L 199.433594 127.605469 C 199.3125 127.734375 199.414062 127.65625 199.46875 127.667969 Z M 191.679688 148.429688 C 191.730469 148.695312 191.769531 148.578125 191.796875 148.582031 C 191.796875 148.597656 191.8125 148.613281 191.828125 148.628906 C 191.828125 148.992188 191.921875 148.625 191.964844 148.734375 L 192.148438 148.960938 L 192.234375 149.023438 C 192.234375 149.28125 192.292969 149.164062 192.316406 149.167969 L 192.957031 149.34375 L 193.664062 149.6875 L 193.898438 149.625 L 194.101562 149.597656 C 194.136719 149.667969 194.597656 149.550781 194.722656 149.542969 C 194.824219 149.539062 194.910156 149.535156 195.011719 149.527344 C 195.027344 149.527344 195.042969 149.496094 195.058594 149.507812 L 195.363281 149.46875 L 195.464844 149.355469 C 195.480469 149.34375 195.496094 149.378906 195.515625 149.335938 L 195.648438 149.089844 L 195.699219 148.945312 C 195.699219 148.933594 195.714844 148.933594 195.714844 148.933594 C 195.96875 148.816406 195.800781 148.703125 196.003906 148.675781 L 196.105469 148.296875 L 196.152344 148.027344 L 196.152344 147.34375 C 196.113281 146.855469 196.078125 146.347656 195.886719 145.878906 C 195.84375 145.777344 195.75 145.277344 195.597656 145.234375 C 195.582031 145.230469 195.582031 145.222656 195.582031 145.222656 C 195.453125 145.132812 195.507812 145.109375 195.328125 145.113281 L 195.230469 145.042969 C 194.863281 144.933594 194.953125 144.871094 194.351562 145.078125 C 194.351562 145.078125 194.351562 145.082031 194.351562 145.082031 C 194.214844 145.164062 194.207031 145.21875 194.035156 145.21875 C 194.015625 145.21875 194 145.253906 193.984375 145.261719 L 193.796875 145.300781 C 193.71875 145.382812 193.714844 145.242188 193.714844 145.324219 C 193.679688 145.347656 193.664062 145.386719 193.628906 145.402344 L 193.511719 145.464844 C 193.183594 145.464844 193.019531 145.507812 192.738281 145.640625 L 192.585938 145.726562 L 192.519531 145.746094 C 192.132812 145.839844 192.105469 146.097656 191.980469 146.476562 C 191.902344 146.714844 191.675781 147.273438 191.675781 147.507812 L 191.695312 147.925781 L 191.660156 148.222656 C 191.660156 148.296875 191.679688 148.359375 191.679688 148.429688 Z M 246.085938 147.28125 C 246.179688 147.867188 246.0625 147.667969 246.289062 148.496094 C 246.335938 148.675781 246.492188 149.324219 246.660156 149.398438 C 246.660156 149.398438 246.675781 149.402344 246.675781 149.40625 C 246.851562 149.523438 246.710938 149.5 246.925781 149.515625 C 246.925781 149.589844 247.078125 149.589844 247.097656 149.59375 L 247.367188 149.6875 L 247.886719 149.554688 C 247.886719 149.550781 247.902344 149.546875 247.902344 149.542969 L 248.222656 149.40625 C 248.238281 149.40625 248.238281 149.371094 248.257812 149.367188 L 248.460938 149.328125 C 248.53125 149.246094 248.527344 149.355469 248.542969 149.304688 L 248.746094 149.167969 L 249.332031 149.070312 C 249.53125 148.941406 249.640625 148.972656 249.652344 148.898438 L 249.703125 148.902344 L 249.957031 148.785156 L 250.089844 148.613281 C 250.195312 148.359375 250.601562 147.328125 250.578125 147.121094 C 250.542969 146.792969 250.640625 146.164062 250.527344 146.046875 C 250.511719 146.023438 250.496094 145.992188 250.476562 146.046875 C 250.460938 146.054688 250.460938 146.050781 250.460938 146.046875 C 250.445312 146.03125 250.425781 146.015625 250.425781 146 L 250.394531 145.824219 L 250.292969 145.890625 C 250.265625 145.742188 250.011719 145.648438 250.007812 145.554688 L 249.941406 145.457031 C 249.921875 145.453125 249.921875 145.429688 249.90625 145.429688 L 249.097656 145.203125 L 248.558594 144.945312 C 248.507812 144.949219 248.476562 144.941406 248.425781 144.953125 L 248.273438 145.015625 C 248.238281 144.988281 248.191406 145.105469 248.15625 145.027344 L 247.800781 145.027344 L 247.53125 145.082031 L 247.195312 145.121094 C 247.085938 145.054688 246.835938 145.117188 246.792969 145.269531 L 246.726562 145.292969 L 246.640625 145.476562 C 246.640625 145.550781 246.558594 145.554688 246.558594 145.683594 L 246.371094 145.863281 L 246.238281 145.953125 L 246.070312 146.886719 Z M 237.804688 128.011719 L 237.839844 128.097656 C 237.804688 128.117188 237.953125 128.25 237.855469 128.351562 L 237.890625 128.597656 C 237.761719 128.617188 238.234375 129.203125 238.210938 129.214844 L 239.253906 130.164062 C 239.433594 130.292969 240.386719 130.855469 240.582031 130.792969 C 240.75 130.738281 240.675781 130.855469 240.871094 130.683594 C 240.871094 130.632812 240.871094 130.730469 240.988281 130.664062 C 241.003906 130.652344 241.019531 130.632812 241.054688 130.621094 C 241.054688 130.617188 241.089844 130.625 241.105469 130.617188 C 241.535156 130.453125 241.605469 129.769531 241.726562 129.675781 C 241.746094 129.667969 241.726562 129.625 241.726562 129.609375 L 241.847656 129.449219 L 241.894531 129.363281 C 241.894531 129.105469 241.957031 129.257812 241.929688 129.140625 C 241.914062 129.128906 241.929688 129.128906 241.929688 129.128906 L 242.300781 128.628906 L 242.351562 128.445312 C 242.382812 128.335938 242.429688 128.371094 242.402344 128.273438 C 242.382812 128.210938 242.453125 128.351562 242.453125 128.238281 C 242.417969 128.207031 242.621094 128.007812 242.519531 127.753906 C 242.390625 127.4375 242.023438 126.566406 241.8125 126.351562 L 241.507812 126.066406 L 241.324219 125.828125 C 241.296875 125.8125 240.914062 125.503906 240.972656 125.667969 L 240.835938 125.621094 C 240.769531 125.558594 240.753906 125.558594 240.769531 125.574219 C 240.769531 125.847656 240.769531 125.605469 240.449219 125.660156 L 240.296875 125.65625 C 240.195312 125.574219 240.179688 125.582031 240.179688 125.609375 C 240.195312 125.625 240.179688 125.636719 240.179688 125.640625 L 239.742188 125.875 L 239.574219 125.996094 L 238.832031 126.242188 C 238.832031 126.3125 238.789062 126.199219 238.714844 126.460938 L 238.582031 126.621094 L 238.328125 126.875 L 238.175781 127.109375 C 238.109375 127.183594 238.042969 127.253906 237.976562 127.328125 C 237.957031 127.34375 237.976562 127.378906 237.957031 127.382812 C 237.828125 127.40625 237.699219 127.644531 237.773438 127.769531 C 237.789062 127.785156 237.773438 127.777344 237.757812 127.789062 C 237.757812 127.804688 237.722656 127.792969 237.738281 127.835938 C 237.789062 127.910156 237.855469 128.023438 237.804688 128.011719 Z M 218.773438 120.078125 L 218.839844 120.355469 L 218.839844 120.722656 L 218.890625 121 L 218.925781 121.347656 C 218.84375 121.460938 218.960938 121.722656 219.09375 121.773438 C 219.09375 121.792969 219.058594 121.808594 219.109375 121.824219 C 219.175781 121.851562 219.3125 121.878906 219.277344 121.90625 L 219.511719 122.027344 C 219.605469 122.113281 219.460938 122.109375 219.683594 122.195312 C 219.832031 122.253906 219.664062 122.316406 219.832031 122.34375 L 220.289062 122.445312 C 220.386719 122.453125 220.40625 122.460938 220.40625 122.472656 C 221.027344 122.535156 220.859375 122.476562 221.480469 122.453125 C 221.773438 122.441406 223.140625 122.117188 223.199219 121.902344 L 223.332031 121.613281 L 223.402344 121.453125 C 223.617188 121.28125 223.382812 120.625 223.351562 120.621094 L 223.214844 120.296875 L 223.132812 119.980469 L 223.03125 119.878906 L 222.945312 119.460938 C 222.929688 119.28125 222.980469 119.335938 222.828125 119.058594 L 222.710938 118.808594 L 222.710938 118.753906 L 222.59375 118.46875 C 222.339844 118.273438 221.136719 117.851562 220.925781 117.863281 L 220.523438 117.878906 C 220.398438 117.902344 220.523438 117.792969 220.019531 117.871094 C 219.90625 117.890625 219.742188 117.933594 219.867188 117.972656 C 219.867188 117.976562 219.867188 117.980469 219.851562 117.984375 C 219.851562 118.0625 219.632812 118.019531 219.632812 118.058594 C 219.8125 118.160156 219.726562 118.085938 219.480469 118.347656 C 219.476562 118.347656 219.453125 118.441406 219.363281 118.449219 L 219.277344 118.519531 L 219.058594 119.289062 C 219.007812 119.484375 218.679688 119.828125 218.773438 120.078125 Z M 169.882812 185.097656 L 169.582031 185.460938 L 169.597656 185.558594 L 169.683594 185.726562 L 169.664062 185.941406 C 169.675781 185.96875 169.734375 185.957031 169.734375 186.105469 L 169.765625 186.308594 C 169.753906 186.320312 169.679688 186.472656 169.917969 186.542969 C 169.933594 186.550781 169.917969 186.554688 169.917969 186.558594 C 169.933594 186.566406 169.902344 186.578125 169.933594 186.585938 L 170.339844 186.691406 C 170.339844 186.695312 170.339844 186.703125 170.339844 186.707031 C 170.496094 186.847656 170.628906 186.8125 170.589844 186.84375 C 170.574219 186.855469 170.589844 186.867188 170.609375 186.878906 L 171.535156 186.992188 L 173.402344 186.8125 C 173.46875 186.792969 174.058594 186.710938 174.058594 186.621094 C 174.207031 186.503906 174.160156 186.574219 174.160156 186.46875 L 174.226562 186.410156 C 174.242188 186.398438 174.226562 186.382812 174.242188 186.371094 C 174.242188 186.363281 174.414062 186.269531 174.277344 186.011719 C 174.132812 185.746094 174.058594 185.84375 174.058594 185.6875 C 174.058594 185.679688 174.023438 185.667969 174.007812 185.65625 L 173.957031 185.492188 C 173.75 185.390625 173.824219 185.304688 173.773438 185.109375 L 173.652344 184.964844 C 173.652344 184.945312 173.636719 184.925781 173.636719 184.90625 C 173.566406 184.851562 173.628906 184.820312 173.554688 184.816406 L 173.554688 184.785156 C 173.535156 184.78125 173.535156 184.773438 173.535156 184.769531 C 173.332031 184.605469 173.679688 184.632812 172.796875 184.441406 C 172.21875 184.316406 171.945312 184.238281 171.347656 184.269531 C 171.347656 184.269531 171.332031 184.269531 171.332031 184.269531 C 170.933594 184.210938 170.550781 184.300781 170.691406 184.324219 C 170.710938 184.328125 170.691406 184.328125 170.691406 184.332031 C 170.675781 184.335938 170.660156 184.34375 170.640625 184.355469 C 170.640625 184.417969 170.328125 184.269531 170.539062 184.40625 L 170.304688 184.542969 C 170.304688 184.628906 170.070312 184.59375 170.070312 184.664062 C 170.070312 184.824219 170 184.792969 170 184.863281 L 169.933594 185.050781 C 169.917969 185.066406 169.902344 185.082031 169.882812 185.097656 Z M 156.085938 185.097656 L 155.78125 185.460938 L 155.882812 185.726562 L 155.867188 185.941406 C 155.875 185.96875 155.933594 185.957031 155.933594 186.105469 L 155.96875 186.308594 C 155.960938 186.3125 155.863281 186.476562 156.117188 186.542969 C 156.136719 186.550781 156.117188 186.554688 156.117188 186.558594 C 156.136719 186.566406 156.101562 186.578125 156.136719 186.585938 L 156.472656 186.679688 C 156.523438 186.683594 156.523438 186.691406 156.523438 186.691406 C 156.539062 186.695312 156.539062 186.703125 156.539062 186.707031 L 156.707031 186.804688 C 156.757812 186.816406 156.792969 186.828125 156.792969 186.84375 C 156.757812 186.855469 156.792969 186.867188 156.792969 186.878906 L 157.734375 186.992188 L 159.601562 186.8125 C 159.660156 186.796875 160.257812 186.707031 160.257812 186.621094 C 160.40625 186.503906 160.359375 186.574219 160.359375 186.460938 C 160.425781 186.445312 160.425781 186.429688 160.425781 186.410156 C 160.441406 186.398438 160.425781 186.382812 160.441406 186.371094 C 160.441406 186.367188 160.605469 186.25 160.476562 186.011719 C 160.335938 185.746094 160.257812 185.84375 160.257812 185.6875 C 160.257812 185.679688 160.222656 185.667969 160.207031 185.65625 L 160.15625 185.492188 C 159.953125 185.390625 160.023438 185.304688 159.972656 185.109375 L 159.835938 184.90625 C 159.765625 184.851562 159.828125 184.820312 159.753906 184.816406 L 159.753906 184.785156 C 159.738281 184.78125 159.738281 184.773438 159.738281 184.769531 C 159.53125 184.605469 159.878906 184.632812 158.996094 184.441406 C 158.421875 184.316406 158.144531 184.238281 157.546875 184.269531 C 157.546875 184.269531 157.53125 184.269531 157.53125 184.269531 C 157.179688 184.21875 156.75 184.285156 156.890625 184.324219 C 156.890625 184.328125 156.890625 184.328125 156.890625 184.332031 C 156.875 184.335938 156.859375 184.34375 156.839844 184.355469 C 156.839844 184.417969 156.527344 184.269531 156.742188 184.40625 L 156.503906 184.542969 C 156.503906 184.628906 156.269531 184.59375 156.269531 184.664062 C 156.269531 184.824219 156.203125 184.792969 156.203125 184.863281 L 156.132812 185.050781 C 156.117188 185.066406 156.101562 185.082031 156.085938 185.097656 Z M 170.558594 217.484375 C 170.515625 217.253906 170.445312 216.789062 170.320312 216.628906 C 170.253906 216.542969 170.402344 216.558594 170.222656 216.257812 C 169.921875 215.761719 170.003906 215.554688 169.261719 214.742188 C 167.773438 213.105469 165.125 214.046875 165.1875 214.375 C 165.191406 214.394531 165.359375 214.484375 165.257812 214.652344 L 165.238281 214.792969 C 165.257812 214.800781 165.257812 214.8125 165.257812 214.824219 C 165 214.988281 165.011719 214.957031 165.1875 215.296875 C 165.359375 215.621094 165.445312 215.386719 165.695312 215.574219 C 165.769531 215.628906 165.683594 215.78125 165.761719 215.769531 C 166.121094 215.714844 166.066406 215.816406 166.46875 216.324219 C 166.804688 216.746094 166.425781 216.703125 166.621094 216.785156 C 166.667969 216.804688 166.921875 217.367188 166.921875 217.566406 C 166.921875 218.003906 166.976562 218.273438 166.71875 218.71875 C 166.519531 219.066406 166.019531 219.40625 165.578125 219.441406 L 164.9375 219.605469 C 164.851562 219.582031 164.726562 219.667969 164.667969 219.574219 L 164.128906 219.304688 C 163.90625 219.121094 163.777344 219.148438 163.589844 218.765625 C 163.15625 217.867188 163.613281 217.679688 163.507812 217.089844 C 163.507812 217.066406 163.523438 217.058594 163.539062 217.042969 C 163.539062 217 163.609375 216.996094 163.589844 216.933594 C 163.558594 216.832031 163.507812 216.6875 163.589844 216.660156 C 163.589844 216.59375 163.539062 216.582031 163.625 216.519531 C 163.726562 216.445312 163.546875 216.472656 163.707031 216.25 C 163.925781 215.953125 163.863281 216.203125 164.0625 215.839844 C 164.195312 215.59375 164.425781 215.746094 164.484375 215.523438 C 164.597656 215.0625 164.738281 215.292969 164.804688 215.027344 C 164.855469 214.816406 164.914062 214.941406 164.9375 214.851562 C 164.953125 214.703125 165.003906 214.667969 165.054688 214.601562 L 164.683594 213.777344 C 164.230469 213.351562 164.21875 213.40625 163.574219 213.21875 C 163.09375 213.078125 162.746094 213.253906 162.246094 213.226562 C 161.773438 213.199219 161.039062 213.679688 160.714844 213.996094 C 160.164062 214.527344 159.992188 214.625 159.636719 215.339844 C 159.320312 215.96875 159.09375 216.398438 158.980469 217.121094 C 158.9375 217.402344 158.84375 217.625 158.84375 218.078125 C 158.84375 219.460938 159.15625 220.292969 159.90625 221.476562 C 160.273438 222.058594 161.058594 222.753906 161.621094 223.078125 C 162.820312 223.769531 164.308594 224.089844 165.679688 223.917969 L 166.738281 223.65625 L 167.984375 222.957031 C 168.128906 222.816406 168.804688 222.59375 169.699219 221.328125 C 170.226562 220.585938 170.316406 220.28125 170.507812 219.453125 C 170.613281 218.996094 170.628906 219.003906 170.609375 218.449219 Z M 244.875 176.109375 C 244.796875 175.035156 244.890625 174.578125 244.890625 173.71875 L 242.367188 173.75 C 242.113281 173.671875 241.878906 173.792969 241.644531 173.765625 L 239.792969 173.84375 L 236.242188 173.539062 L 233.515625 173.410156 L 231.679688 173.332031 C 231.445312 173.40625 231.417969 173.1875 231.328125 173.171875 C 231.226562 173.160156 231.109375 173.164062 231.007812 173.117188 L 230.285156 173.027344 C 230.117188 172.984375 229.964844 172.96875 229.796875 172.902344 L 229.863281 173.597656 C 229.789062 173.957031 230.027344 174.703125 229.796875 175.507812 C 229.414062 176.84375 228.136719 177.789062 226.816406 177.8125 C 226.648438 177.8125 226.480469 177.8125 226.3125 177.8125 C 226.582031 178.425781 226.46875 179.394531 226.496094 179.5 C 226.515625 179.578125 226.53125 179.660156 226.445312 179.726562 C 226.445312 180.238281 226.390625 180.011719 226.378906 180.234375 C 226.351562 180.722656 225.761719 181.980469 225.4375 182.363281 C 225.007812 182.867188 224.25 183.515625 223.667969 183.785156 L 222.792969 184.207031 L 222.238281 184.433594 C 222.105469 184.421875 221.96875 184.46875 221.835938 184.511719 L 220.40625 184.59375 C 220.179688 184.558594 218.453125 184.257812 218.453125 184.152344 C 216.976562 183.5625 215.707031 182.242188 215.289062 180.691406 C 215.273438 180.605469 215.273438 180.511719 215.253906 180.421875 C 215.0625 179.484375 215.144531 179.894531 215.085938 179.015625 C 215.050781 178.484375 215.222656 178.152344 215.222656 177.917969 C 215.136719 177.90625 215.035156 177.894531 214.953125 177.882812 C 213.839844 177.726562 212.867188 176.96875 212.445312 175.9375 C 212.34375 175.65625 212.257812 175.355469 212.226562 175.054688 L 212.226562 174.644531 L 212.359375 172.988281 C 212.078125 173.078125 211.453125 173.039062 211.351562 173.152344 C 211.203125 173.3125 211.058594 173.167969 210.914062 173.304688 C 210.914062 173.3125 210.894531 173.316406 210.894531 173.3125 C 210.726562 173.273438 210.578125 173.40625 210.425781 173.484375 L 210.019531 173.511719 C 209.523438 173.691406 208.234375 173.722656 207.699219 173.65625 L 205.695312 173.695312 C 205.359375 173.699219 205.023438 173.695312 204.6875 173.703125 C 204.5 173.710938 204.300781 173.746094 204.113281 173.753906 L 201.976562 173.746094 C 201.742188 173.671875 201.503906 173.792969 201.253906 173.765625 L 199.417969 173.84375 L 197.703125 173.6875 C 197.761719 173.917969 197.695312 174.039062 197.804688 174.117188 C 197.964844 174.234375 197.808594 174.382812 197.953125 174.492188 C 197.953125 174.503906 197.972656 174.507812 197.953125 174.515625 C 197.921875 174.65625 198.054688 174.789062 198.121094 174.925781 L 198.15625 175.273438 C 198.371094 175.792969 198.289062 176.386719 198.324219 176.753906 C 198.339844 176.933594 198.324219 177.117188 198.308594 177.296875 L 198.34375 179.058594 C 198.34375 179.347656 198.34375 179.640625 198.34375 179.933594 C 198.359375 180.105469 198.394531 180.273438 198.394531 180.445312 L 198.394531 182.296875 C 198.324219 182.511719 198.441406 182.71875 198.410156 182.933594 L 198.476562 183.699219 C 198.554688 184.90625 198.265625 186.398438 198.191406 187.640625 L 198.140625 188.183594 C 198.164062 189.042969 198.003906 190.292969 198.003906 191.25 C 199.582031 190.660156 201.359375 190.746094 202.886719 191.417969 L 202.96875 191.3125 C 202.96875 191.042969 203.304688 190.695312 203.492188 190.582031 C 203.523438 190.558594 203.542969 190.507812 203.558594 190.480469 L 204.28125 189.726562 C 204.402344 189.59375 204.378906 189.503906 204.855469 189.074219 C 204.90625 189.03125 204.90625 188.964844 204.988281 188.960938 C 205.105469 188.945312 205.089844 188.796875 205.175781 188.75 C 205.273438 188.691406 205.265625 188.589844 205.375 188.464844 C 205.773438 188.019531 205.652344 188.175781 206.183594 187.84375 L 206.992188 187.304688 L 208.1875 186.34375 C 208.1875 186.226562 208.386719 186.390625 208.386719 186.363281 C 208.5625 186.292969 208.824219 186.105469 209.027344 186.136719 C 209.199219 186.164062 209.035156 185.8125 209.230469 185.957031 C 209.296875 186 209.3125 185.996094 209.3125 185.992188 C 209.589844 185.910156 209.304688 185.921875 209.53125 185.847656 C 209.53125 185.847656 210.019531 185.917969 210.019531 186.25 C 210.039062 186.253906 210.039062 186.261719 210.054688 186.265625 L 210.238281 186.46875 C 210.304688 186.535156 210.464844 186.46875 210.507812 186.929688 C 210.542969 187.292969 210.742188 188.347656 210.59375 188.652344 L 210.222656 189.191406 C 210.222656 189.328125 210.132812 189.214844 210.136719 189.273438 L 209.667969 190 L 208.84375 190.945312 C 208.84375 191.027344 208.675781 191.15625 208.625 191.359375 L 208.503906 191.523438 L 208.21875 191.851562 C 208.203125 191.878906 208.203125 191.933594 208.167969 191.960938 C 207.90625 192.210938 207.585938 193.015625 206.839844 193.664062 L 206.484375 193.90625 C 206.421875 193.953125 206.304688 194.105469 206.199219 194.105469 C 206.140625 194.101562 206.074219 194.265625 205.878906 194.351562 C 206.351562 195.472656 206.605469 196.269531 206.503906 197.535156 C 206.386719 198.976562 205.730469 200.523438 204.683594 201.546875 L 203.492188 202.769531 L 201.472656 204.960938 L 197.800781 208.773438 L 197.011719 209.574219 C 197.0625 209.792969 197.078125 210.046875 197.097656 210.304688 C 197.25 213.328125 197.566406 212.152344 197.484375 215.695312 C 197.449219 217.15625 197.683594 219.101562 197.683594 220.839844 C 197.683594 221.230469 197.710938 224.609375 197.800781 225.0625 C 197.871094 225.453125 197.886719 225.851562 197.886719 226.261719 C 197.886719 226.710938 197.871094 227.171875 197.953125 227.605469 C 197.953125 227.648438 197.96875 227.699219 197.953125 227.746094 C 197.921875 228.699219 198.054688 229.597656 198.121094 230.511719 C 198.1875 231.3125 198.113281 232.207031 198.15625 232.871094 C 198.277344 234.835938 198.363281 238.246094 198.324219 240.214844 C 198.3125 240.804688 198.257812 241.304688 198.542969 241.902344 C 198.925781 242.699219 199.734375 243.402344 200.648438 243.421875 L 200.914062 243.429688 L 216.820312 243.402344 C 217.980469 243.386719 219.125 243.371094 220.269531 243.355469 L 230.199219 243.347656 C 231.058594 243.347656 231.933594 243.3125 232.789062 243.355469 C 234.21875 243.433594 235.652344 243.316406 237.082031 243.34375 C 237.832031 243.359375 241.378906 243.34375 241.808594 243.238281 C 242.847656 242.980469 243.503906 242.355469 243.710938 241.339844 C 243.820312 240.804688 243.789062 239.902344 243.796875 239.355469 L 243.914062 231.878906 L 244.066406 220.882812 L 244.097656 217.214844 L 244.148438 209.230469 L 244.234375 200.167969 L 244.25 195.851562 L 244.265625 193.917969 C 244.207031 192.671875 244.390625 192.632812 244.4375 191.910156 C 244.4375 191.265625 244.4375 190.621094 244.484375 189.972656 C 244.503906 189.578125 244.484375 189.164062 244.484375 188.761719 L 244.722656 182.59375 L 244.65625 179.015625 C 244.613281 178.179688 244.808594 178.589844 244.824219 177.828125 Z M 196.085938 204.019531 L 190.871094 209.277344 C 190.667969 209.480469 190.484375 209.710938 190.265625 209.90625 C 189.214844 210.847656 186.71875 213.417969 185.871094 214.503906 L 185.113281 215.296875 C 184.878906 215.652344 184.675781 216.042969 184.324219 216.328125 C 184.308594 216.339844 184.308594 216.363281 184.289062 216.382812 C 184.207031 216.582031 184.039062 216.71875 183.902344 216.871094 C 183.449219 217.328125 183.722656 217.203125 183.363281 217.597656 C 182.730469 218.296875 181.851562 219.164062 181.34375 219.871094 C 180.960938 220.40625 180.894531 220.417969 180.488281 220.835938 L 180.453125 219.894531 L 180.335938 213.894531 L 180.285156 212.480469 C 180.613281 212.316406 181.070312 211.863281 181.277344 211.582031 C 181.277344 211.578125 181.945312 210.929688 182.117188 210.9375 C 182.4375 210.953125 182.972656 209.957031 183.53125 209.554688 C 183.917969 209.277344 184.273438 208.949219 184.644531 208.640625 L 186.125 207.289062 C 186.359375 207.109375 186.578125 206.894531 186.796875 206.691406 C 187.023438 206.488281 187.082031 206.707031 187.570312 206.140625 L 188.226562 205.519531 L 192.015625 201.832031 C 192.25 201.617188 192.484375 201.414062 192.703125 201.191406 C 193.507812 200.339844 194.625 199.390625 195.363281 198.589844 L 197.566406 196.492188 L 198.527344 195.617188 C 199.121094 195.011719 199.929688 194.773438 200.75 195.082031 C 201.351562 195.308594 201.453125 195.578125 201.675781 195.761719 C 201.90625 195.953125 202.03125 196.449219 202.09375 196.722656 C 202.285156 197.53125 201.933594 198.234375 201.304688 198.734375 L 197.199219 202.847656 C 196.8125 203.230469 196.457031 203.636719 196.085938 204.019531 Z M 177.59375 202.8125 C 177.597656 202.828125 177.59375 204.023438 177.457031 204.179688 C 177.226562 204.445312 177.558594 205.960938 177.441406 206.769531 C 177.308594 207.671875 177.269531 209.542969 177.222656 210.523438 C 177.203125 210.769531 177.238281 211.027344 177.203125 211.265625 C 177.171875 211.660156 177.171875 212.054688 177.15625 212.449219 C 177.148438 212.785156 176.921875 212.851562 176.984375 213.671875 C 177.03125 214.242188 176.96875 214.378906 176.96875 214.847656 L 176.917969 220.289062 L 176.867188 223.007812 L 176.835938 226.457031 C 176.835938 227.414062 176.761719 227.925781 176.597656 228.851562 L 176.195312 230.265625 C 175.625 231.683594 175.585938 231.699219 174.796875 232.953125 C 173.804688 234.542969 172.195312 235.800781 170.574219 236.683594 C 168.84375 237.628906 166.109375 238.339844 164.09375 238.117188 C 162.984375 237.996094 162.726562 238.023438 161.65625 237.640625 C 160.457031 237.214844 159.746094 236.929688 158.640625 236.191406 C 157.566406 235.46875 156.183594 234.121094 155.476562 233.105469 L 154.382812 231.117188 C 153.984375 230.195312 153.679688 228.921875 153.558594 227.929688 L 153.460938 223.984375 C 153.476562 223.242188 153.492188 222.496094 153.476562 221.75 C 153.433594 219.886719 153.496094 217.558594 153.308594 215.664062 C 153.277344 215.347656 153.339844 214.699219 153.273438 214.222656 C 153.207031 213.667969 153.070312 213.117188 153.105469 212.539062 L 153.039062 211.632812 C 153.039062 210.964844 152.914062 210.976562 152.886719 210.476562 C 152.804688 209.074219 152.890625 207.964844 152.703125 206.5 L 152.617188 203.832031 C 152.617188 203.539062 152.386719 203.085938 152.296875 202.484375 C 157.046875 203.078125 163.445312 203.292969 168.183594 203.039062 C 169.929688 202.941406 175.648438 202.523438 177.558594 202.207031 C 177.558594 202.410156 177.574219 202.609375 177.59375 202.8125 Z M 149.082031 212.570312 C 149.117188 212.542969 149.152344 212.511719 149.167969 212.480469 C 149.183594 212.476562 149.183594 212.472656 149.183594 212.464844 C 149.195312 211.671875 149.359375 208.855469 149.554688 208.109375 C 149.789062 207.222656 149.828125 205.703125 150.078125 204.59375 L 150.429688 202.746094 C 150.046875 203.199219 149.914062 203.214844 149.554688 203.746094 C 149.167969 204.316406 148.6875 204.796875 148.226562 205.3125 C 147.675781 205.921875 147.925781 205.832031 147.636719 206.128906 C 147.519531 206.246094 147.382812 206.351562 147.332031 206.515625 C 147.332031 206.53125 147.316406 206.550781 147.300781 206.558594 C 147.03125 206.777344 146.894531 207.101562 146.710938 207.390625 L 146.121094 208.011719 C 145.480469 208.90625 143.59375 210.855469 142.738281 211.609375 C 142.570312 211.757812 142.4375 211.941406 142.285156 212.097656 L 138.230469 216.1875 C 137.941406 216.488281 137.675781 216.808594 137.386719 217.105469 L 134.257812 220.226562 C 134.054688 220.328125 133.753906 221.054688 133.804688 221.484375 C 133.882812 222.148438 134.039062 222.722656 134.59375 223.203125 C 135.378906 223.875 136.601562 223.816406 137.238281 223.261719 L 138.128906 222.453125 L 141.359375 219.328125 L 143.683594 217.089844 L 144.203125 216.609375 C 144.574219 216.152344 144.613281 216.378906 144.828125 216.207031 C 144.996094 216.054688 145.164062 215.886719 145.367188 215.753906 C 145.484375 215.667969 145.566406 215.542969 145.667969 215.445312 L 147.402344 214.027344 C 147.941406 213.691406 148.210938 212.902344 148.511719 212.957031 C 148.640625 212.980469 148.917969 212.707031 149.082031 212.570312 Z M 216.214844 173.957031 L 216.417969 174.535156 C 216.417969 174.460938 216.195312 174.167969 216.214844 173.957031 Z M 219.261719 178.089844 L 223.265625 177.980469 C 223.265625 178 223.265625 178.023438 223.265625 178.039062 C 223.164062 178.132812 223.050781 178.152344 223.097656 178.269531 C 223.148438 178.386719 223.082031 178.414062 223.082031 178.488281 C 223.082031 178.90625 222.972656 179.214844 222.726562 179.546875 C 222.558594 179.773438 222.511719 179.867188 222.136719 180 C 221.519531 180.21875 221.722656 180 221.164062 180.226562 L 220.84375 180.230469 L 220.152344 179.96875 C 219.945312 179.863281 219.597656 179.316406 219.597656 179.316406 L 219.445312 178.820312 C 219.210938 178.535156 219.394531 178.503906 219.292969 178.371094 C 219.226562 178.277344 219.109375 178.1875 219.125 178.089844 C 219.175781 178.089844 219.226562 178.09375 219.261719 178.089844 Z M 226.816406 173.445312 C 226.832031 173.445312 226.800781 173.445312 226.800781 173.445312 L 226.53125 173.457031 C 226.632812 173.441406 226.714844 173.4375 226.816406 173.445312 Z M 254.769531 171.890625 C 254.480469 172.167969 254.648438 172.167969 254.515625 172.179688 C 254.367188 172.1875 254.414062 172.40625 254.230469 172.449219 C 253.753906 172.554688 253.941406 172.921875 253.324219 172.84375 C 253.03125 172.804688 252.800781 173.050781 252.449219 173.042969 C 251.742188 173.023438 251.679688 173.234375 251.523438 173.238281 C 251.242188 173.25 251.332031 173.328125 251.269531 173.3125 C 251.117188 173.273438 250.964844 173.410156 250.796875 173.484375 L 250.394531 173.511719 C 249.644531 173.742188 249.277344 173.632812 248.710938 173.683594 C 248.511719 173.699219 248.289062 173.683594 248.089844 173.65625 L 246.1875 173.695312 C 246.253906 174.191406 246.289062 174.691406 246.320312 175.195312 L 246.976562 182.898438 C 247.25 186.296875 247.492188 189.515625 247.601562 192.933594 C 247.617188 193.382812 247.601562 193.839844 247.617188 194.292969 L 247.683594 199.320312 L 247.734375 202.699219 C 247.753906 203.175781 247.785156 203.652344 247.71875 204.125 C 247.71875 204.238281 247.71875 204.367188 247.71875 204.484375 C 247.804688 205.410156 247.753906 206.351562 247.769531 207.285156 L 247.835938 212.964844 L 247.902344 215.910156 L 247.988281 236.636719 C 247.988281 236.828125 247.988281 237.023438 247.988281 237.214844 C 248 237.597656 248.113281 240.976562 248.023438 241.699219 C 247.859375 242.964844 247.386719 244.308594 246.523438 245.253906 C 245.265625 246.636719 243.605469 247.585938 241.726562 247.664062 C 240.160156 247.730469 238.152344 247.683594 236.578125 247.695312 C 236.003906 247.703125 235.433594 247.738281 234.859375 247.738281 C 228.613281 247.738281 222.351562 247.917969 216.082031 247.964844 L 201 247.996094 C 197.457031 247.960938 194.597656 245.625 193.96875 242.203125 C 193.84375 241.523438 193.832031 241.203125 193.847656 240.558594 C 193.847656 239.578125 193.832031 238.59375 193.898438 237.613281 L 193.917969 233.082031 C 193.945312 230.566406 194.125 222.203125 194.40625 220.484375 C 194.664062 218.894531 194.679688 216.535156 194.925781 214.714844 L 195.347656 211.289062 L 190.449219 215.949219 L 188.953125 217.433594 C 188.09375 218.257812 185.230469 220.832031 184.457031 221.238281 C 183.628906 221.675781 183.089844 222.25 182.1875 222.761719 L 180.539062 223.722656 L 180.605469 226.628906 C 180.625 227.675781 180.472656 229.261719 180.234375 230.269531 C 179.898438 231.695312 179.4375 232.902344 178.738281 234.207031 C 177.792969 235.917969 176.53125 237.457031 175.035156 238.710938 C 173.3125 240.074219 172.183594 240.75 170.085938 241.621094 C 169.445312 241.886719 167.367188 242.351562 166.671875 242.421875 C 165.203125 242.574219 162.808594 242.496094 161.351562 242.109375 C 159.71875 241.675781 158.421875 241.226562 156.960938 240.398438 C 154.621094 239.074219 152.953125 237.558594 151.421875 235.207031 C 149.785156 232.691406 148.898438 229.667969 148.898438 226.660156 L 148.933594 222.757812 C 148.949219 222.453125 148.964844 222.144531 148.984375 221.839844 C 149.003906 221.097656 148.949219 219.136719 149.050781 218.554688 L 149.066406 215.472656 L 147.636719 217.644531 C 147.066406 218.464844 145.296875 220.375 144.605469 221.0625 C 144.40625 221.265625 144.21875 221.578125 144.035156 221.664062 C 143.984375 221.683594 143.949219 221.714844 143.933594 221.753906 L 141.847656 224.003906 C 141.378906 224.507812 140.121094 225.945312 139.558594 226.390625 C 137.457031 228.050781 134.4375 228.171875 132.289062 226.664062 C 131.515625 226.121094 131.34375 226.03125 130.707031 225.195312 C 129.851562 224.074219 129.78125 223.671875 129.496094 222.382812 C 129.21875 221.136719 129.699219 219.304688 130.335938 218.179688 C 130.667969 217.59375 131.316406 216.964844 131.785156 216.46875 L 133.332031 214.75 L 138.785156 209.125 L 140.0625 207.898438 C 140.199219 207.773438 140.347656 207.664062 140.484375 207.539062 C 140.910156 207.132812 141.453125 206.546875 141.914062 206.214844 L 143.074219 205.066406 C 143.789062 204.402344 145.964844 202.476562 146.644531 202.1875 C 146.980469 202.050781 147.265625 201.847656 147.550781 201.644531 C 144.660156 200.40625 143.074219 198.09375 143.023438 194.980469 C 142.992188 192.785156 143.171875 185.011719 143.511719 183.375 C 143.667969 182.636719 143.726562 181.5625 143.882812 180.910156 C 144.425781 178.636719 146.523438 176.589844 148.898438 176.492188 C 148.949219 176.492188 149.015625 176.492188 149.050781 176.511719 C 149.371094 176.714844 149.648438 176.644531 149.941406 176.792969 L 150.648438 177.070312 C 149.609375 177.378906 150.300781 177.328125 149.738281 177.441406 C 149.328125 177.527344 149.394531 177.699219 148.8125 178.03125 C 147.710938 178.660156 147.917969 179.023438 147.570312 179.414062 C 147.316406 179.734375 147.113281 180.089844 146.929688 180.457031 C 146.550781 181.277344 146.792969 182.597656 146.792969 183.640625 C 146.792969 183.902344 146.828125 186.449219 146.914062 186.753906 C 146.980469 187.039062 146.996094 187.332031 146.996094 187.636719 C 146.996094 187.96875 146.980469 188.304688 147.0625 188.628906 C 147.0625 188.660156 147.0625 188.699219 147.0625 188.730469 C 147.03125 189.433594 147.164062 190.09375 147.25 190.769531 L 147.265625 192.507812 C 147.316406 193.09375 147.320312 194.886719 147.484375 195.511719 C 148.039062 197.65625 149.914062 197.59375 151.707031 197.8125 C 158.152344 198.597656 163.089844 198.714844 169.464844 198.453125 C 170.589844 198.40625 171.71875 198.34375 172.828125 198.269531 C 173.453125 198.21875 174.074219 198.132812 174.695312 198.128906 C 175.433594 198.117188 178.65625 197.695312 179.628906 197.542969 C 180.679688 197.378906 181.617188 197.238281 182.21875 196.164062 C 182.441406 195.765625 182.550781 195.230469 182.554688 194.777344 L 182.675781 189.265625 L 182.808594 182.078125 C 182.886719 181.683594 182.585938 180.691406 182.371094 180.300781 C 181.90625 179.453125 180.734375 178.695312 179.695312 178.652344 L 177.003906 178.605469 L 167.78125 178.496094 C 167.164062 178.480469 166.585938 178.609375 166.011719 178.398438 C 165.789062 178.316406 161.59375 178.230469 161.117188 178.203125 C 160.359375 178.15625 159.601562 178.148438 158.84375 178.0625 C 157.886719 177.953125 156.042969 178.269531 155.714844 178.042969 C 155.316406 177.765625 152.835938 178.09375 151.558594 177.753906 C 151.261719 177.675781 150.929688 177.632812 150.648438 177.476562 C 150.847656 177.363281 151.519531 177.308594 151.792969 177.277344 C 151.417969 177.183594 151.628906 177.167969 151.707031 177.109375 C 151.757812 177.0625 151.792969 177.019531 151.84375 176.972656 C 151.746094 176.882812 150.992188 176.84375 151.488281 176.730469 C 152.535156 176.492188 154.867188 176.316406 156.101562 176.144531 C 158.332031 175.835938 161.210938 175.566406 163.488281 175.363281 C 163.488281 174.921875 163.285156 174.917969 163.285156 174.820312 C 163.285156 174.78125 163.304688 174.734375 163.21875 174.695312 C 163.21875 174.578125 163.132812 174.539062 163.035156 174.417969 L 163.015625 174.191406 C 162.800781 173.84375 162.875 173.429688 162.847656 173.238281 C 162.832031 173.121094 162.832031 173.007812 162.867188 172.890625 L 162.816406 171.199219 C 162.816406 171.085938 162.78125 170.976562 162.765625 170.867188 L 162.78125 169.675781 C 162.847656 169.539062 162.730469 169.402344 162.765625 169.265625 C 162.800781 169.109375 162.699219 168.894531 162.699219 168.773438 C 162.699219 168.339844 162.65625 168.1875 162.746094 167.769531 L 163.035156 165.890625 L 163.183594 163.671875 C 163.109375 163.515625 163.371094 163.601562 163.371094 163.386719 C 161.667969 162.921875 160.589844 162.238281 159.652344 160.691406 C 158.945312 159.53125 158.746094 158.417969 158.894531 157.105469 L 159.214844 155.816406 L 159.871094 154.527344 C 160.261719 153.902344 161.503906 152.800781 162.242188 152.847656 C 163.035156 152.894531 162.867188 152.613281 163.976562 152.953125 C 164.726562 153.183594 164.691406 153.476562 164.917969 153.898438 C 164.984375 154.121094 164.984375 154.121094 165.054688 154.222656 C 164.867188 154.46875 164.976562 154.503906 164.882812 154.519531 C 164.777344 154.539062 164.824219 154.738281 164.699219 154.804688 C 164.347656 154.984375 164.671875 155.242188 164.226562 155.316406 C 164.054688 155.34375 164.046875 155.601562 163.875 155.699219 L 163.640625 156.011719 C 163.699219 156.203125 163.550781 156.078125 163.589844 156.265625 C 163.589844 156.277344 163.589844 156.28125 163.589844 156.28125 C 163.503906 156.3125 163.554688 156.453125 163.589844 156.554688 C 163.617188 156.648438 163.503906 156.5625 163.503906 156.828125 C 163.503906 157.5 163.210938 157.609375 163.589844 158.386719 C 163.851562 158.929688 164.636719 159.15625 164.664062 159.195312 C 164.714844 159.269531 165.101562 159.214844 165.101562 159.214844 C 165.597656 159.011719 166.101562 159.042969 166.484375 158.613281 C 166.609375 158.472656 166.8125 158.308594 166.835938 158.105469 L 166.9375 157.277344 C 166.863281 157.003906 166.933594 156.949219 166.683594 156.539062 C 166.652344 156.484375 166.695312 156.4375 166.617188 156.40625 C 166.488281 156.355469 166.636719 156.289062 166.617188 156.175781 C 166.597656 156.042969 166.164062 155.621094 166.097656 155.453125 C 166.023438 155.269531 165.703125 155.53125 165.726562 155.292969 C 165.738281 155.171875 165.550781 155.105469 165.539062 155.109375 C 165.277344 155.242188 165.113281 154.757812 165.050781 154.632812 L 165.253906 154.445312 C 165.253906 154.433594 165.253906 154.417969 165.238281 154.414062 L 165.289062 154.136719 C 165.300781 154.023438 164.722656 153.867188 166.316406 153.488281 C 167.042969 153.316406 168.121094 153.496094 168.753906 153.90625 C 169.273438 154.246094 169.945312 155.160156 170.136719 155.710938 C 170.210938 155.925781 170.332031 155.957031 170.304688 156.175781 L 170.4375 156.535156 C 170.71875 157.636719 170.6875 158.878906 170.269531 159.941406 C 169.941406 160.785156 169.105469 161.800781 168.386719 162.316406 L 167.980469 162.582031 C 167.804688 162.757812 166.691406 163.324219 166.566406 163.332031 C 166.515625 163.335938 166.464844 163.34375 166.433594 163.351562 C 166.605469 163.742188 166.59375 164.394531 166.652344 164.507812 C 166.726562 164.664062 166.601562 164.636719 166.652344 164.679688 L 166.753906 165.484375 L 166.820312 165.917969 L 166.886719 166.789062 L 166.921875 167.796875 C 166.988281 167.90625 166.953125 168.023438 166.972656 168.136719 L 167.054688 168.464844 L 167.105469 168.972656 C 167.105469 169.085938 167.105469 169.199219 167.105469 169.316406 C 167.125 169.367188 167.15625 169.425781 167.15625 169.476562 C 167.15625 170.128906 167.351562 170.640625 167.394531 171.636719 C 167.417969 172.273438 167.460938 171.933594 167.410156 172.617188 L 167.273438 173.742188 C 167.253906 173.757812 167.277344 174.378906 167.15625 174.605469 C 167.109375 174.699219 167.179688 174.769531 166.9375 175.171875 L 173.03125 175.066406 C 173.585938 175.058594 174.273438 174.984375 174.730469 175.054688 C 174.8125 175.066406 174.898438 175.066406 174.980469 175.054688 C 175.347656 175.011719 179.625 174.921875 180.265625 175 C 183.964844 175.453125 186.710938 178.425781 186.710938 182.097656 L 186.746094 192.769531 C 186.746094 194.242188 186.898438 194.75 186.695312 196.1875 C 186.546875 197.246094 185.992188 198.5625 185.265625 199.390625 C 184.097656 200.71875 182.582031 201.550781 180.855469 201.773438 L 179.019531 202.019531 L 179.359375 204.492188 C 179.492188 205.304688 179.59375 206.132812 179.695312 206.949219 L 180.132812 210.605469 L 182.808594 206.765625 C 184.566406 204.378906 184.941406 204.054688 186.929688 201.949219 L 188.023438 200.808594 C 188.402344 200.324219 188.511719 200.371094 188.613281 200.222656 L 192.769531 195.816406 L 195.261719 193.238281 C 194.351562 191.84375 194.65625 190.660156 194.519531 190.335938 C 194.429688 190.117188 194.574219 190.140625 194.519531 190.070312 L 194.351562 188.140625 L 194.285156 186.789062 L 194.25 185.222656 C 194.183594 185.046875 194.21875 184.867188 194.199219 184.6875 L 194.117188 184.183594 L 194.046875 182.859375 C 194.046875 182.773438 194.015625 182.6875 194.015625 182.601562 C 194.015625 181.652344 193.90625 181.535156 193.878906 180.929688 L 193.777344 179.246094 L 193.761719 177.722656 L 193.898438 175.976562 L 193.914062 175.304688 C 193.953125 174.792969 194.097656 174.03125 194.300781 173.574219 C 194.316406 173.535156 194.351562 173.503906 194.367188 173.46875 L 191.289062 173.332031 C 191.054688 173.394531 191.050781 173.195312 190.953125 173.171875 C 190.664062 173.101562 189.742188 173.078125 189.371094 172.886719 C 189.125 172.757812 188.71875 173.109375 188.644531 172.867188 C 188.585938 172.667969 188.171875 172.777344 187.921875 172.734375 C 187.769531 172.703125 187.488281 172.363281 187.484375 172.300781 L 187.753906 172.101562 C 187.738281 172.089844 187.738281 172.082031 187.738281 172.074219 C 187.632812 172.011719 187.765625 171.957031 187.753906 171.792969 C 187.746094 171.6875 187.347656 171.632812 188.109375 171.28125 C 189.15625 170.796875 190.179688 170.089844 191.355469 169.992188 L 192.785156 169.875 C 193.054688 169.789062 193 169.933594 193.089844 169.878906 L 194.519531 169.761719 L 196.84375 169.640625 C 197.878906 169.625 198.679688 169.648438 199.6875 169.472656 C 199.933594 169.433594 199.835938 169.527344 200.242188 169.449219 L 202.464844 169.347656 L 203.539062 169.226562 L 205.476562 169.128906 C 207.164062 169.070312 207.203125 169.121094 208.722656 169.195312 L 209.277344 169.261719 C 209.898438 169.265625 211.675781 169.355469 212.125 169.753906 C 212.414062 170.011719 212.617188 169.949219 213.097656 170.285156 C 213.117188 170.292969 213.132812 170.300781 213.148438 170.3125 L 213.839844 168.941406 C 213.90625 168.859375 213.992188 168.8125 214.074219 168.753906 C 214.074219 168.691406 214.136719 168.84375 214.410156 168.765625 C 214.410156 168.742188 214.558594 168.859375 214.679688 168.761719 L 214.898438 169.304688 C 214.925781 169.519531 215.0625 169.535156 215.136719 169.886719 C 215.296875 170.660156 215.523438 170.425781 215.574219 171.320312 C 215.59375 171.660156 215.824219 172.066406 215.859375 172.484375 L 216.027344 173.371094 C 216.078125 173.421875 216.09375 173.464844 216.113281 173.511719 C 216.726562 173.519531 216.957031 173.464844 217.644531 173.523438 L 222.1875 173.476562 C 222.488281 173.472656 222.777344 173.4375 223.078125 173.429688 L 225.503906 173.421875 L 225.484375 172.972656 L 225.636719 170.460938 L 223.449219 170.328125 L 220.941406 170.136719 C 220.65625 170.183594 220.566406 169.988281 220.402344 169.96875 C 220.25 169.949219 220.101562 169.941406 219.933594 169.894531 C 219.929688 169.894531 218.605469 169.761719 218.0625 169.609375 C 217.65625 169.492188 217.308594 169.730469 217.039062 169.539062 C 216.679688 169.285156 216.125 169.632812 214.96875 169.050781 L 215.21875 168.917969 C 215.21875 168.917969 215.015625 168.851562 215.085938 168.796875 C 215.050781 168.765625 215.035156 168.730469 215.019531 168.699219 C 214.941406 168.605469 214.277344 168.589844 215.21875 168.320312 L 217.441406 167.566406 C 219.21875 167.050781 219.773438 167.101562 221.648438 166.972656 C 221.9375 166.953125 222.082031 166.871094 222.289062 166.941406 C 222.320312 166.949219 222.355469 166.945312 222.390625 166.9375 C 222.625 166.855469 227.675781 166.585938 228.160156 166.65625 L 228.800781 162.945312 C 229.429688 160.34375 230.414062 157.816406 231.695312 155.46875 C 232.128906 154.679688 233.464844 151.996094 233.628906 151.21875 C 233.78125 150.523438 233.929688 150.539062 233.933594 150.328125 C 233.949219 149.839844 234.167969 149.390625 234.1875 148.90625 C 234.21875 148.695312 234.238281 148.480469 234.269531 148.269531 C 234.566406 144.472656 233.011719 140.5 230.316406 137.832031 C 229.328125 136.851562 228.183594 136.035156 226.914062 135.472656 C 226.101562 135.109375 225.820312 134.96875 224.945312 134.75 L 224.390625 134.628906 C 223.554688 134.339844 222.605469 134.328125 221.734375 134.265625 C 221.125 134.207031 220.519531 134.277344 219.914062 134.308594 L 218.449219 134.570312 C 216.777344 134.992188 215.496094 135.523438 214.042969 136.59375 C 212.460938 137.761719 211.191406 139.171875 210.222656 140.878906 C 209.140625 142.78125 208.574219 145.273438 208.605469 147.472656 C 208.628906 149.238281 208.898438 149.824219 209.328125 151.371094 C 209.617188 152.40625 211.867188 156.417969 212.542969 157.972656 C 213.65625 160.519531 213.238281 159.996094 213.941406 162.15625 C 214.261719 163.140625 214.511719 165.160156 214.5625 166.230469 L 214.445312 167.207031 C 214.273438 167.347656 214.222656 167.808594 214.160156 167.929688 C 213.992188 168.234375 213.992188 168.234375 213.957031 168.546875 C 213.839844 168.34375 213.773438 168.132812 213.585938 168.027344 C 213.488281 167.96875 213.539062 167.625 213.265625 167.402344 C 212.976562 167.164062 213.023438 166.515625 212.308594 165.625 C 212.140625 165.417969 211.777344 164.40625 211.703125 164.15625 C 211.511719 163.523438 210.71875 162.292969 210.371094 161.578125 C 210.242188 161.308594 209.449219 159.761719 209.195312 159.5 C 208.742188 159.039062 208.582031 158.464844 208.351562 158.296875 C 208.320312 158.277344 208.304688 158.253906 208.304688 158.230469 C 208.066406 157.730469 207.679688 157.332031 207.34375 156.894531 L 205.726562 154.050781 C 204.917969 152.5625 204.449219 150.730469 204.164062 148.976562 C 204.039062 148.210938 204.054688 146.597656 204.09375 145.847656 C 204.246094 143.609375 204.851562 141.398438 205.863281 139.386719 L 206.332031 138.511719 C 206.851562 137.640625 206.800781 137.679688 207.425781 136.855469 C 208.109375 135.957031 208.746094 135.128906 209.613281 134.363281 L 210.976562 133.234375 C 212.324219 132.214844 213.734375 131.496094 215.320312 130.925781 C 216.371094 130.542969 216.59375 130.484375 217.710938 130.277344 C 218.324219 130.164062 219.292969 129.957031 219.847656 129.953125 L 221.597656 129.902344 C 222.96875 129.933594 222.753906 129.894531 224.105469 130.097656 C 226.390625 130.445312 228.878906 131.496094 230.753906 132.859375 C 232.4375 134.082031 234.09375 135.785156 235.230469 137.523438 C 235.933594 138.601562 237.097656 141.082031 237.351562 142.347656 C 237.382812 142.535156 237.433594 142.722656 237.484375 142.90625 C 237.871094 144.234375 237.9375 145.617188 237.988281 146.976562 C 237.988281 147.378906 237.9375 147.78125 237.921875 148.1875 C 237.902344 149.097656 237.476562 150.910156 237.132812 151.851562 C 236.625 153.234375 236.363281 153.804688 235.699219 155.132812 C 235.5 155.527344 235.28125 155.910156 235.078125 156.296875 C 234.859375 156.695312 234.730469 156.761719 234.507812 157.292969 C 234.238281 157.921875 233.960938 157.976562 233.78125 158.238281 L 231.980469 161.316406 C 231.058594 162.9375 230.949219 162.960938 230.46875 164.71875 C 230.324219 165.242188 230.230469 164.621094 229.8125 166 L 229.390625 167.449219 C 229.75 167.996094 229.6875 168.480469 229.691406 169.09375 L 229.710938 170.671875 C 231.214844 169.996094 230.949219 170.042969 232.585938 169.914062 L 233.160156 169.875 C 233.429688 169.789062 233.375 169.933594 233.460938 169.878906 L 234.910156 169.765625 L 237.214844 169.640625 L 239.621094 169.550781 L 240.210938 169.464844 L 241.101562 169.425781 C 241.304688 169.417969 241.523438 169.421875 241.726562 169.410156 C 241.808594 169.40625 241.910156 169.367188 242.011719 169.367188 C 243 169.375 243.375 169.246094 243.929688 169.226562 L 245.847656 169.132812 C 247.511719 169.070312 247.585938 169.117188 249.097656 169.195312 L 249.652344 169.261719 C 250.277344 169.265625 252.042969 169.351562 252.496094 169.753906 C 252.730469 169.960938 253.335938 170.0625 254.144531 170.769531 C 254.542969 171.113281 254.511719 171.621094 254.769531 171.890625 Z M 237.636719 233.691406 L 237.757812 234.089844 L 237.621094 234.375 C 237.527344 234.390625 237.554688 234.613281 237.453125 234.644531 C 237.25 234.707031 237.214844 235.019531 237.132812 235.023438 C 236.523438 235.046875 236.695312 235.246094 236.425781 235.238281 C 235.992188 235.226562 235.992188 235.433594 235.886719 235.4375 C 235.742188 235.441406 235.738281 235.546875 235.738281 235.511719 C 235.652344 235.46875 235.570312 235.605469 235.46875 235.683594 C 235.417969 235.730469 235.367188 235.695312 235.316406 235.707031 L 234.945312 235.816406 L 233.902344 235.855469 C 233.851562 235.84375 233.785156 235.875 233.71875 235.875 L 232.167969 235.902344 C 232.050781 235.90625 231.933594 235.941406 231.832031 235.953125 L 230.605469 235.949219 C 230.453125 235.867188 230.316406 235.988281 230.183594 235.960938 C 230.097656 235.941406 230.015625 235.964844 229.929688 235.976562 L 229.222656 236.03125 C 228.796875 236.035156 226.882812 235.671875 226.714844 235.695312 L 224.613281 235.546875 C 224.578125 235.546875 224.546875 235.523438 224.511719 235.519531 C 224.390625 235.503906 224.375 235.636719 224.277344 235.421875 C 224.21875 235.296875 223.601562 235.320312 223.316406 235.082031 C 223.175781 234.964844 222.941406 235.304688 222.914062 235.066406 C 222.898438 234.9375 222.695312 234.933594 222.695312 234.933594 C 222.589844 234.996094 222.4375 234.960938 222.359375 234.777344 C 222.269531 234.578125 222.128906 234.484375 222.390625 234.300781 C 222.375 234.289062 222.375 234.277344 222.375 234.273438 L 222.390625 233.996094 C 222.382812 233.886719 222.15625 233.828125 222.59375 233.480469 C 223.234375 232.964844 223.1875 232.902344 223.972656 232.363281 C 224.363281 232.097656 225.214844 232.128906 225.285156 232.074219 C 225.414062 231.980469 225.421875 232.117188 225.472656 232.078125 L 226.296875 231.964844 C 227.414062 231.796875 227.445312 231.851562 228.617188 231.808594 L 229.359375 231.660156 C 229.472656 231.707031 229.570312 231.636719 229.878906 231.625 L 231.496094 231.425781 C 232.851562 231.28125 233.171875 231.246094 234.492188 231.390625 L 234.8125 231.460938 C 235.160156 231.496094 235.023438 231.398438 235.667969 231.566406 C 236.632812 231.820312 236.273438 231.921875 236.746094 232.226562 L 237.199219 232.691406 C 237.613281 233.175781 237.511719 233.3125 237.636719 233.691406 Z M 214.984375 231.117188 C 214.953125 231.195312 214.96875 231.308594 215.054688 231.488281 C 215.136719 231.679688 214.90625 231.644531 214.886719 231.933594 C 214.863281 232.253906 214.566406 232.410156 214.617188 232.574219 C 214.671875 232.75 214.566406 232.625 214.566406 232.863281 C 214.480469 232.898438 214.53125 233.050781 214.53125 233.164062 C 214.53125 233.230469 214.464844 233.246094 214.449219 233.289062 L 214.296875 233.605469 L 213.691406 234.351562 L 212.628906 235.570312 C 212.578125 235.648438 212.527344 235.75 212.460938 235.832031 L 211.703125 236.667969 C 211.554688 236.707031 211.554688 236.886719 211.453125 236.960938 C 211.382812 237.007812 211.351562 237.078125 211.300781 237.144531 L 210.914062 237.65625 L 209.398438 238.925781 C 208.589844 239.585938 207.429688 239.476562 206.757812 238.683594 L 206.167969 237.929688 L 205.109375 236.789062 L 204.789062 236.421875 C 204.746094 236.367188 204.597656 236.398438 204.6875 236.207031 C 204.726562 236.117188 204.566406 235.953125 204.535156 235.90625 C 204.011719 235.136719 204.523438 235.421875 203.980469 235.191406 C 203.914062 235.164062 204.046875 235.070312 204.03125 234.996094 C 203.984375 234.769531 203.71875 234.894531 203.828125 234.535156 C 203.9375 234.171875 203.898438 234.226562 204.164062 234.199219 L 204.234375 234.101562 C 204.234375 234.085938 204.25 234.082031 204.265625 234.070312 C 204.566406 233.878906 204.246094 233.707031 204.871094 233.730469 C 206.300781 233.777344 206.476562 233.476562 207.582031 234.339844 C 207.6875 234.421875 207.746094 234.355469 207.734375 234.464844 L 207.867188 234.523438 C 207.882812 234.503906 207.882812 234.484375 207.902344 234.460938 C 208.042969 234.214844 208.796875 233.359375 208.910156 233.007812 L 209.921875 231.699219 L 210.964844 230.792969 L 211.25 230.5 C 211.5 230.304688 212.066406 229.917969 212.378906 229.984375 C 212.632812 230.035156 212.742188 229.902344 213.386719 229.972656 C 214.117188 230.054688 213.914062 230.117188 214.414062 230.339844 L 214.765625 230.53125 C 214.828125 230.785156 214.957031 230.78125 214.886719 230.816406 C 214.886719 230.953125 215.035156 231.023438 214.984375 231.117188 Z M 237.636719 221.554688 L 237.757812 221.949219 L 237.621094 222.234375 C 237.53125 222.242188 237.550781 222.476562 237.453125 222.507812 C 237.25 222.574219 237.21875 222.878906 237.132812 222.882812 C 236.53125 222.90625 236.699219 223.105469 236.425781 223.097656 C 236 223.085938 235.988281 223.292969 235.886719 223.296875 C 235.742188 223.304688 235.738281 223.40625 235.738281 223.371094 C 235.652344 223.328125 235.570312 223.46875 235.46875 223.546875 C 235.417969 223.589844 235.367188 223.558594 235.316406 223.566406 L 234.945312 223.679688 L 233.902344 223.71875 L 232.167969 223.765625 C 232.050781 223.769531 231.933594 223.804688 231.832031 223.8125 L 230.605469 223.808594 C 230.453125 223.730469 230.316406 223.851562 230.183594 223.824219 C 230.097656 223.804688 230.015625 223.824219 229.929688 223.835938 L 229.222656 223.890625 L 227.355469 223.632812 L 225.722656 223.488281 L 224.613281 223.410156 C 224.578125 223.40625 224.546875 223.382812 224.511719 223.378906 C 224.386719 223.363281 224.378906 223.5 224.277344 223.28125 C 224.21875 223.160156 223.589844 223.175781 223.316406 222.945312 C 223.175781 222.824219 222.9375 223.164062 222.914062 222.925781 C 222.898438 222.800781 222.695312 222.792969 222.695312 222.792969 C 222.589844 222.855469 222.4375 222.824219 222.359375 222.640625 C 222.261719 222.421875 222.132812 222.355469 222.390625 222.160156 C 222.375 222.148438 222.375 222.140625 222.375 222.136719 L 222.390625 221.855469 C 222.382812 221.75 222.15625 221.695312 222.59375 221.339844 C 223.242188 220.820312 223.195312 220.757812 223.972656 220.226562 C 224.363281 219.957031 225.214844 219.988281 225.285156 219.9375 C 225.414062 219.839844 225.421875 219.976562 225.472656 219.9375 L 226.296875 219.824219 C 227.394531 219.660156 227.472656 219.710938 228.617188 219.671875 L 229.359375 219.523438 L 229.878906 219.484375 L 231.496094 219.285156 L 233.28125 219.144531 L 234.777344 219.316406 C 234.796875 219.324219 234.796875 219.324219 234.8125 219.324219 L 235.671875 219.429688 C 236.640625 219.683594 236.273438 219.785156 236.746094 220.085938 L 237.203125 220.554688 C 237.613281 221.042969 237.511719 221.171875 237.636719 221.554688 Z M 214.984375 218.976562 C 214.953125 219.054688 214.96875 219.167969 215.054688 219.351562 C 215.136719 219.539062 214.90625 219.507812 214.886719 219.792969 C 214.863281 220.117188 214.5625 220.273438 214.617188 220.433594 C 214.671875 220.605469 214.566406 220.488281 214.566406 220.726562 C 214.480469 220.761719 214.53125 220.910156 214.53125 221.023438 L 214.398438 221.199219 C 214.378906 221.300781 214.328125 221.378906 214.296875 221.46875 L 213.691406 222.210938 L 212.628906 223.429688 C 212.578125 223.511719 212.527344 223.613281 212.460938 223.695312 L 211.703125 224.527344 C 211.554688 224.574219 211.554688 224.75 211.453125 224.824219 C 211.382812 224.871094 211.351562 224.941406 211.300781 225.007812 L 210.914062 225.519531 L 209.398438 226.789062 C 208.589844 227.445312 207.429688 227.339844 206.757812 226.546875 L 206.167969 225.792969 L 205.109375 224.652344 L 204.789062 224.285156 C 204.746094 224.230469 204.59375 224.257812 204.6875 224.066406 C 204.730469 223.980469 204.566406 223.8125 204.535156 223.769531 C 204.011719 222.992188 204.527344 223.285156 203.980469 223.054688 C 203.914062 223.027344 204.046875 222.929688 204.03125 222.855469 C 203.988281 222.632812 203.71875 222.753906 203.828125 222.394531 C 203.925781 222.082031 203.886719 222.078125 204.164062 222.0625 L 204.234375 221.964844 C 204.234375 221.949219 204.25 221.941406 204.265625 221.929688 C 204.566406 221.742188 204.246094 221.570312 204.871094 221.589844 C 205.628906 221.617188 205.636719 221.535156 206.554688 221.628906 C 206.859375 221.65625 207.363281 222.019531 207.582031 222.199219 C 207.683594 222.285156 207.746094 222.214844 207.734375 222.328125 L 207.867188 222.382812 C 207.882812 222.363281 207.882812 222.34375 207.902344 222.324219 L 208.609375 221.378906 C 208.726562 221.226562 208.808594 221.054688 208.894531 220.890625 L 209.921875 219.5625 L 210.964844 218.652344 L 211.25 218.359375 C 211.496094 218.167969 212.070312 217.777344 212.378906 217.84375 C 212.613281 217.894531 212.75 217.765625 213.386719 217.835938 C 214.117188 217.914062 213.917969 217.976562 214.414062 218.203125 L 214.765625 218.394531 C 214.828125 218.644531 214.957031 218.636719 214.886719 218.679688 C 214.886719 218.8125 215.035156 218.890625 214.984375 218.976562 Z M 237.636719 209.417969 C 237.65625 209.433594 237.65625 209.460938 237.65625 209.484375 C 237.707031 209.707031 237.707031 209.707031 237.753906 209.8125 L 237.621094 210.097656 C 237.53125 210.101562 237.550781 210.335938 237.453125 210.367188 C 237.246094 210.433594 237.21875 210.738281 237.132812 210.742188 C 236.53125 210.765625 236.699219 210.964844 236.425781 210.957031 C 236.007812 210.945312 235.980469 211.15625 235.886719 211.160156 C 235.742188 211.160156 235.738281 211.265625 235.738281 211.234375 C 235.652344 211.191406 235.566406 211.328125 235.46875 211.40625 C 235.417969 211.453125 235.367188 211.414062 235.316406 211.425781 L 234.945312 211.539062 L 233.902344 211.578125 L 232.167969 211.625 C 232.050781 211.628906 231.933594 211.664062 231.832031 211.671875 L 230.605469 211.671875 C 230.453125 211.589844 230.316406 211.710938 230.183594 211.683594 C 230.097656 211.664062 230.015625 211.683594 229.929688 211.695312 L 229.222656 211.753906 C 228.804688 211.757812 226.90625 211.398438 226.714844 211.417969 L 224.613281 211.269531 C 224.578125 211.269531 224.546875 211.242188 224.511719 211.238281 C 224.394531 211.226562 224.371094 211.355469 224.277344 211.144531 C 224.21875 211.015625 223.59375 211.042969 223.316406 210.804688 C 223.179688 210.6875 222.941406 211.027344 222.914062 210.785156 C 222.898438 210.664062 222.695312 210.652344 222.695312 210.652344 C 222.589844 210.71875 222.4375 210.683594 222.359375 210.5 C 222.261719 210.28125 222.132812 210.214844 222.390625 210.019531 C 222.375 210.011719 222.375 210 222.375 209.996094 L 222.390625 209.714844 C 222.382812 209.613281 222.15625 209.550781 222.59375 209.203125 C 223.234375 208.6875 223.175781 208.636719 223.972656 208.085938 C 224.363281 207.816406 225.210938 207.851562 225.285156 207.792969 C 225.410156 207.699219 225.421875 207.835938 225.472656 207.796875 L 225.976562 207.714844 C 226.742188 207.636719 226.722656 207.582031 227.625 207.558594 L 229.023438 207.472656 C 229.105469 207.460938 229.191406 207.417969 229.273438 207.394531 C 229.4375 207.347656 229.316406 207.453125 229.59375 207.367188 L 230.234375 207.332031 C 230.285156 207.328125 230.335938 207.289062 230.402344 207.289062 C 230.945312 207.289062 230.96875 207.246094 231.480469 207.152344 C 231.480469 207.152344 231.496094 207.148438 231.496094 207.148438 L 233.28125 207.011719 L 234.777344 207.175781 C 234.792969 207.1875 234.792969 207.183594 234.8125 207.183594 C 235.519531 207.183594 235.175781 207.210938 235.667969 207.292969 C 236.449219 207.421875 236.410156 207.734375 236.746094 207.949219 L 237.199219 208.414062 C 237.609375 208.894531 237.511719 209.023438 237.636719 209.417969 Z M 215.054688 207.210938 C 215.132812 207.414062 214.90625 207.363281 214.886719 207.65625 C 214.863281 207.980469 214.5625 208.132812 214.617188 208.296875 C 214.671875 208.46875 214.566406 208.347656 214.566406 208.585938 C 214.480469 208.621094 214.53125 208.773438 214.53125 208.886719 L 214.398438 209.058594 C 214.082031 209.824219 214.273438 209.332031 213.925781 209.84375 C 213.859375 209.9375 213.773438 210.007812 213.691406 210.070312 L 212.628906 211.292969 L 212.160156 211.914062 L 211.703125 212.390625 C 211.554688 212.433594 211.554688 212.609375 211.453125 212.683594 C 211.242188 212.835938 211.34375 213.148438 210.140625 214.023438 L 209.398438 214.648438 C 208.589844 215.308594 207.429688 215.199219 206.757812 214.40625 L 206.167969 213.652344 L 204.71875 212.105469 C 204.59375 212.074219 204.714844 211.902344 204.703125 211.867188 C 204.679688 211.789062 204.285156 211.34375 204.265625 211.085938 C 204.253906 210.902344 203.859375 211.007812 203.996094 210.8125 C 204.078125 210.703125 203.949219 210.574219 203.945312 210.574219 C 203.695312 210.574219 203.8125 209.941406 204.0625 209.929688 C 204.097656 209.929688 204.132812 209.925781 204.164062 209.925781 L 204.234375 209.828125 L 204.382812 209.703125 C 204.449219 209.621094 204.316406 209.433594 204.871094 209.453125 C 206.28125 209.5 206.472656 209.195312 207.582031 210.0625 C 207.691406 210.148438 207.746094 210.078125 207.734375 210.191406 L 207.867188 210.246094 L 208.339844 209.582031 L 208.910156 208.730469 L 210.140625 207.203125 L 210.964844 206.515625 L 211.25 206.222656 C 212.164062 205.503906 212.324219 205.773438 212.765625 205.6875 C 213 205.640625 213.863281 205.710938 214.058594 205.863281 C 214.210938 205.972656 214.3125 206.019531 214.414062 206.0625 L 214.765625 206.253906 C 214.832031 206.511719 214.953125 206.496094 214.886719 206.542969 C 214.886719 206.675781 215.03125 206.746094 214.984375 206.835938 C 214.953125 206.917969 214.96875 207.03125 215.054688 207.210938 Z M 215.054688 207.210938 " fill-opacity="1" fill-rule="evenodd"/></g><g fill="#ffffff" fill-opacity="1"><g transform="translate(106.770759, 315.524975)"><g><path d="M 14.046875 0 L 11.78125 0 L 10.015625 -4.578125 L 3.734375 -4.578125 L 2.09375 0 L -0.015625 0 L 5.75 -15.03125 L 7.890625 -15.03125 Z M 5.96875 -10.578125 L 4.328125 -6.171875 L 9.40625 -6.171875 L 7.5625 -11.125 C 7.332031 -11.71875 7.070312 -12.5 6.78125 -13.46875 C 6.78125 -13.394531 6.695312 -13.035156 6.53125 -12.390625 C 6.363281 -11.753906 6.175781 -11.148438 5.96875 -10.578125 Z M 5.96875 -10.578125 "/></g></g></g><g fill="#ffffff" fill-opacity="1"><g transform="translate(120.777812, 315.524975)"><g><path d="M 3.921875 0 L 1.9375 0 L 1.9375 -15.03125 L 3.921875 -15.03125 Z M 3.921875 0 "/></g></g></g><g fill="#ffffff" fill-opacity="1"><g transform="translate(126.615831, 315.524975)"><g/></g></g><g fill="#ffffff" fill-opacity="1"><g transform="translate(132.453851, 315.524975)"><g><path d="M 3.25 -9.65625 C 4.019531 -10.632812 5.015625 -11.125 6.234375 -11.125 C 7.128906 -11.125 7.925781 -10.894531 8.625 -10.4375 C 9.332031 -9.988281 9.878906 -9.351562 10.265625 -8.53125 C 10.660156 -7.71875 10.859375 -6.769531 10.859375 -5.6875 C 10.859375 -4.445312 10.644531 -3.378906 10.21875 -2.484375 C 9.800781 -1.585938 9.234375 -0.910156 8.515625 -0.453125 C 7.796875 0.00390625 7 0.234375 6.125 0.234375 C 5.425781 0.234375 4.820312 0.0703125 4.3125 -0.25 C 3.800781 -0.570312 3.40625 -0.941406 3.125 -1.359375 L 3.125 0 L 1.40625 0 L 1.40625 -15.03125 L 3.25 -15.03125 Z M 3.109375 -5.4375 C 3.109375 -4.863281 3.128906 -4.4375 3.171875 -4.15625 C 3.210938 -3.875 3.28125 -3.582031 3.375 -3.28125 C 3.644531 -2.53125 4.023438 -2.007812 4.515625 -1.71875 C 5.015625 -1.425781 5.503906 -1.28125 5.984375 -1.28125 C 6.890625 -1.28125 7.613281 -1.65625 8.15625 -2.40625 C 8.695312 -3.15625 8.96875 -4.242188 8.96875 -5.671875 C 8.96875 -6.828125 8.703125 -7.773438 8.171875 -8.515625 C 7.648438 -9.253906 6.941406 -9.625 6.046875 -9.625 C 5.515625 -9.625 5.023438 -9.460938 4.578125 -9.140625 C 4.128906 -8.816406 3.769531 -8.335938 3.5 -7.703125 C 3.238281 -7.078125 3.109375 -6.320312 3.109375 -5.4375 Z M 3.109375 -5.4375 "/></g></g></g><g fill="#ffffff" fill-opacity="1"><g transform="translate(144.129902, 315.524975)"><g><path d="M 5.96875 -11.125 C 6.863281 -11.125 7.585938 -11.035156 8.140625 -10.859375 C 8.691406 -10.691406 9.128906 -10.4375 9.453125 -10.09375 C 9.753906 -9.78125 9.960938 -9.425781 10.078125 -9.03125 C 10.191406 -8.632812 10.25 -8.113281 10.25 -7.46875 L 10.25 -3.09375 C 10.25 -1.675781 10.445312 -0.644531 10.84375 0 L 8.90625 0 C 8.71875 -0.375 8.59375 -0.820312 8.53125 -1.34375 C 7.851562 -0.78125 7.195312 -0.375 6.5625 -0.125 C 5.925781 0.125 5.265625 0.25 4.578125 0.25 C 3.398438 0.25 2.472656 -0.0351562 1.796875 -0.609375 C 1.128906 -1.179688 0.796875 -1.9375 0.796875 -2.875 C 0.796875 -3.363281 0.90625 -3.835938 1.125 -4.296875 C 1.351562 -4.753906 1.664062 -5.109375 2.0625 -5.359375 C 2.476562 -5.640625 2.898438 -5.84375 3.328125 -5.96875 C 3.765625 -6.09375 4.300781 -6.191406 4.9375 -6.265625 C 5.601562 -6.328125 6.269531 -6.414062 6.9375 -6.53125 C 7.601562 -6.65625 8.09375 -6.78125 8.40625 -6.90625 L 8.40625 -7.375 C 8.40625 -8.113281 8.203125 -8.671875 7.796875 -9.046875 C 7.398438 -9.429688 6.71875 -9.625 5.75 -9.625 C 4.84375 -9.625 4.1875 -9.460938 3.78125 -9.140625 C 3.382812 -8.816406 3.097656 -8.28125 2.921875 -7.53125 L 1.109375 -7.765625 C 1.359375 -8.941406 1.882812 -9.796875 2.6875 -10.328125 C 3.5 -10.859375 4.59375 -11.125 5.96875 -11.125 Z M 5.75 -4.828125 C 5.039062 -4.710938 4.492188 -4.601562 4.109375 -4.5 C 3.722656 -4.394531 3.398438 -4.21875 3.140625 -3.96875 C 2.890625 -3.726562 2.765625 -3.378906 2.765625 -2.921875 C 2.765625 -2.367188 2.960938 -1.941406 3.359375 -1.640625 C 3.765625 -1.347656 4.332031 -1.203125 5.0625 -1.203125 C 5.476562 -1.203125 5.929688 -1.285156 6.421875 -1.453125 C 6.910156 -1.628906 7.335938 -1.9375 7.703125 -2.375 C 7.941406 -2.65625 8.117188 -2.96875 8.234375 -3.3125 C 8.347656 -3.664062 8.40625 -4.113281 8.40625 -4.65625 L 8.40625 -5.453125 C 7.84375 -5.234375 6.957031 -5.023438 5.75 -4.828125 Z M 5.75 -4.828125 "/></g></g></g><g fill="#ffffff" fill-opacity="1"><g transform="translate(155.805954, 315.524975)"><g><path d="M 5 -11.125 C 6.226562 -11.125 7.21875 -10.867188 7.96875 -10.359375 C 8.726562 -9.847656 9.164062 -9.085938 9.28125 -8.078125 L 7.46875 -7.828125 C 7.382812 -8.378906 7.15625 -8.816406 6.78125 -9.140625 C 6.40625 -9.460938 5.847656 -9.625 5.109375 -9.625 C 4.359375 -9.625 3.773438 -9.492188 3.359375 -9.234375 C 2.953125 -8.984375 2.75 -8.632812 2.75 -8.1875 C 2.75 -7.882812 2.867188 -7.628906 3.109375 -7.421875 C 3.359375 -7.222656 3.648438 -7.066406 3.984375 -6.953125 C 4.328125 -6.847656 4.835938 -6.710938 5.515625 -6.546875 C 6.398438 -6.335938 7.117188 -6.128906 7.671875 -5.921875 C 8.222656 -5.710938 8.695312 -5.390625 9.09375 -4.953125 C 9.5 -4.523438 9.703125 -3.945312 9.703125 -3.21875 C 9.703125 -2.582031 9.523438 -2 9.171875 -1.46875 C 8.828125 -0.945312 8.328125 -0.53125 7.671875 -0.21875 C 7.023438 0.0820312 6.28125 0.234375 5.4375 0.234375 C 3.976562 0.234375 2.863281 -0.0507812 2.09375 -0.625 C 1.320312 -1.195312 0.84375 -2.070312 0.65625 -3.25 L 2.484375 -3.53125 C 2.578125 -2.789062 2.867188 -2.226562 3.359375 -1.84375 C 3.859375 -1.46875 4.503906 -1.28125 5.296875 -1.28125 C 6.085938 -1.28125 6.703125 -1.441406 7.140625 -1.765625 C 7.585938 -2.097656 7.8125 -2.507812 7.8125 -3 C 7.8125 -3.46875 7.585938 -3.8125 7.140625 -4.03125 C 6.703125 -4.257812 6.03125 -4.476562 5.125 -4.6875 C 4.226562 -4.894531 3.507812 -5.097656 2.96875 -5.296875 C 2.425781 -5.503906 1.957031 -5.820312 1.5625 -6.25 C 1.164062 -6.6875 0.96875 -7.269531 0.96875 -8 C 0.96875 -8.59375 1.125 -9.125 1.4375 -9.59375 C 1.75 -10.070312 2.207031 -10.445312 2.8125 -10.71875 C 3.425781 -10.988281 4.15625 -11.125 5 -11.125 Z M 5 -11.125 "/></g></g></g><g fill="#ffffff" fill-opacity="1"><g transform="translate(166.305999, 315.524975)"><g><path d="M 5.90625 -11.125 C 6.945312 -11.125 7.84375 -10.875 8.59375 -10.375 C 9.34375 -9.882812 9.90625 -9.21875 10.28125 -8.375 C 10.664062 -7.539062 10.859375 -6.601562 10.859375 -5.5625 L 10.859375 -4.984375 L 2.734375 -4.984375 C 2.785156 -3.816406 3.113281 -2.90625 3.71875 -2.25 C 4.320312 -1.601562 5.09375 -1.28125 6.03125 -1.28125 C 6.738281 -1.28125 7.328125 -1.46875 7.796875 -1.84375 C 8.265625 -2.226562 8.628906 -2.78125 8.890625 -3.5 L 10.796875 -3.28125 C 10.503906 -2.1875 9.945312 -1.328125 9.125 -0.703125 C 8.300781 -0.078125 7.296875 0.234375 6.109375 0.234375 C 4.441406 0.234375 3.140625 -0.253906 2.203125 -1.234375 C 1.273438 -2.210938 0.8125 -3.585938 0.8125 -5.359375 C 0.8125 -6.535156 1.019531 -7.554688 1.4375 -8.421875 C 1.863281 -9.285156 2.457031 -9.953125 3.21875 -10.421875 C 3.988281 -10.890625 4.882812 -11.125 5.90625 -11.125 Z M 2.828125 -6.515625 L 8.90625 -6.515625 C 8.863281 -7.546875 8.546875 -8.320312 7.953125 -8.84375 C 7.359375 -9.363281 6.675781 -9.625 5.90625 -9.625 C 5.03125 -9.625 4.316406 -9.328125 3.765625 -8.734375 C 3.210938 -8.148438 2.898438 -7.410156 2.828125 -6.515625 Z M 2.828125 -6.515625 "/></g></g></g><g fill="#ffffff" fill-opacity="1"><g transform="translate(177.98205, 315.524975)"><g><path d="M 10.203125 -15.03125 L 10.203125 0 L 8.484375 0 L 8.484375 -1.390625 C 8.273438 -1.023438 7.921875 -0.660156 7.421875 -0.296875 C 6.921875 0.0546875 6.265625 0.234375 5.453125 0.234375 C 4.578125 0.234375 3.78125 0 3.0625 -0.46875 C 2.351562 -0.9375 1.789062 -1.601562 1.375 -2.46875 C 0.957031 -3.34375 0.75 -4.351562 0.75 -5.5 C 0.75 -6.644531 0.941406 -7.640625 1.328125 -8.484375 C 1.710938 -9.335938 2.257812 -9.988281 2.96875 -10.4375 C 3.675781 -10.894531 4.5 -11.125 5.4375 -11.125 C 6.125 -11.125 6.722656 -10.960938 7.234375 -10.640625 C 7.742188 -10.316406 8.117188 -9.984375 8.359375 -9.640625 L 8.359375 -15.03125 Z M 2.640625 -5.4375 C 2.640625 -4.539062 2.769531 -3.78125 3.03125 -3.15625 C 3.300781 -2.53125 3.664062 -2.0625 4.125 -1.75 C 4.582031 -1.4375 5.082031 -1.28125 5.625 -1.28125 C 6.476562 -1.28125 7.175781 -1.625 7.71875 -2.3125 C 8.257812 -3 8.53125 -3.984375 8.53125 -5.265625 C 8.53125 -6.585938 8.269531 -7.644531 7.75 -8.4375 C 7.226562 -9.226562 6.492188 -9.625 5.546875 -9.625 C 4.628906 -9.625 3.914062 -9.25 3.40625 -8.5 C 2.894531 -7.757812 2.640625 -6.738281 2.640625 -5.4375 Z M 2.640625 -5.4375 "/></g></g></g><g fill="#ffffff" fill-opacity="1"><g transform="translate(189.658101, 315.524975)"><g/></g></g><g fill="#ffffff" fill-opacity="1"><g transform="translate(195.496121, 315.524975)"><g><path d="M 3.5625 -1.765625 L 10.984375 -1.765625 L 10.984375 0 L 1.578125 0 L 1.578125 -15.03125 L 3.5625 -15.03125 Z M 3.5625 -1.765625 "/></g></g></g><g fill="#ffffff" fill-opacity="1"><g transform="translate(207.172172, 315.524975)"><g><path d="M 5.90625 -11.125 C 6.945312 -11.125 7.84375 -10.875 8.59375 -10.375 C 9.34375 -9.882812 9.90625 -9.21875 10.28125 -8.375 C 10.664062 -7.539062 10.859375 -6.601562 10.859375 -5.5625 L 10.859375 -4.984375 L 2.734375 -4.984375 C 2.785156 -3.816406 3.113281 -2.90625 3.71875 -2.25 C 4.320312 -1.601562 5.09375 -1.28125 6.03125 -1.28125 C 6.738281 -1.28125 7.328125 -1.46875 7.796875 -1.84375 C 8.265625 -2.226562 8.628906 -2.78125 8.890625 -3.5 L 10.796875 -3.28125 C 10.503906 -2.1875 9.945312 -1.328125 9.125 -0.703125 C 8.300781 -0.078125 7.296875 0.234375 6.109375 0.234375 C 4.441406 0.234375 3.140625 -0.253906 2.203125 -1.234375 C 1.273438 -2.210938 0.8125 -3.585938 0.8125 -5.359375 C 0.8125 -6.535156 1.019531 -7.554688 1.4375 -8.421875 C 1.863281 -9.285156 2.457031 -9.953125 3.21875 -10.421875 C 3.988281 -10.890625 4.882812 -11.125 5.90625 -11.125 Z M 2.828125 -6.515625 L 8.90625 -6.515625 C 8.863281 -7.546875 8.546875 -8.320312 7.953125 -8.84375 C 7.359375 -9.363281 6.675781 -9.625 5.90625 -9.625 C 5.03125 -9.625 4.316406 -9.328125 3.765625 -8.734375 C 3.210938 -8.148438 2.898438 -7.410156 2.828125 -6.515625 Z M 2.828125 -6.515625 "/></g></g></g><g fill="#ffffff" fill-opacity="1"><g transform="translate(218.848223, 315.524975)"><g><path d="M 5.96875 -11.125 C 6.863281 -11.125 7.585938 -11.035156 8.140625 -10.859375 C 8.691406 -10.691406 9.128906 -10.4375 9.453125 -10.09375 C 9.753906 -9.78125 9.960938 -9.425781 10.078125 -9.03125 C 10.191406 -8.632812 10.25 -8.113281 10.25 -7.46875 L 10.25 -3.09375 C 10.25 -1.675781 10.445312 -0.644531 10.84375 0 L 8.90625 0 C 8.71875 -0.375 8.59375 -0.820312 8.53125 -1.34375 C 7.851562 -0.78125 7.195312 -0.375 6.5625 -0.125 C 5.925781 0.125 5.265625 0.25 4.578125 0.25 C 3.398438 0.25 2.472656 -0.0351562 1.796875 -0.609375 C 1.128906 -1.179688 0.796875 -1.9375 0.796875 -2.875 C 0.796875 -3.363281 0.90625 -3.835938 1.125 -4.296875 C 1.351562 -4.753906 1.664062 -5.109375 2.0625 -5.359375 C 2.476562 -5.640625 2.898438 -5.84375 3.328125 -5.96875 C 3.765625 -6.09375 4.300781 -6.191406 4.9375 -6.265625 C 5.601562 -6.328125 6.269531 -6.414062 6.9375 -6.53125 C 7.601562 -6.65625 8.09375 -6.78125 8.40625 -6.90625 L 8.40625 -7.375 C 8.40625 -8.113281 8.203125 -8.671875 7.796875 -9.046875 C 7.398438 -9.429688 6.71875 -9.625 5.75 -9.625 C 4.84375 -9.625 4.1875 -9.460938 3.78125 -9.140625 C 3.382812 -8.816406 3.097656 -8.28125 2.921875 -7.53125 L 1.109375 -7.765625 C 1.359375 -8.941406 1.882812 -9.796875 2.6875 -10.328125 C 3.5 -10.859375 4.59375 -11.125 5.96875 -11.125 Z M 5.75 -4.828125 C 5.039062 -4.710938 4.492188 -4.601562 4.109375 -4.5 C 3.722656 -4.394531 3.398438 -4.21875 3.140625 -3.96875 C 2.890625 -3.726562 2.765625 -3.378906 2.765625 -2.921875 C 2.765625 -2.367188 2.960938 -1.941406 3.359375 -1.640625 C 3.765625 -1.347656 4.332031 -1.203125 5.0625 -1.203125 C 5.476562 -1.203125 5.929688 -1.285156 6.421875 -1.453125 C 6.910156 -1.628906 7.335938 -1.9375 7.703125 -2.375 C 7.941406 -2.65625 8.117188 -2.96875 8.234375 -3.3125 C 8.347656 -3.664062 8.40625 -4.113281 8.40625 -4.65625 L 8.40625 -5.453125 C 7.84375 -5.234375 6.957031 -5.023438 5.75 -4.828125 Z M 5.75 -4.828125 "/></g></g></g><g fill="#ffffff" fill-opacity="1"><g transform="translate(230.524274, 315.524975)"><g><path d="M 5.390625 -11.125 C 6.023438 -11.125 6.648438 -10.929688 7.265625 -10.546875 L 6.640625 -8.84375 C 6.191406 -9.101562 5.722656 -9.234375 5.234375 -9.234375 C 4.523438 -9.234375 4.003906 -8.914062 3.671875 -8.28125 C 3.347656 -7.644531 3.1875 -6.820312 3.1875 -5.8125 L 3.1875 0 L 1.34375 0 L 1.34375 -10.875 L 3 -10.875 L 3 -9.234375 C 3.351562 -9.867188 3.703125 -10.34375 4.046875 -10.65625 C 4.390625 -10.96875 4.835938 -11.125 5.390625 -11.125 Z M 5.390625 -11.125 "/></g></g></g><g fill="#ffffff" fill-opacity="1"><g transform="translate(237.517301, 315.524975)"><g><path d="M 6.546875 -11.125 C 7.335938 -11.125 8.015625 -10.96875 8.578125 -10.65625 C 9.140625 -10.351562 9.554688 -9.960938 9.828125 -9.484375 C 9.992188 -9.171875 10.113281 -8.828125 10.1875 -8.453125 C 10.257812 -8.078125 10.296875 -7.613281 10.296875 -7.0625 L 10.296875 0 L 8.4375 0 L 8.4375 -6.71875 C 8.4375 -8.59375 7.675781 -9.53125 6.15625 -9.53125 C 5.582031 -9.53125 5.050781 -9.390625 4.5625 -9.109375 C 4.082031 -8.828125 3.738281 -8.421875 3.53125 -7.890625 C 3.363281 -7.441406 3.28125 -6.84375 3.28125 -6.09375 L 3.28125 0 L 1.421875 0 L 1.421875 -10.875 L 3.09375 -10.875 L 3.09375 -9.34375 C 3.914062 -10.53125 5.066406 -11.125 6.546875 -11.125 Z M 6.546875 -11.125 "/></g></g></g><g fill="#ffffff" fill-opacity="1"><g transform="translate(249.193352, 315.524975)"><g><path d="M 3.25 -12.9375 L 1.40625 -12.9375 L 1.40625 -15.03125 L 3.25 -15.03125 Z M 3.25 0 L 1.40625 0 L 1.40625 -10.875 L 3.25 -10.875 Z M 3.25 0 "/></g></g></g><g fill="#ffffff" fill-opacity="1"><g transform="translate(253.855365, 315.524975)"><g><path d="M 6.546875 -11.125 C 7.335938 -11.125 8.015625 -10.96875 8.578125 -10.65625 C 9.140625 -10.351562 9.554688 -9.960938 9.828125 -9.484375 C 9.992188 -9.171875 10.113281 -8.828125 10.1875 -8.453125 C 10.257812 -8.078125 10.296875 -7.613281 10.296875 -7.0625 L 10.296875 0 L 8.4375 0 L 8.4375 -6.71875 C 8.4375 -8.59375 7.675781 -9.53125 6.15625 -9.53125 C 5.582031 -9.53125 5.050781 -9.390625 4.5625 -9.109375 C 4.082031 -8.828125 3.738281 -8.421875 3.53125 -7.890625 C 3.363281 -7.441406 3.28125 -6.84375 3.28125 -6.09375 L 3.28125 0 L 1.421875 0 L 1.421875 -10.875 L 3.09375 -10.875 L 3.09375 -9.34375 C 3.914062 -10.53125 5.066406 -11.125 6.546875 -11.125 Z M 6.546875 -11.125 "/></g></g></g><g fill="#ffffff" fill-opacity="1"><g transform="translate(265.531417, 315.524975)"><g><path d="M 5.453125 -11.125 C 6.710938 -11.125 7.765625 -10.609375 8.609375 -9.578125 L 8.609375 -10.875 L 10.3125 -10.875 L 10.3125 -1.296875 C 10.3125 0.296875 10.109375 1.476562 9.703125 2.25 C 9.347656 2.90625 8.816406 3.425781 8.109375 3.8125 C 7.410156 4.207031 6.503906 4.40625 5.390625 4.40625 C 4.472656 4.40625 3.6875 4.257812 3.03125 3.96875 C 2.382812 3.675781 1.894531 3.285156 1.5625 2.796875 C 1.238281 2.316406 1.078125 1.789062 1.078125 1.21875 L 1.09375 0.90625 L 2.875 1.171875 L 2.875 1.21875 C 2.976562 1.789062 3.234375 2.210938 3.640625 2.484375 C 4.054688 2.753906 4.671875 2.890625 5.484375 2.890625 C 6.023438 2.890625 6.5 2.800781 6.90625 2.625 C 7.320312 2.445312 7.648438 2.195312 7.890625 1.875 C 8.109375 1.570312 8.253906 1.222656 8.328125 0.828125 C 8.398438 0.429688 8.4375 -0.0507812 8.4375 -0.625 L 8.4375 -1.421875 C 7.613281 -0.472656 6.617188 0 5.453125 0 C 4.515625 0 3.6875 -0.234375 2.96875 -0.703125 C 2.257812 -1.171875 1.707031 -1.820312 1.3125 -2.65625 C 0.914062 -3.5 0.71875 -4.453125 0.71875 -5.515625 C 0.71875 -6.640625 0.910156 -7.625 1.296875 -8.46875 C 1.691406 -9.320312 2.25 -9.976562 2.96875 -10.4375 C 3.6875 -10.894531 4.515625 -11.125 5.453125 -11.125 Z M 2.609375 -5.65625 C 2.609375 -4.3125 2.878906 -3.285156 3.421875 -2.578125 C 3.960938 -1.867188 4.707031 -1.515625 5.65625 -1.515625 C 6.039062 -1.515625 6.488281 -1.640625 7 -1.890625 C 7.507812 -2.148438 7.921875 -2.632812 8.234375 -3.34375 C 8.472656 -3.894531 8.59375 -4.617188 8.59375 -5.515625 C 8.59375 -6.816406 8.3125 -7.828125 7.75 -8.546875 C 7.1875 -9.265625 6.453125 -9.625 5.546875 -9.625 C 4.691406 -9.625 3.988281 -9.269531 3.4375 -8.5625 C 2.882812 -7.851562 2.609375 -6.882812 2.609375 -5.65625 Z M 2.609375 -5.65625 "/></g></g></g><g fill="#ffffff" fill-opacity="1"><g transform="translate(145.887944, 337.274973)"><g><path d="M 11.828125 -13.265625 L 3.671875 -13.265625 L 3.671875 -8.609375 L 10.734375 -8.609375 L 10.734375 -6.84375 L 3.671875 -6.84375 L 3.671875 0 L 1.6875 0 L 1.6875 -15.03125 L 11.828125 -15.03125 Z M 11.828125 -13.265625 "/></g></g></g><g fill="#ffffff" fill-opacity="1"><g transform="translate(158.719001, 337.274973)"><g><path d="M 5.90625 -11.125 C 6.945312 -11.125 7.84375 -10.875 8.59375 -10.375 C 9.34375 -9.882812 9.90625 -9.21875 10.28125 -8.375 C 10.664062 -7.539062 10.859375 -6.601562 10.859375 -5.5625 L 10.859375 -4.984375 L 2.734375 -4.984375 C 2.785156 -3.816406 3.113281 -2.90625 3.71875 -2.25 C 4.320312 -1.601562 5.09375 -1.28125 6.03125 -1.28125 C 6.738281 -1.28125 7.328125 -1.46875 7.796875 -1.84375 C 8.265625 -2.226562 8.628906 -2.78125 8.890625 -3.5 L 10.796875 -3.28125 C 10.503906 -2.1875 9.945312 -1.328125 9.125 -0.703125 C 8.300781 -0.078125 7.296875 0.234375 6.109375 0.234375 C 4.441406 0.234375 3.140625 -0.253906 2.203125 -1.234375 C 1.273438 -2.210938 0.8125 -3.585938 0.8125 -5.359375 C 0.8125 -6.535156 1.019531 -7.554688 1.4375 -8.421875 C 1.863281 -9.285156 2.457031 -9.953125 3.21875 -10.421875 C 3.988281 -10.890625 4.882812 -11.125 5.90625 -11.125 Z M 2.828125 -6.515625 L 8.90625 -6.515625 C 8.863281 -7.546875 8.546875 -8.320312 7.953125 -8.84375 C 7.359375 -9.363281 6.675781 -9.625 5.90625 -9.625 C 5.03125 -9.625 4.316406 -9.328125 3.765625 -8.734375 C 3.210938 -8.148438 2.898438 -7.410156 2.828125 -6.515625 Z M 2.828125 -6.515625 "/></g></g></g><g fill="#ffffff" fill-opacity="1"><g transform="translate(170.395052, 337.274973)"><g><path d="M 5.90625 -11.125 C 6.945312 -11.125 7.84375 -10.875 8.59375 -10.375 C 9.34375 -9.882812 9.90625 -9.21875 10.28125 -8.375 C 10.664062 -7.539062 10.859375 -6.601562 10.859375 -5.5625 L 10.859375 -4.984375 L 2.734375 -4.984375 C 2.785156 -3.816406 3.113281 -2.90625 3.71875 -2.25 C 4.320312 -1.601562 5.09375 -1.28125 6.03125 -1.28125 C 6.738281 -1.28125 7.328125 -1.46875 7.796875 -1.84375 C 8.265625 -2.226562 8.628906 -2.78125 8.890625 -3.5 L 10.796875 -3.28125 C 10.503906 -2.1875 9.945312 -1.328125 9.125 -0.703125 C 8.300781 -0.078125 7.296875 0.234375 6.109375 0.234375 C 4.441406 0.234375 3.140625 -0.253906 2.203125 -1.234375 C 1.273438 -2.210938 0.8125 -3.585938 0.8125 -5.359375 C 0.8125 -6.535156 1.019531 -7.554688 1.4375 -8.421875 C 1.863281 -9.285156 2.457031 -9.953125 3.21875 -10.421875 C 3.988281 -10.890625 4.882812 -11.125 5.90625 -11.125 Z M 2.828125 -6.515625 L 8.90625 -6.515625 C 8.863281 -7.546875 8.546875 -8.320312 7.953125 -8.84375 C 7.359375 -9.363281 6.675781 -9.625 5.90625 -9.625 C 5.03125 -9.625 4.316406 -9.328125 3.765625 -8.734375 C 3.210938 -8.148438 2.898438 -7.410156 2.828125 -6.515625 Z M 2.828125 -6.515625 "/></g></g></g><g fill="#ffffff" fill-opacity="1"><g transform="translate(182.071104, 337.274973)"><g><path d="M 10.203125 -15.03125 L 10.203125 0 L 8.484375 0 L 8.484375 -1.390625 C 8.273438 -1.023438 7.921875 -0.660156 7.421875 -0.296875 C 6.921875 0.0546875 6.265625 0.234375 5.453125 0.234375 C 4.578125 0.234375 3.78125 0 3.0625 -0.46875 C 2.351562 -0.9375 1.789062 -1.601562 1.375 -2.46875 C 0.957031 -3.34375 0.75 -4.351562 0.75 -5.5 C 0.75 -6.644531 0.941406 -7.640625 1.328125 -8.484375 C 1.710938 -9.335938 2.257812 -9.988281 2.96875 -10.4375 C 3.675781 -10.894531 4.5 -11.125 5.4375 -11.125 C 6.125 -11.125 6.722656 -10.960938 7.234375 -10.640625 C 7.742188 -10.316406 8.117188 -9.984375 8.359375 -9.640625 L 8.359375 -15.03125 Z M 2.640625 -5.4375 C 2.640625 -4.539062 2.769531 -3.78125 3.03125 -3.15625 C 3.300781 -2.53125 3.664062 -2.0625 4.125 -1.75 C 4.582031 -1.4375 5.082031 -1.28125 5.625 -1.28125 C 6.476562 -1.28125 7.175781 -1.625 7.71875 -2.3125 C 8.257812 -3 8.53125 -3.984375 8.53125 -5.265625 C 8.53125 -6.585938 8.269531 -7.644531 7.75 -8.4375 C 7.226562 -9.226562 6.492188 -9.625 5.546875 -9.625 C 4.628906 -9.625 3.914062 -9.25 3.40625 -8.5 C 2.894531 -7.757812 2.640625 -6.738281 2.640625 -5.4375 Z M 2.640625 -5.4375 "/></g></g></g><g fill="#ffffff" fill-opacity="1"><g transform="translate(193.747155, 337.274973)"><g><path d="M 3.25 -9.65625 C 4.019531 -10.632812 5.015625 -11.125 6.234375 -11.125 C 7.128906 -11.125 7.925781 -10.894531 8.625 -10.4375 C 9.332031 -9.988281 9.878906 -9.351562 10.265625 -8.53125 C 10.660156 -7.71875 10.859375 -6.769531 10.859375 -5.6875 C 10.859375 -4.445312 10.644531 -3.378906 10.21875 -2.484375 C 9.800781 -1.585938 9.234375 -0.910156 8.515625 -0.453125 C 7.796875 0.00390625 7 0.234375 6.125 0.234375 C 5.425781 0.234375 4.820312 0.0703125 4.3125 -0.25 C 3.800781 -0.570312 3.40625 -0.941406 3.125 -1.359375 L 3.125 0 L 1.40625 0 L 1.40625 -15.03125 L 3.25 -15.03125 Z M 3.109375 -5.4375 C 3.109375 -4.863281 3.128906 -4.4375 3.171875 -4.15625 C 3.210938 -3.875 3.28125 -3.582031 3.375 -3.28125 C 3.644531 -2.53125 4.023438 -2.007812 4.515625 -1.71875 C 5.015625 -1.425781 5.503906 -1.28125 5.984375 -1.28125 C 6.890625 -1.28125 7.613281 -1.65625 8.15625 -2.40625 C 8.695312 -3.15625 8.96875 -4.242188 8.96875 -5.671875 C 8.96875 -6.828125 8.703125 -7.773438 8.171875 -8.515625 C 7.648438 -9.253906 6.941406 -9.625 6.046875 -9.625 C 5.515625 -9.625 5.023438 -9.460938 4.578125 -9.140625 C 4.128906 -8.816406 3.769531 -8.335938 3.5 -7.703125 C 3.238281 -7.078125 3.109375 -6.320312 3.109375 -5.4375 Z M 3.109375 -5.4375 "/></g></g></g><g fill="#ffffff" fill-opacity="1"><g transform="translate(205.423206, 337.274973)"><g><path d="M 5.96875 -11.125 C 6.863281 -11.125 7.585938 -11.035156 8.140625 -10.859375 C 8.691406 -10.691406 9.128906 -10.4375 9.453125 -10.09375 C 9.753906 -9.78125 9.960938 -9.425781 10.078125 -9.03125 C 10.191406 -8.632812 10.25 -8.113281 10.25 -7.46875 L 10.25 -3.09375 C 10.25 -1.675781 10.445312 -0.644531 10.84375 0 L 8.90625 0 C 8.71875 -0.375 8.59375 -0.820312 8.53125 -1.34375 C 7.851562 -0.78125 7.195312 -0.375 6.5625 -0.125 C 5.925781 0.125 5.265625 0.25 4.578125 0.25 C 3.398438 0.25 2.472656 -0.0351562 1.796875 -0.609375 C 1.128906 -1.179688 0.796875 -1.9375 0.796875 -2.875 C 0.796875 -3.363281 0.90625 -3.835938 1.125 -4.296875 C 1.351562 -4.753906 1.664062 -5.109375 2.0625 -5.359375 C 2.476562 -5.640625 2.898438 -5.84375 3.328125 -5.96875 C 3.765625 -6.09375 4.300781 -6.191406 4.9375 -6.265625 C 5.601562 -6.328125 6.269531 -6.414062 6.9375 -6.53125 C 7.601562 -6.65625 8.09375 -6.78125 8.40625 -6.90625 L 8.40625 -7.375 C 8.40625 -8.113281 8.203125 -8.671875 7.796875 -9.046875 C 7.398438 -9.429688 6.71875 -9.625 5.75 -9.625 C 4.84375 -9.625 4.1875 -9.460938 3.78125 -9.140625 C 3.382812 -8.816406 3.097656 -8.28125 2.921875 -7.53125 L 1.109375 -7.765625 C 1.359375 -8.941406 1.882812 -9.796875 2.6875 -10.328125 C 3.5 -10.859375 4.59375 -11.125 5.96875 -11.125 Z M 5.75 -4.828125 C 5.039062 -4.710938 4.492188 -4.601562 4.109375 -4.5 C 3.722656 -4.394531 3.398438 -4.21875 3.140625 -3.96875 C 2.890625 -3.726562 2.765625 -3.378906 2.765625 -2.921875 C 2.765625 -2.367188 2.960938 -1.941406 3.359375 -1.640625 C 3.765625 -1.347656 4.332031 -1.203125 5.0625 -1.203125 C 5.476562 -1.203125 5.929688 -1.285156 6.421875 -1.453125 C 6.910156 -1.628906 7.335938 -1.9375 7.703125 -2.375 C 7.941406 -2.65625 8.117188 -2.96875 8.234375 -3.3125 C 8.347656 -3.664062 8.40625 -4.113281 8.40625 -4.65625 L 8.40625 -5.453125 C 7.84375 -5.234375 6.957031 -5.023438 5.75 -4.828125 Z M 5.75 -4.828125 "/></g></g></g><g fill="#ffffff" fill-opacity="1"><g transform="translate(217.099257, 337.274973)"><g><path d="M 5.96875 -11.125 C 7.039062 -11.125 7.945312 -10.828125 8.6875 -10.234375 C 9.4375 -9.640625 9.914062 -8.789062 10.125 -7.6875 L 8.34375 -7.40625 C 8.1875 -8.070312 7.90625 -8.609375 7.5 -9.015625 C 7.09375 -9.421875 6.546875 -9.625 5.859375 -9.625 C 4.878906 -9.625 4.109375 -9.269531 3.546875 -8.5625 C 2.984375 -7.863281 2.703125 -6.84375 2.703125 -5.5 C 2.703125 -4.125 2.960938 -3.078125 3.484375 -2.359375 C 4.015625 -1.640625 4.769531 -1.28125 5.75 -1.28125 C 6.550781 -1.28125 7.175781 -1.519531 7.625 -2 C 8.070312 -2.488281 8.359375 -3.148438 8.484375 -3.984375 L 10.3125 -3.765625 C 10.113281 -2.503906 9.601562 -1.519531 8.78125 -0.8125 C 7.96875 -0.113281 6.957031 0.234375 5.75 0.234375 C 4.195312 0.234375 2.984375 -0.269531 2.109375 -1.28125 C 1.242188 -2.300781 0.8125 -3.738281 0.8125 -5.59375 C 0.8125 -7.320312 1.269531 -8.675781 2.1875 -9.65625 C 3.101562 -10.632812 4.363281 -11.125 5.96875 -11.125 Z M 5.96875 -11.125 "/></g></g></g><g fill="#ffffff" fill-opacity="1"><g transform="translate(227.599302, 337.274973)"><g><path d="M 3.234375 -6.46875 L 7.609375 -10.875 L 10 -10.875 L 5.8125 -6.84375 L 10.421875 0 L 8.125 0 L 4.53125 -5.5625 L 3.234375 -4.328125 L 3.234375 0 L 1.390625 0 L 1.390625 -15.03125 L 3.234375 -15.03125 Z M 3.234375 -6.46875 "/></g></g></g></svg>