<svg xmlns="http://www.w3.org/2000/svg" xmlns:xlink="http://www.w3.org/1999/xlink" width="500" zoomAndPan="magnify" viewBox="0 0 375 374.999991" height="500" preserveAspectRatio="xMidYMid meet" version="1.0"><defs><g/><clipPath id="82c3d2a8ae"><path d="M 27.140625 200.476562 L 94.652344 200.476562 L 94.652344 228.261719 L 27.140625 228.261719 Z M 27.140625 200.476562 " clip-rule="nonzero"/></clipPath><clipPath id="5fd76ced2a"><path d="M 87 156 L 94.652344 156 L 94.652344 166 L 87 166 Z M 87 156 " clip-rule="nonzero"/></clipPath></defs><path fill="#f79320" d="M 65.472656 192.671875 C 74.25 183.894531 80.867188 174.386719 84.808594 165.613281 C 86.566406 161.703125 87.789062 157.9375 88.433594 154.449219 C 89.722656 147.476562 88.695312 141.613281 84.984375 137.898438 C 79.351562 132.269531 68.777344 132.816406 56.890625 138.246094 C 59.097656 138.289062 61.304688 138.492188 63.472656 138.847656 C 64.492188 139.015625 65.515625 139.21875 66.519531 139.457031 C 72.6875 137.398438 77.65625 137.507812 80.40625 140.261719 C 81.9375 141.792969 82.652344 144.011719 82.625 146.746094 C 82.621094 147.082031 82.605469 147.425781 82.582031 147.777344 L 82.574219 147.878906 C 82.570312 147.945312 82.566406 148.015625 82.558594 148.082031 C 82.546875 148.183594 82.539062 148.285156 82.527344 148.386719 C 82.503906 148.59375 82.480469 148.804688 82.453125 149.015625 C 82.394531 149.417969 82.328125 149.832031 82.246094 150.257812 C 81.421875 154.53125 79.269531 159.632812 76.003906 165.113281 C 75.554688 165.863281 75.085938 166.621094 74.597656 167.382812 C 74.519531 167.503906 74.441406 167.625 74.363281 167.75 C 73.957031 168.375 73.539062 169.007812 73.105469 169.640625 C 69.378906 175.105469 64.65625 180.804688 59.128906 186.328125 C 53.175781 192.289062 47.007812 197.3125 41.15625 201.167969 C 40.628906 201.515625 40.105469 201.851562 39.585938 202.175781 L 39.191406 202.421875 C 38.964844 202.566406 38.734375 202.707031 38.507812 202.84375 C 38.28125 202.980469 38.054688 203.117188 37.828125 203.25 C 37.601562 203.386719 37.375 203.519531 37.148438 203.648438 C 36.726562 203.894531 36.304688 204.136719 35.886719 204.367188 C 35.832031 204.394531 35.78125 204.421875 35.730469 204.453125 C 35.535156 204.5625 35.335938 204.671875 35.140625 204.773438 C 29.855469 207.625 25.011719 209.351562 21.058594 209.738281 C 20.730469 209.769531 20.414062 209.792969 20.101562 209.808594 C 19.878906 209.816406 19.644531 209.824219 19.402344 209.824219 C 19.300781 209.824219 19.203125 209.824219 19.109375 209.820312 C 19.046875 209.820312 18.984375 209.816406 18.921875 209.816406 C 18.878906 209.8125 18.835938 209.8125 18.792969 209.808594 C 18.691406 209.804688 18.585938 209.800781 18.480469 209.792969 L 18.425781 209.789062 C 18.175781 209.769531 17.929688 209.746094 17.6875 209.714844 C 15.796875 209.464844 14.230469 208.773438 13.058594 207.605469 C 10.679688 205.226562 10.277344 201.1875 11.546875 196.144531 C 11.257812 195.066406 11.007812 193.96875 10.796875 192.875 C 10.390625 190.761719 10.136719 188.601562 10.035156 186.425781 C 5.570312 197.351562 5.4375 206.921875 10.699219 212.183594 C 14.074219 215.558594 19.234375 216.714844 25.382812 215.929688 C 31.972656 215.082031 39.703125 212.011719 47.609375 207.050781 C 53.601562 203.292969 59.699219 198.449219 65.472656 192.671875 " fill-opacity="1" fill-rule="nonzero"/><g clip-path="url(#82c3d2a8ae)"><path fill="#ffffff" d="M 55.953125 208.519531 C 53.902344 208.519531 51.914062 208.265625 50.015625 207.789062 C 49.554688 208.089844 49.09375 208.386719 48.628906 208.675781 C 41.109375 213.394531 33.742188 216.457031 27.210938 217.589844 C 34.921875 224.238281 44.96875 228.261719 55.953125 228.261719 C 72.820312 228.261719 87.472656 218.78125 94.875 204.855469 L 73.925781 200.574219 C 69.484375 205.457031 63.078125 208.519531 55.953125 208.519531 " fill-opacity="1" fill-rule="nonzero"/></g><g clip-path="url(#5fd76ced2a)"><path fill="#ffffff" d="M 94.875 163.5625 C 93.496094 160.96875 91.871094 158.53125 90.019531 156.28125 C 89.382812 159.109375 88.410156 162.082031 87.109375 165.144531 L 94.875 163.5625 " fill-opacity="1" fill-rule="nonzero"/></g><path fill="#ffffff" d="M 13.53125 196.128906 C 14.710938 200.335938 16.503906 204.292969 18.800781 207.886719 C 18.996094 207.898438 19.199219 207.902344 19.402344 207.902344 C 19.601562 207.902344 19.808594 207.898438 20.015625 207.890625 C 24.699219 207.683594 31.132812 205.167969 38.179688 200.792969 C 34.121094 196.449219 31.640625 190.617188 31.640625 184.207031 C 31.640625 170.78125 42.527344 159.894531 55.953125 159.894531 C 62.484375 159.894531 68.414062 162.46875 72.78125 166.664062 C 77.136719 159.925781 79.894531 153.570312 80.550781 148.753906 C 80.597656 148.429688 80.632812 148.085938 80.660156 147.734375 C 76.445312 144.867188 71.707031 142.71875 66.617188 141.453125 C 65.484375 141.171875 64.328125 140.933594 63.160156 140.742188 C 60.816406 140.355469 58.40625 140.15625 55.953125 140.15625 C 54.898438 140.15625 53.859375 140.191406 52.824219 140.265625 L 52.820312 140.265625 C 52.6875 140.273438 52.550781 140.285156 52.414062 140.292969 C 30.535156 142.03125 13.152344 159.761719 11.96875 181.796875 C 11.960938 181.925781 11.953125 182.058594 11.949219 182.191406 C 11.914062 182.859375 11.902344 183.53125 11.902344 184.207031 C 11.902344 187.046875 12.167969 189.824219 12.679688 192.515625 C 12.914062 193.738281 13.199219 194.945312 13.53125 196.128906 " fill-opacity="1" fill-rule="nonzero"/><g fill="#ffffff" fill-opacity="1"><g transform="translate(85.495115, 197.694553)"><g><path d="M 32.125 -14.109375 C 32.125 -14.035156 32.070312 -13.210938 31.96875 -11.640625 L 11.390625 -11.640625 C 11.804688 -10.179688 12.613281 -9.0625 13.8125 -8.28125 C 15.019531 -7.5 16.523438 -7.109375 18.328125 -7.109375 C 19.691406 -7.109375 20.867188 -7.296875 21.859375 -7.671875 C 22.847656 -8.054688 23.847656 -8.6875 24.859375 -9.5625 L 30.09375 -4.125 C 27.332031 -1.0625 23.304688 0.46875 18.015625 0.46875 C 14.710938 0.46875 11.804688 -0.15625 9.296875 -1.40625 C 6.785156 -2.664062 4.84375 -4.410156 3.46875 -6.640625 C 2.09375 -8.867188 1.40625 -11.390625 1.40625 -14.203125 C 1.40625 -16.992188 2.078125 -19.492188 3.421875 -21.703125 C 4.765625 -23.910156 6.617188 -25.640625 8.984375 -26.890625 C 11.347656 -28.148438 14.007812 -28.78125 16.96875 -28.78125 C 19.789062 -28.78125 22.351562 -28.195312 24.65625 -27.03125 C 26.957031 -25.863281 28.773438 -24.171875 30.109375 -21.953125 C 31.453125 -19.742188 32.125 -17.128906 32.125 -14.109375 Z M 17.03125 -21.734375 C 15.5 -21.734375 14.21875 -21.296875 13.1875 -20.421875 C 12.15625 -19.554688 11.503906 -18.375 11.234375 -16.875 L 22.828125 -16.875 C 22.546875 -18.375 21.890625 -19.554688 20.859375 -20.421875 C 19.835938 -21.296875 18.5625 -21.734375 17.03125 -21.734375 Z M 17.03125 -21.734375 "/></g></g></g><g fill="#ffffff" fill-opacity="1"><g transform="translate(118.243517, 197.694553)"><g><path d="M 12.640625 -24.921875 C 13.648438 -26.203125 14.960938 -27.164062 16.578125 -27.8125 C 18.203125 -28.457031 20.054688 -28.78125 22.140625 -28.78125 L 22.140625 -19.84375 C 21.242188 -19.945312 20.5 -20 19.90625 -20 C 17.78125 -20 16.113281 -19.425781 14.90625 -18.28125 C 13.707031 -17.132812 13.109375 -15.375 13.109375 -13 L 13.109375 0 L 3.1875 0 L 3.1875 -28.3125 L 12.640625 -28.3125 Z M 12.640625 -24.921875 "/></g></g></g><g fill="#ffffff" fill-opacity="1"><g transform="translate(140.598053, 197.694553)"><g><path d="M 22.71875 -1.15625 C 21.882812 -0.625 20.863281 -0.222656 19.65625 0.046875 C 18.457031 0.328125 17.179688 0.46875 15.828125 0.46875 C 12.140625 0.46875 9.300781 -0.4375 7.3125 -2.25 C 5.320312 -4.0625 4.328125 -6.757812 4.328125 -10.34375 L 4.328125 -19.84375 L 0.203125 -19.84375 L 0.203125 -27.265625 L 4.328125 -27.265625 L 4.328125 -34.625 L 14.265625 -34.625 L 14.265625 -27.265625 L 20.734375 -27.265625 L 20.734375 -19.84375 L 14.265625 -19.84375 L 14.265625 -10.453125 C 14.265625 -9.441406 14.53125 -8.644531 15.0625 -8.0625 C 15.601562 -7.488281 16.328125 -7.203125 17.234375 -7.203125 C 18.390625 -7.203125 19.398438 -7.5 20.265625 -8.09375 Z M 22.71875 -1.15625 "/></g></g></g><g fill="#ffffff" fill-opacity="1"><g transform="translate(163.161509, 197.694553)"><g><path d="M 3.1875 -28.3125 L 13.109375 -28.3125 L 13.109375 0 L 3.1875 0 Z M 8.140625 -31.4375 C 6.328125 -31.4375 4.863281 -31.941406 3.75 -32.953125 C 2.632812 -33.960938 2.078125 -35.21875 2.078125 -36.71875 C 2.078125 -38.21875 2.632812 -39.472656 3.75 -40.484375 C 4.863281 -41.492188 6.328125 -42 8.140625 -42 C 9.953125 -42 11.414062 -41.519531 12.53125 -40.5625 C 13.644531 -39.601562 14.203125 -38.375 14.203125 -36.875 C 14.203125 -35.3125 13.644531 -34.015625 12.53125 -32.984375 C 11.414062 -31.953125 9.953125 -31.4375 8.140625 -31.4375 Z M 8.140625 -31.4375 "/></g></g></g><g fill="#ffffff" fill-opacity="1"><g transform="translate(178.726079, 197.694553)"><g><path d="M 14 -27.265625 L 20.734375 -27.265625 L 20.734375 -19.84375 L 14.265625 -19.84375 L 14.265625 0 L 4.328125 0 L 4.328125 -19.84375 L 0.203125 -19.84375 L 0.203125 -27.265625 L 4.328125 -27.265625 L 4.328125 -28 C 4.328125 -31.445312 5.363281 -34.179688 7.4375 -36.203125 C 9.507812 -38.222656 12.410156 -39.234375 16.140625 -39.234375 C 17.390625 -39.234375 18.609375 -39.109375 19.796875 -38.859375 C 20.984375 -38.617188 21.957031 -38.253906 22.71875 -37.765625 L 20.265625 -30.765625 C 19.285156 -31.328125 18.296875 -31.609375 17.296875 -31.609375 C 16.242188 -31.609375 15.429688 -31.289062 14.859375 -30.65625 C 14.285156 -30.03125 14 -29.109375 14 -27.890625 Z M 14 -27.265625 "/></g></g></g><g fill="#ffffff" fill-opacity="1"><g transform="translate(199.148088, 197.694553)"><g><path d="M 33.015625 -28.3125 L 20.796875 1.15625 C 19.359375 4.632812 17.613281 7.078125 15.5625 8.484375 C 13.507812 9.898438 11.003906 10.609375 8.046875 10.609375 C 6.546875 10.609375 5.035156 10.367188 3.515625 9.890625 C 2.003906 9.421875 0.78125 8.804688 -0.15625 8.046875 L 3.296875 1.09375 C 3.847656 1.613281 4.515625 2.019531 5.296875 2.3125 C 6.085938 2.613281 6.878906 2.765625 7.671875 2.765625 C 8.617188 2.765625 9.394531 2.570312 10 2.1875 C 10.613281 1.8125 11.128906 1.203125 11.546875 0.359375 L -0.578125 -28.3125 L 9.609375 -28.3125 L 16.5625 -11.015625 L 23.5625 -28.3125 Z M 33.015625 -28.3125 "/></g></g></g><g fill="#f79320" fill-opacity="1"><g transform="translate(236.014385, 196.940802)"><g><path d="M 17.703125 -36.546875 C 20.554688 -36.546875 23.035156 -36.109375 25.140625 -35.234375 C 27.242188 -34.367188 28.84375 -33.195312 29.9375 -31.71875 C 31.03125 -30.238281 31.578125 -28.59375 31.578125 -26.78125 C 31.578125 -24.96875 31.085938 -23.335938 30.109375 -21.890625 C 29.140625 -20.453125 27.890625 -19.4375 26.359375 -18.84375 L 26.359375 -18.640625 C 28.347656 -18.015625 29.890625 -16.925781 30.984375 -15.375 C 32.078125 -13.820312 32.625 -11.953125 32.625 -9.765625 C 32.488281 -6.703125 31.15625 -4.203125 28.625 -2.265625 C 26.101562 -0.335938 22.390625 0.625 17.484375 0.625 C 14.109375 0.625 11.269531 0.171875 8.96875 -0.734375 C 6.675781 -1.640625 4.972656 -2.875 3.859375 -4.4375 C 2.742188 -6 2.1875 -7.753906 2.1875 -9.703125 L 2.1875 -10.8125 L 11.375 -10.8125 C 11.375 -7.957031 13.1875 -6.53125 16.8125 -6.53125 C 20.425781 -6.53125 22.234375 -8.128906 22.234375 -11.328125 C 22.234375 -12.546875 21.894531 -13.476562 21.21875 -14.125 C 20.539062 -14.769531 19.660156 -15.09375 18.578125 -15.09375 L 14.78125 -15.09375 L 14.78125 -21.5 L 17.75 -21.5 C 18.832031 -21.5 19.710938 -21.820312 20.390625 -22.46875 C 21.066406 -23.113281 21.40625 -24.046875 21.40625 -25.265625 C 21.40625 -26.410156 20.992188 -27.382812 20.171875 -28.1875 C 19.359375 -28.988281 18.238281 -29.390625 16.8125 -29.390625 C 15.3125 -29.390625 14.144531 -29.003906 13.3125 -28.234375 C 12.476562 -27.472656 12.0625 -26.535156 12.0625 -25.421875 L 3.34375 -25.421875 L 3.34375 -26.734375 C 3.34375 -28.535156 3.90625 -30.1875 5.03125 -31.6875 C 6.164062 -33.1875 7.820312 -34.367188 10 -35.234375 C 12.175781 -36.109375 14.742188 -36.546875 17.703125 -36.546875 Z M 17.703125 -36.546875 "/></g></g></g><g fill="#f79320" fill-opacity="1"><g transform="translate(270.828614, 196.940802)"><g><path d="M 17.703125 -36.546875 C 22.046875 -36.546875 25.519531 -35.488281 28.125 -33.375 C 30.738281 -31.269531 32.046875 -28.289062 32.046875 -24.4375 L 22.765625 -24.4375 L 22.765625 -24.796875 C 22.765625 -26.148438 22.34375 -27.269531 21.5 -28.15625 C 20.664062 -29.050781 19.453125 -29.5 17.859375 -29.5 C 16.222656 -29.5 14.941406 -28.929688 14.015625 -27.796875 C 13.097656 -26.671875 12.640625 -25.148438 12.640625 -23.234375 L 12.640625 -20.203125 C 13.640625 -21.109375 14.835938 -21.785156 16.234375 -22.234375 C 17.628906 -22.691406 18.953125 -22.921875 20.203125 -22.921875 C 22.597656 -22.921875 24.757812 -22.492188 26.6875 -21.640625 C 28.625 -20.785156 30.148438 -19.53125 31.265625 -17.875 C 32.378906 -16.226562 32.9375 -14.238281 32.9375 -11.90625 C 32.9375 -7.9375 31.570312 -4.851562 28.84375 -2.65625 C 26.113281 -0.46875 22.398438 0.625 17.703125 0.625 C 12.441406 0.625 8.53125 -0.804688 5.96875 -3.671875 C 3.414062 -6.546875 2.140625 -11.015625 2.140625 -17.078125 C 2.140625 -23.929688 3.398438 -28.890625 5.921875 -31.953125 C 8.441406 -35.015625 12.367188 -36.546875 17.703125 -36.546875 Z M 17.75 -16.65625 C 16.113281 -16.65625 14.851562 -16.207031 13.96875 -15.3125 C 13.082031 -14.425781 12.640625 -13.164062 12.640625 -11.53125 C 12.640625 -9.894531 13.070312 -8.632812 13.9375 -7.75 C 14.8125 -6.863281 16.066406 -6.421875 17.703125 -6.421875 C 19.367188 -6.421875 20.644531 -6.847656 21.53125 -7.703125 C 22.414062 -8.554688 22.859375 -9.800781 22.859375 -11.4375 C 22.859375 -13.070312 22.414062 -14.347656 21.53125 -15.265625 C 20.644531 -16.191406 19.382812 -16.65625 17.75 -16.65625 Z M 17.75 -16.65625 "/></g></g></g><g fill="#f79320" fill-opacity="1"><g transform="translate(305.642844, 196.940802)"><g><path d="M 17.4375 -36.546875 C 23.039062 -36.546875 26.976562 -34.953125 29.25 -31.765625 C 31.53125 -28.578125 32.671875 -23.972656 32.671875 -17.953125 C 32.671875 -11.929688 31.53125 -7.328125 29.25 -4.140625 C 26.976562 -0.960938 23.039062 0.625 17.4375 0.625 C 11.800781 0.625 7.84375 -0.960938 5.5625 -4.140625 C 3.28125 -7.328125 2.140625 -11.929688 2.140625 -17.953125 C 2.140625 -23.972656 3.28125 -28.578125 5.5625 -31.765625 C 7.84375 -34.953125 11.800781 -36.546875 17.4375 -36.546875 Z M 17.4375 -29.5 C 15.625 -29.5 14.332031 -28.800781 13.5625 -27.40625 C 12.800781 -26.007812 12.421875 -23.726562 12.421875 -20.5625 L 12.421875 -15.40625 C 12.421875 -12.195312 12.800781 -9.894531 13.5625 -8.5 C 14.332031 -7.113281 15.625 -6.421875 17.4375 -6.421875 C 19.25 -6.421875 20.519531 -7.113281 21.25 -8.5 C 21.976562 -9.894531 22.34375 -12.195312 22.34375 -15.40625 L 22.34375 -20.5625 C 22.34375 -23.769531 21.976562 -26.0625 21.25 -27.4375 C 20.519531 -28.8125 19.25 -29.5 17.4375 -29.5 Z M 17.4375 -29.5 "/></g></g></g></svg>