<svg xmlns="http://www.w3.org/2000/svg" xmlns:xlink="http://www.w3.org/1999/xlink" width="500" zoomAndPan="magnify" viewBox="0 0 375 374.999991" height="500" preserveAspectRatio="xMidYMid meet" version="1.0"><defs><clipPath id="fc4ce86d5c"><path d="M 144.148438 225.558594 L 271.71875 225.558594 L 271.71875 277.851562 L 144.148438 277.851562 Z M 144.148438 225.558594 " clip-rule="nonzero"/></clipPath><clipPath id="2a506f8cb2"><path d="M 257 142 L 271.953125 142 L 271.953125 160 L 257 160 Z M 257 142 " clip-rule="nonzero"/></clipPath></defs><path fill="#f79320" d="M 216.347656 210.863281 C 232.875 194.332031 245.339844 176.421875 252.757812 159.902344 L 252.761719 159.902344 C 256.074219 152.535156 258.375 145.441406 259.59375 138.875 C 262.015625 125.742188 260.082031 114.695312 253.09375 107.703125 C 242.480469 97.097656 222.566406 98.125 200.183594 108.351562 C 204.335938 108.4375 208.5 108.816406 212.574219 109.488281 C 214.496094 109.804688 216.425781 110.1875 218.320312 110.632812 C 229.933594 106.761719 239.292969 106.96875 244.472656 112.148438 C 247.359375 115.03125 248.699219 119.214844 248.648438 124.367188 C 248.644531 125 248.617188 125.648438 248.570312 126.308594 L 248.554688 126.5 C 248.542969 126.625 248.535156 126.753906 248.523438 126.878906 C 248.503906 127.070312 248.484375 127.265625 248.46875 127.457031 C 248.425781 127.847656 248.378906 128.238281 248.324219 128.636719 C 248.21875 129.398438 248.09375 130.179688 247.933594 130.976562 C 246.382812 139.027344 242.328125 148.636719 236.175781 158.953125 C 235.335938 160.371094 234.453125 161.800781 233.53125 163.234375 C 233.386719 163.460938 233.238281 163.691406 233.089844 163.921875 C 232.328125 165.101562 231.539062 166.289062 230.722656 167.480469 C 223.699219 177.777344 214.804688 188.511719 204.398438 198.917969 C 193.183594 210.136719 181.570312 219.601562 170.546875 226.859375 C 169.554688 227.515625 168.570312 228.148438 167.59375 228.761719 L 166.847656 229.226562 C 166.417969 229.496094 165.988281 229.757812 165.558594 230.015625 C 165.128906 230.28125 164.703125 230.535156 164.277344 230.785156 C 163.851562 231.042969 163.425781 231.292969 163 231.535156 C 162.203125 232 161.410156 232.453125 160.621094 232.886719 C 160.519531 232.941406 160.421875 232.996094 160.324219 233.050781 C 159.957031 233.257812 159.589844 233.460938 159.21875 233.652344 C 149.261719 239.027344 140.140625 242.273438 132.695312 243.003906 C 132.078125 243.066406 131.480469 243.109375 130.890625 243.132812 C 130.472656 243.152344 130.03125 243.164062 129.578125 243.164062 C 129.382812 243.164062 129.199219 243.164062 129.023438 243.15625 C 128.90625 243.15625 128.789062 243.152344 128.671875 243.148438 C 128.585938 243.144531 128.507812 243.140625 128.429688 243.136719 C 128.234375 243.132812 128.039062 243.121094 127.84375 243.105469 L 127.738281 243.097656 C 127.265625 243.066406 126.800781 243.019531 126.347656 242.957031 C 122.785156 242.488281 119.832031 241.1875 117.628906 238.988281 C 113.148438 234.507812 112.394531 226.902344 114.777344 217.402344 C 114.234375 215.371094 113.761719 213.300781 113.371094 211.242188 C 112.605469 207.265625 112.125 203.195312 111.933594 199.097656 C 103.523438 219.671875 103.277344 237.703125 113.183594 247.609375 C 119.542969 253.96875 129.257812 256.144531 140.84375 254.660156 C 153.25 253.070312 167.8125 247.285156 182.703125 237.9375 C 193.988281 230.863281 205.46875 221.742188 216.347656 210.863281 " fill-opacity="1" fill-rule="nonzero"/><g clip-path="url(#fc4ce86d5c)"><path fill="#ffffff" d="M 198.414062 240.707031 C 194.554688 240.707031 190.808594 240.230469 187.230469 239.332031 C 186.363281 239.898438 185.496094 240.457031 184.625 241 C 170.460938 249.890625 156.585938 255.660156 144.277344 257.792969 C 158.808594 270.316406 177.730469 277.886719 198.414062 277.886719 C 230.183594 277.886719 257.78125 260.035156 271.71875 233.808594 L 232.265625 225.746094 C 223.898438 234.941406 211.832031 240.707031 198.414062 240.707031 " fill-opacity="1" fill-rule="nonzero"/></g><g clip-path="url(#2a506f8cb2)"><path fill="#ffffff" d="M 271.71875 156.035156 C 269.128906 151.152344 266.0625 146.5625 262.578125 142.320312 C 261.382812 147.648438 259.542969 153.246094 257.09375 159.019531 L 271.71875 156.035156 " fill-opacity="1" fill-rule="nonzero"/></g><path fill="#ffffff" d="M 118.519531 217.375 C 120.742188 225.296875 124.117188 232.746094 128.441406 239.519531 C 128.8125 239.542969 129.191406 239.550781 129.578125 239.550781 C 129.953125 239.550781 130.339844 239.542969 130.730469 239.523438 C 139.550781 239.136719 151.671875 234.398438 164.9375 226.15625 C 157.300781 217.976562 152.625 206.992188 152.625 194.917969 C 152.625 169.628906 173.125 149.128906 198.414062 149.128906 C 210.71875 149.128906 221.886719 153.980469 230.109375 161.878906 C 238.308594 149.191406 243.503906 137.21875 244.746094 128.148438 C 244.828125 127.535156 244.902344 126.890625 244.953125 126.226562 C 237.007812 120.828125 228.085938 116.777344 218.5 114.398438 C 216.363281 113.867188 214.191406 113.417969 211.988281 113.054688 C 207.574219 112.328125 203.039062 111.949219 198.414062 111.949219 C 196.429688 111.949219 194.472656 112.019531 192.523438 112.15625 L 192.515625 112.15625 C 192.261719 112.171875 192.007812 112.191406 191.753906 112.214844 C 150.539062 115.484375 117.808594 148.875 115.578125 190.378906 C 115.558594 190.625 115.546875 190.875 115.539062 191.121094 C 115.472656 192.378906 115.445312 193.648438 115.445312 194.917969 C 115.445312 200.269531 115.949219 205.496094 116.917969 210.5625 C 117.359375 212.871094 117.894531 215.140625 118.519531 217.375 " fill-opacity="1" fill-rule="nonzero"/></svg>