<svg xmlns="http://www.w3.org/2000/svg" xmlns:xlink="http://www.w3.org/1999/xlink" width="512" zoomAndPan="magnify" viewBox="0 0 384 383.999986" height="512" preserveAspectRatio="xMidYMid meet" version="1.0"><defs><g/><clipPath id="8f8fc04df6"><path d="M 97.367188 88.273438 L 286.632812 88.273438 L 286.632812 277.535156 L 97.367188 277.535156 Z M 97.367188 88.273438 " clip-rule="nonzero"/></clipPath><clipPath id="7f1256199f"><path d="M 192 88.273438 C 139.738281 88.273438 97.367188 130.640625 97.367188 182.90625 C 97.367188 235.167969 139.738281 277.535156 192 277.535156 C 244.261719 277.535156 286.632812 235.167969 286.632812 182.90625 C 286.632812 130.640625 244.261719 88.273438 192 88.273438 Z M 192 88.273438 " clip-rule="nonzero"/></clipPath><clipPath id="1e4e4512a2"><path d="M 123.199219 122.417969 L 260.449219 122.417969 L 260.449219 243.167969 L 123.199219 243.167969 Z M 123.199219 122.417969 " clip-rule="nonzero"/></clipPath></defs><g clip-path="url(#8f8fc04df6)"><g clip-path="url(#7f1256199f)"><path fill="#ffffff" d="M 97.367188 88.273438 L 286.632812 88.273438 L 286.632812 277.535156 L 97.367188 277.535156 Z M 97.367188 88.273438 " fill-opacity="1" fill-rule="nonzero"/></g></g><g clip-path="url(#1e4e4512a2)"><path fill="#f38526" d="M 259.300781 139.835938 L 192.640625 122.957031 C 192.261719 122.863281 191.878906 122.863281 191.5 122.957031 L 124.839844 139.835938 C 124.371094 140.007812 123.992188 140.300781 123.703125 140.710938 C 123.417969 141.121094 123.273438 141.574219 123.273438 142.074219 C 123.273438 142.578125 123.417969 143.03125 123.703125 143.441406 C 123.992188 143.851562 124.371094 144.140625 124.839844 144.3125 L 148.101562 150.195312 L 148.101562 187.238281 L 145.839844 186.832031 C 145.398438 186.726562 144.964844 186.746094 144.535156 186.886719 C 144.109375 187.027344 143.75 187.269531 143.457031 187.617188 C 142.714844 188.558594 142.050781 189.554688 141.472656 190.605469 C 140.894531 191.65625 140.410156 192.746094 140.015625 193.878906 C 139.621094 195.011719 139.324219 196.167969 139.125 197.351562 C 138.925781 198.535156 138.824219 199.726562 138.824219 200.925781 C 138.824219 202.125 138.925781 203.316406 139.125 204.5 C 139.324219 205.679688 139.621094 206.839844 140.015625 207.972656 C 140.410156 209.105469 140.894531 210.195312 141.472656 211.246094 C 142.050781 212.296875 142.714844 213.292969 143.457031 214.234375 C 143.925781 214.765625 144.511719 215.035156 145.21875 215.042969 L 145.601562 215.042969 C 156.402344 213.328125 167.265625 212.25 178.191406 211.804688 L 170.191406 232.613281 C 170.074219 233.058594 170.082031 233.5 170.21875 233.9375 C 170.355469 234.378906 170.601562 234.75 170.953125 235.046875 C 171.304688 235.34375 171.707031 235.523438 172.164062 235.589844 C 172.621094 235.652344 173.058594 235.589844 173.476562 235.398438 L 180.335938 231.445312 L 186.09375 241.921875 C 186.304688 242.28125 186.589844 242.570312 186.949219 242.78125 C 187.3125 242.992188 187.699219 243.105469 188.117188 243.109375 L 188.59375 243.109375 C 189.082031 242.992188 189.492188 242.746094 189.824219 242.371094 C 190.152344 241.996094 190.347656 241.558594 190.40625 241.0625 L 192 223.992188 L 193.59375 241.0625 C 193.652344 241.558594 193.84375 241.996094 194.175781 242.371094 C 194.507812 242.746094 194.917969 242.992188 195.402344 243.109375 L 195.878906 243.109375 C 196.292969 243.097656 196.679688 242.988281 197.035156 242.777344 C 197.390625 242.5625 197.671875 242.277344 197.878906 241.921875 L 203.664062 231.445312 L 210.519531 235.398438 C 210.945312 235.59375 211.386719 235.660156 211.851562 235.59375 C 212.316406 235.53125 212.722656 235.34375 213.078125 235.039062 C 213.429688 234.734375 213.675781 234.359375 213.804688 233.910156 C 213.9375 233.460938 213.9375 233.011719 213.804688 232.5625 L 205.855469 211.828125 C 216.65625 212.277344 227.402344 213.328125 238.089844 214.972656 L 238.445312 214.972656 C 239.109375 214.96875 239.671875 214.730469 240.136719 214.257812 C 241.738281 212.441406 242.972656 210.402344 243.832031 208.140625 C 244.691406 205.878906 245.128906 203.535156 245.136719 201.117188 C 245.171875 198.609375 244.765625 196.179688 243.90625 193.824219 C 243.050781 191.46875 241.800781 189.34375 240.160156 187.449219 C 239.878906 187.15625 239.542969 186.945312 239.152344 186.824219 C 238.765625 186.703125 238.371094 186.679688 237.96875 186.761719 L 236.042969 187.140625 L 236.042969 150.195312 L 248.46875 147.050781 L 249.136719 147.050781 L 249.136719 157.953125 L 247.875 157.953125 C 247.582031 157.953125 247.296875 158.003906 247.023438 158.105469 C 246.75 158.207031 246.503906 158.355469 246.285156 158.546875 C 246.0625 158.742188 245.886719 158.96875 245.75 159.226562 C 245.613281 159.484375 245.527344 159.757812 245.492188 160.050781 L 243.5625 179.09375 C 243.511719 179.765625 243.710938 180.351562 244.160156 180.855469 C 244.613281 181.378906 245.183594 181.632812 245.875 181.617188 L 256.824219 181.617188 C 257.152344 181.617188 257.46875 181.554688 257.769531 181.425781 C 258.070312 181.292969 258.335938 181.109375 258.558594 180.871094 C 258.785156 180.632812 258.953125 180.359375 259.066406 180.050781 C 259.179688 179.742188 259.226562 179.421875 259.207031 179.09375 L 257.277344 160.050781 C 257.242188 159.757812 257.15625 159.484375 257.019531 159.226562 C 256.882812 158.96875 256.707031 158.742188 256.484375 158.546875 C 256.265625 158.355469 256.019531 158.207031 255.746094 158.105469 C 255.472656 158.003906 255.1875 157.953125 254.894531 157.953125 L 253.660156 157.953125 L 253.660156 145.742188 L 259.300781 144.3125 C 259.769531 144.140625 260.148438 143.851562 260.4375 143.441406 C 260.726562 143.03125 260.867188 142.578125 260.867188 142.074219 C 260.867188 141.574219 260.726562 141.121094 260.4375 140.710938 C 260.148438 140.300781 259.769531 140.007812 259.300781 139.835938 Z M 248.421875 177.117188 L 249.898438 162.597656 L 251.039062 162.597656 C 251.152344 162.609375 251.261719 162.609375 251.371094 162.597656 C 251.484375 162.609375 251.59375 162.609375 251.707031 162.597656 L 252.847656 162.597656 L 254.300781 177.117188 Z M 192 127.578125 L 249.347656 142.074219 L 248.015625 142.410156 L 192.117188 139.765625 C 191.941406 139.714844 191.765625 139.683594 191.582031 139.671875 C 191.398438 139.660156 191.21875 139.671875 191.039062 139.699219 C 190.859375 139.730469 190.683594 139.78125 190.515625 139.851562 C 190.347656 139.925781 190.1875 140.011719 190.039062 140.121094 C 189.890625 140.226562 189.757812 140.351562 189.636719 140.488281 C 189.519531 140.625 189.417969 140.777344 189.332031 140.9375 C 189.246094 141.101562 189.179688 141.269531 189.132812 141.445312 C 189.089844 141.625 189.0625 141.804688 189.058594 141.984375 C 189.054688 142.167969 189.070312 142.347656 189.105469 142.527344 C 189.144531 142.707031 189.199219 142.878906 189.277344 143.046875 C 189.351562 143.210938 189.449219 143.367188 189.558594 143.511719 C 189.671875 143.65625 189.800781 143.785156 189.941406 143.898438 C 190.085938 144.015625 190.238281 144.113281 190.402344 144.191406 C 190.566406 144.269531 190.738281 144.332031 190.917969 144.371094 C 191.09375 144.410156 191.277344 144.429688 191.457031 144.429688 C 191.640625 144.425781 191.820312 144.402344 192 144.359375 L 232.757812 146.289062 L 192 156.574219 L 134.648438 142.074219 Z M 143.457031 200.925781 C 143.457031 199.273438 143.6875 197.65625 144.152344 196.074219 C 144.621094 194.488281 145.300781 193.003906 146.195312 191.617188 C 147.386719 191.878906 148.578125 192.046875 149.839844 192.285156 C 150.097656 192.386719 150.367188 192.441406 150.648438 192.449219 C 161.039062 194.261719 171.503906 195.328125 182.046875 195.640625 L 182.046875 207.066406 L 181.382812 207.066406 C 169.578125 207.390625 157.84375 208.445312 146.171875 210.234375 C 145.269531 208.851562 144.585938 207.367188 144.121094 205.78125 C 143.660156 204.195312 143.4375 202.578125 143.457031 200.925781 Z M 186.523438 233.183594 L 183.238281 227.230469 C 182.921875 226.667969 182.453125 226.292969 181.835938 226.113281 C 181.21875 225.949219 180.632812 226.019531 180.074219 226.328125 L 176.8125 228.253906 L 183.046875 212.019531 C 183.453125 212.335938 183.914062 212.5 184.429688 212.519531 L 188.453125 212.519531 Z M 197.285156 195.09375 L 197.285156 207.804688 L 186.714844 207.804688 L 186.714844 195.140625 Z M 203.902344 226.328125 C 203.34375 226.019531 202.757812 225.949219 202.140625 226.113281 C 201.519531 226.292969 201.050781 226.667969 200.738281 227.230469 L 197.449219 233.183594 L 195.523438 212.472656 L 199.570312 212.472656 C 200.074219 212.449219 200.527344 212.28125 200.925781 211.972656 L 207.1875 228.253906 Z M 240.539062 201.140625 C 240.527344 202.785156 240.261719 204.386719 239.746094 205.945312 C 239.226562 207.507812 238.484375 208.953125 237.515625 210.28125 C 225.945312 208.558594 214.3125 207.507812 202.617188 207.140625 L 201.878906 207.140625 L 201.878906 195.617188 C 213.890625 195.246094 225.792969 193.910156 237.589844 191.617188 C 238.585938 193 239.335938 194.507812 239.839844 196.136719 C 240.34375 197.765625 240.578125 199.433594 240.539062 201.140625 Z M 231.421875 188.070312 C 221.332031 189.746094 211.175781 190.738281 200.949219 191.046875 C 200.558594 190.714844 200.105469 190.546875 199.59375 190.546875 L 184.429688 190.546875 C 183.90625 190.558594 183.4375 190.722656 183.023438 191.046875 C 172.796875 190.78125 162.640625 189.796875 152.550781 188.09375 L 152.550781 151.359375 L 191.429688 161.191406 C 191.808594 161.285156 192.191406 161.285156 192.570312 161.191406 L 231.421875 151.359375 Z M 231.421875 188.070312 " fill-opacity="1" fill-rule="nonzero"/></g><g fill="#ffffff" fill-opacity="1"><g transform="translate(50.774998, 306.43026)"><g><path d="M 3.921875 0 L 1.9375 0 L 1.9375 -15.03125 L 3.921875 -15.03125 Z M 3.921875 0 "/></g></g></g><g fill="#ffffff" fill-opacity="1"><g transform="translate(56.613018, 306.43026)"><g><path d="M 6.546875 -11.125 C 7.335938 -11.125 8.015625 -10.96875 8.578125 -10.65625 C 9.140625 -10.351562 9.554688 -9.960938 9.828125 -9.484375 C 9.992188 -9.171875 10.113281 -8.828125 10.1875 -8.453125 C 10.257812 -8.078125 10.296875 -7.613281 10.296875 -7.0625 L 10.296875 0 L 8.4375 0 L 8.4375 -6.71875 C 8.4375 -8.59375 7.675781 -9.53125 6.15625 -9.53125 C 5.582031 -9.53125 5.050781 -9.390625 4.5625 -9.109375 C 4.082031 -8.828125 3.738281 -8.421875 3.53125 -7.890625 C 3.363281 -7.441406 3.28125 -6.84375 3.28125 -6.09375 L 3.28125 0 L 1.421875 0 L 1.421875 -10.875 L 3.09375 -10.875 L 3.09375 -9.34375 C 3.914062 -10.53125 5.066406 -11.125 6.546875 -11.125 Z M 6.546875 -11.125 "/></g></g></g><g fill="#ffffff" fill-opacity="1"><g transform="translate(68.289069, 306.43026)"><g><path d="M 10.203125 -15.03125 L 10.203125 0 L 8.484375 0 L 8.484375 -1.390625 C 8.273438 -1.023438 7.921875 -0.660156 7.421875 -0.296875 C 6.921875 0.0546875 6.265625 0.234375 5.453125 0.234375 C 4.578125 0.234375 3.78125 0 3.0625 -0.46875 C 2.351562 -0.9375 1.789062 -1.601562 1.375 -2.46875 C 0.957031 -3.34375 0.75 -4.351562 0.75 -5.5 C 0.75 -6.644531 0.941406 -7.640625 1.328125 -8.484375 C 1.710938 -9.335938 2.257812 -9.988281 2.96875 -10.4375 C 3.675781 -10.894531 4.5 -11.125 5.4375 -11.125 C 6.125 -11.125 6.722656 -10.960938 7.234375 -10.640625 C 7.742188 -10.316406 8.117188 -9.984375 8.359375 -9.640625 L 8.359375 -15.03125 Z M 2.640625 -5.4375 C 2.640625 -4.539062 2.769531 -3.78125 3.03125 -3.15625 C 3.300781 -2.53125 3.664062 -2.0625 4.125 -1.75 C 4.582031 -1.4375 5.082031 -1.28125 5.625 -1.28125 C 6.476562 -1.28125 7.175781 -1.625 7.71875 -2.3125 C 8.257812 -3 8.53125 -3.984375 8.53125 -5.265625 C 8.53125 -6.585938 8.269531 -7.644531 7.75 -8.4375 C 7.226562 -9.226562 6.492188 -9.625 5.546875 -9.625 C 4.628906 -9.625 3.914062 -9.25 3.40625 -8.5 C 2.894531 -7.757812 2.640625 -6.738281 2.640625 -5.4375 Z M 2.640625 -5.4375 "/></g></g></g><g fill="#ffffff" fill-opacity="1"><g transform="translate(79.965121, 306.43026)"><g><path d="M 3.234375 -3.90625 C 3.234375 -3.0625 3.429688 -2.421875 3.828125 -1.984375 C 4.234375 -1.554688 4.820312 -1.34375 5.59375 -1.34375 C 6.101562 -1.34375 6.597656 -1.492188 7.078125 -1.796875 C 7.566406 -2.097656 7.914062 -2.519531 8.125 -3.0625 C 8.289062 -3.46875 8.375 -4.082031 8.375 -4.90625 L 8.375 -10.875 L 10.234375 -10.875 L 10.234375 0 L 8.5625 0 L 8.5625 -1.59375 C 7.695312 -0.363281 6.546875 0.25 5.109375 0.25 C 4.515625 0.25 3.914062 0.128906 3.3125 -0.109375 C 2.71875 -0.359375 2.25 -0.753906 1.90625 -1.296875 C 1.707031 -1.617188 1.570312 -1.976562 1.5 -2.375 C 1.425781 -2.769531 1.390625 -3.242188 1.390625 -3.796875 L 1.390625 -10.875 L 3.234375 -10.875 Z M 3.234375 -3.90625 "/></g></g></g><g fill="#ffffff" fill-opacity="1"><g transform="translate(91.641172, 306.43026)"><g><path d="M 5 -11.125 C 6.226562 -11.125 7.21875 -10.867188 7.96875 -10.359375 C 8.726562 -9.847656 9.164062 -9.085938 9.28125 -8.078125 L 7.46875 -7.828125 C 7.382812 -8.378906 7.15625 -8.816406 6.78125 -9.140625 C 6.40625 -9.460938 5.847656 -9.625 5.109375 -9.625 C 4.359375 -9.625 3.773438 -9.492188 3.359375 -9.234375 C 2.953125 -8.984375 2.75 -8.632812 2.75 -8.1875 C 2.75 -7.882812 2.867188 -7.628906 3.109375 -7.421875 C 3.359375 -7.222656 3.648438 -7.066406 3.984375 -6.953125 C 4.328125 -6.847656 4.835938 -6.710938 5.515625 -6.546875 C 6.398438 -6.335938 7.117188 -6.128906 7.671875 -5.921875 C 8.222656 -5.710938 8.695312 -5.390625 9.09375 -4.953125 C 9.5 -4.523438 9.703125 -3.945312 9.703125 -3.21875 C 9.703125 -2.582031 9.523438 -2 9.171875 -1.46875 C 8.828125 -0.945312 8.328125 -0.53125 7.671875 -0.21875 C 7.023438 0.0820312 6.28125 0.234375 5.4375 0.234375 C 3.976562 0.234375 2.863281 -0.0507812 2.09375 -0.625 C 1.320312 -1.195312 0.84375 -2.070312 0.65625 -3.25 L 2.484375 -3.53125 C 2.578125 -2.789062 2.867188 -2.226562 3.359375 -1.84375 C 3.859375 -1.46875 4.503906 -1.28125 5.296875 -1.28125 C 6.085938 -1.28125 6.703125 -1.441406 7.140625 -1.765625 C 7.585938 -2.097656 7.8125 -2.507812 7.8125 -3 C 7.8125 -3.46875 7.585938 -3.8125 7.140625 -4.03125 C 6.703125 -4.257812 6.03125 -4.476562 5.125 -4.6875 C 4.226562 -4.894531 3.507812 -5.097656 2.96875 -5.296875 C 2.425781 -5.503906 1.957031 -5.820312 1.5625 -6.25 C 1.164062 -6.6875 0.96875 -7.269531 0.96875 -8 C 0.96875 -8.59375 1.125 -9.125 1.4375 -9.59375 C 1.75 -10.070312 2.207031 -10.445312 2.8125 -10.71875 C 3.425781 -10.988281 4.15625 -11.125 5 -11.125 Z M 5 -11.125 "/></g></g></g><g fill="#ffffff" fill-opacity="1"><g transform="translate(102.141217, 306.43026)"><g><path d="M 3.546875 -10.875 L 5.390625 -10.875 L 5.390625 -9.484375 L 3.546875 -9.484375 L 3.546875 -2.75 C 3.546875 -2.269531 3.613281 -1.929688 3.75 -1.734375 C 3.882812 -1.546875 4.160156 -1.453125 4.578125 -1.453125 C 4.671875 -1.453125 4.941406 -1.484375 5.390625 -1.546875 L 5.671875 0.078125 C 5.109375 0.191406 4.65625 0.25 4.3125 0.25 C 3.59375 0.25 3.039062 0.132812 2.65625 -0.09375 C 2.28125 -0.320312 2.023438 -0.644531 1.890625 -1.0625 C 1.765625 -1.476562 1.703125 -2.015625 1.703125 -2.671875 L 1.703125 -9.484375 L 0.359375 -9.484375 L 0.359375 -10.875 L 1.703125 -10.875 L 1.703125 -13.59375 L 3.546875 -14.703125 Z M 3.546875 -10.875 "/></g></g></g><g fill="#ffffff" fill-opacity="1"><g transform="translate(107.979237, 306.43026)"><g><path d="M 5.390625 -11.125 C 6.023438 -11.125 6.648438 -10.929688 7.265625 -10.546875 L 6.640625 -8.84375 C 6.191406 -9.101562 5.722656 -9.234375 5.234375 -9.234375 C 4.523438 -9.234375 4.003906 -8.914062 3.671875 -8.28125 C 3.347656 -7.644531 3.1875 -6.820312 3.1875 -5.8125 L 3.1875 0 L 1.34375 0 L 1.34375 -10.875 L 3 -10.875 L 3 -9.234375 C 3.351562 -9.867188 3.703125 -10.34375 4.046875 -10.65625 C 4.390625 -10.96875 4.835938 -11.125 5.390625 -11.125 Z M 5.390625 -11.125 "/></g></g></g><g fill="#ffffff" fill-opacity="1"><g transform="translate(114.972263, 306.43026)"><g><path d="M 4.625 -4.515625 C 4.925781 -3.617188 5.175781 -2.800781 5.375 -2.0625 C 5.582031 -2.882812 5.820312 -3.660156 6.09375 -4.390625 L 8.46875 -10.875 L 10.3125 -10.875 L 6.171875 0.1875 C 5.785156 1.238281 5.453125 2.039062 5.171875 2.59375 C 4.890625 3.144531 4.535156 3.582031 4.109375 3.90625 C 3.691406 4.238281 3.15625 4.40625 2.5 4.40625 C 2.0625 4.40625 1.660156 4.335938 1.296875 4.203125 L 1.09375 2.453125 C 1.539062 2.566406 1.90625 2.625 2.1875 2.625 C 2.613281 2.625 2.953125 2.546875 3.203125 2.390625 C 3.460938 2.234375 3.65625 2.03125 3.78125 1.78125 C 3.90625 1.53125 4.066406 1.132812 4.265625 0.59375 L 4.46875 0.015625 L 0.34375 -10.875 L 2.328125 -10.875 Z M 4.625 -4.515625 "/></g></g></g><g fill="#ffffff" fill-opacity="1"><g transform="translate(125.472308, 306.43026)"><g/></g></g><g fill="#ffffff" fill-opacity="1"><g transform="translate(131.310328, 306.43026)"><g><path d="M 6.796875 -15.28125 C 8.503906 -15.28125 9.851562 -14.878906 10.84375 -14.078125 C 11.84375 -13.285156 12.378906 -12.191406 12.453125 -10.796875 L 10.546875 -10.671875 C 10.429688 -11.628906 10.078125 -12.335938 9.484375 -12.796875 C 8.898438 -13.265625 8.035156 -13.5 6.890625 -13.5 C 5.796875 -13.5 4.945312 -13.300781 4.34375 -12.90625 C 3.738281 -12.507812 3.4375 -11.96875 3.4375 -11.28125 C 3.4375 -10.832031 3.566406 -10.445312 3.828125 -10.125 C 4.097656 -9.8125 4.484375 -9.585938 4.984375 -9.453125 C 5.085938 -9.421875 5.492188 -9.296875 6.203125 -9.078125 C 6.921875 -8.859375 7.835938 -8.632812 8.953125 -8.40625 C 10.265625 -8.101562 11.25 -7.570312 11.90625 -6.8125 C 12.5625 -6.0625 12.890625 -5.203125 12.890625 -4.234375 C 12.890625 -3.429688 12.671875 -2.6875 12.234375 -2 C 11.796875 -1.3125 11.15625 -0.765625 10.3125 -0.359375 C 9.46875 0.046875 8.472656 0.25 7.328125 0.25 C 6.015625 0.25 4.878906 0.0390625 3.921875 -0.375 C 2.972656 -0.800781 2.242188 -1.394531 1.734375 -2.15625 C 1.234375 -2.914062 0.96875 -3.804688 0.9375 -4.828125 L 2.828125 -5 C 2.921875 -3.8125 3.390625 -2.9375 4.234375 -2.375 C 5.085938 -1.8125 6.097656 -1.53125 7.265625 -1.53125 C 8.429688 -1.53125 9.34375 -1.769531 10 -2.25 C 10.664062 -2.726562 11 -3.367188 11 -4.171875 C 11 -5.285156 10.113281 -6.054688 8.34375 -6.484375 L 7.15625 -6.78125 C 6.425781 -6.945312 5.585938 -7.171875 4.640625 -7.453125 C 3.671875 -7.734375 2.910156 -8.207031 2.359375 -8.875 C 1.816406 -9.539062 1.546875 -10.300781 1.546875 -11.15625 C 1.546875 -11.9375 1.753906 -12.640625 2.171875 -13.265625 C 2.597656 -13.898438 3.207031 -14.394531 4 -14.75 C 4.789062 -15.101562 5.722656 -15.28125 6.796875 -15.28125 Z M 6.796875 -15.28125 "/></g></g></g><g fill="#ffffff" fill-opacity="1"><g transform="translate(145.31738, 306.43026)"><g><path d="M 3.546875 -10.875 L 5.390625 -10.875 L 5.390625 -9.484375 L 3.546875 -9.484375 L 3.546875 -2.75 C 3.546875 -2.269531 3.613281 -1.929688 3.75 -1.734375 C 3.882812 -1.546875 4.160156 -1.453125 4.578125 -1.453125 C 4.671875 -1.453125 4.941406 -1.484375 5.390625 -1.546875 L 5.671875 0.078125 C 5.109375 0.191406 4.65625 0.25 4.3125 0.25 C 3.59375 0.25 3.039062 0.132812 2.65625 -0.09375 C 2.28125 -0.320312 2.023438 -0.644531 1.890625 -1.0625 C 1.765625 -1.476562 1.703125 -2.015625 1.703125 -2.671875 L 1.703125 -9.484375 L 0.359375 -9.484375 L 0.359375 -10.875 L 1.703125 -10.875 L 1.703125 -13.59375 L 3.546875 -14.703125 Z M 3.546875 -10.875 "/></g></g></g><g fill="#ffffff" fill-opacity="1"><g transform="translate(151.1554, 306.43026)"><g><path d="M 5.96875 -11.125 C 6.863281 -11.125 7.585938 -11.035156 8.140625 -10.859375 C 8.691406 -10.691406 9.128906 -10.4375 9.453125 -10.09375 C 9.753906 -9.78125 9.960938 -9.425781 10.078125 -9.03125 C 10.191406 -8.632812 10.25 -8.113281 10.25 -7.46875 L 10.25 -3.09375 C 10.25 -1.675781 10.445312 -0.644531 10.84375 0 L 8.90625 0 C 8.71875 -0.375 8.59375 -0.820312 8.53125 -1.34375 C 7.851562 -0.78125 7.195312 -0.375 6.5625 -0.125 C 5.925781 0.125 5.265625 0.25 4.578125 0.25 C 3.398438 0.25 2.472656 -0.0351562 1.796875 -0.609375 C 1.128906 -1.179688 0.796875 -1.9375 0.796875 -2.875 C 0.796875 -3.363281 0.90625 -3.835938 1.125 -4.296875 C 1.351562 -4.753906 1.664062 -5.109375 2.0625 -5.359375 C 2.476562 -5.640625 2.898438 -5.84375 3.328125 -5.96875 C 3.765625 -6.09375 4.300781 -6.191406 4.9375 -6.265625 C 5.601562 -6.328125 6.269531 -6.414062 6.9375 -6.53125 C 7.601562 -6.65625 8.09375 -6.78125 8.40625 -6.90625 L 8.40625 -7.375 C 8.40625 -8.113281 8.203125 -8.671875 7.796875 -9.046875 C 7.398438 -9.429688 6.71875 -9.625 5.75 -9.625 C 4.84375 -9.625 4.1875 -9.460938 3.78125 -9.140625 C 3.382812 -8.816406 3.097656 -8.28125 2.921875 -7.53125 L 1.109375 -7.765625 C 1.359375 -8.941406 1.882812 -9.796875 2.6875 -10.328125 C 3.5 -10.859375 4.59375 -11.125 5.96875 -11.125 Z M 5.75 -4.828125 C 5.039062 -4.710938 4.492188 -4.601562 4.109375 -4.5 C 3.722656 -4.394531 3.398438 -4.21875 3.140625 -3.96875 C 2.890625 -3.726562 2.765625 -3.378906 2.765625 -2.921875 C 2.765625 -2.367188 2.960938 -1.941406 3.359375 -1.640625 C 3.765625 -1.347656 4.332031 -1.203125 5.0625 -1.203125 C 5.476562 -1.203125 5.929688 -1.285156 6.421875 -1.453125 C 6.910156 -1.628906 7.335938 -1.9375 7.703125 -2.375 C 7.941406 -2.65625 8.117188 -2.96875 8.234375 -3.3125 C 8.347656 -3.664062 8.40625 -4.113281 8.40625 -4.65625 L 8.40625 -5.453125 C 7.84375 -5.234375 6.957031 -5.023438 5.75 -4.828125 Z M 5.75 -4.828125 "/></g></g></g><g fill="#ffffff" fill-opacity="1"><g transform="translate(162.831451, 306.43026)"><g><path d="M 6.546875 -11.125 C 7.335938 -11.125 8.015625 -10.96875 8.578125 -10.65625 C 9.140625 -10.351562 9.554688 -9.960938 9.828125 -9.484375 C 9.992188 -9.171875 10.113281 -8.828125 10.1875 -8.453125 C 10.257812 -8.078125 10.296875 -7.613281 10.296875 -7.0625 L 10.296875 0 L 8.4375 0 L 8.4375 -6.71875 C 8.4375 -8.59375 7.675781 -9.53125 6.15625 -9.53125 C 5.582031 -9.53125 5.050781 -9.390625 4.5625 -9.109375 C 4.082031 -8.828125 3.738281 -8.421875 3.53125 -7.890625 C 3.363281 -7.441406 3.28125 -6.84375 3.28125 -6.09375 L 3.28125 0 L 1.421875 0 L 1.421875 -10.875 L 3.09375 -10.875 L 3.09375 -9.34375 C 3.914062 -10.53125 5.066406 -11.125 6.546875 -11.125 Z M 6.546875 -11.125 "/></g></g></g><g fill="#ffffff" fill-opacity="1"><g transform="translate(174.507502, 306.43026)"><g><path d="M 10.203125 -15.03125 L 10.203125 0 L 8.484375 0 L 8.484375 -1.390625 C 8.273438 -1.023438 7.921875 -0.660156 7.421875 -0.296875 C 6.921875 0.0546875 6.265625 0.234375 5.453125 0.234375 C 4.578125 0.234375 3.78125 0 3.0625 -0.46875 C 2.351562 -0.9375 1.789062 -1.601562 1.375 -2.46875 C 0.957031 -3.34375 0.75 -4.351562 0.75 -5.5 C 0.75 -6.644531 0.941406 -7.640625 1.328125 -8.484375 C 1.710938 -9.335938 2.257812 -9.988281 2.96875 -10.4375 C 3.675781 -10.894531 4.5 -11.125 5.4375 -11.125 C 6.125 -11.125 6.722656 -10.960938 7.234375 -10.640625 C 7.742188 -10.316406 8.117188 -9.984375 8.359375 -9.640625 L 8.359375 -15.03125 Z M 2.640625 -5.4375 C 2.640625 -4.539062 2.769531 -3.78125 3.03125 -3.15625 C 3.300781 -2.53125 3.664062 -2.0625 4.125 -1.75 C 4.582031 -1.4375 5.082031 -1.28125 5.625 -1.28125 C 6.476562 -1.28125 7.175781 -1.625 7.71875 -2.3125 C 8.257812 -3 8.53125 -3.984375 8.53125 -5.265625 C 8.53125 -6.585938 8.269531 -7.644531 7.75 -8.4375 C 7.226562 -9.226562 6.492188 -9.625 5.546875 -9.625 C 4.628906 -9.625 3.914062 -9.25 3.40625 -8.5 C 2.894531 -7.757812 2.640625 -6.738281 2.640625 -5.4375 Z M 2.640625 -5.4375 "/></g></g></g><g fill="#ffffff" fill-opacity="1"><g transform="translate(186.183553, 306.43026)"><g><path d="M 5.96875 -11.125 C 6.863281 -11.125 7.585938 -11.035156 8.140625 -10.859375 C 8.691406 -10.691406 9.128906 -10.4375 9.453125 -10.09375 C 9.753906 -9.78125 9.960938 -9.425781 10.078125 -9.03125 C 10.191406 -8.632812 10.25 -8.113281 10.25 -7.46875 L 10.25 -3.09375 C 10.25 -1.675781 10.445312 -0.644531 10.84375 0 L 8.90625 0 C 8.71875 -0.375 8.59375 -0.820312 8.53125 -1.34375 C 7.851562 -0.78125 7.195312 -0.375 6.5625 -0.125 C 5.925781 0.125 5.265625 0.25 4.578125 0.25 C 3.398438 0.25 2.472656 -0.0351562 1.796875 -0.609375 C 1.128906 -1.179688 0.796875 -1.9375 0.796875 -2.875 C 0.796875 -3.363281 0.90625 -3.835938 1.125 -4.296875 C 1.351562 -4.753906 1.664062 -5.109375 2.0625 -5.359375 C 2.476562 -5.640625 2.898438 -5.84375 3.328125 -5.96875 C 3.765625 -6.09375 4.300781 -6.191406 4.9375 -6.265625 C 5.601562 -6.328125 6.269531 -6.414062 6.9375 -6.53125 C 7.601562 -6.65625 8.09375 -6.78125 8.40625 -6.90625 L 8.40625 -7.375 C 8.40625 -8.113281 8.203125 -8.671875 7.796875 -9.046875 C 7.398438 -9.429688 6.71875 -9.625 5.75 -9.625 C 4.84375 -9.625 4.1875 -9.460938 3.78125 -9.140625 C 3.382812 -8.816406 3.097656 -8.28125 2.921875 -7.53125 L 1.109375 -7.765625 C 1.359375 -8.941406 1.882812 -9.796875 2.6875 -10.328125 C 3.5 -10.859375 4.59375 -11.125 5.96875 -11.125 Z M 5.75 -4.828125 C 5.039062 -4.710938 4.492188 -4.601562 4.109375 -4.5 C 3.722656 -4.394531 3.398438 -4.21875 3.140625 -3.96875 C 2.890625 -3.726562 2.765625 -3.378906 2.765625 -2.921875 C 2.765625 -2.367188 2.960938 -1.941406 3.359375 -1.640625 C 3.765625 -1.347656 4.332031 -1.203125 5.0625 -1.203125 C 5.476562 -1.203125 5.929688 -1.285156 6.421875 -1.453125 C 6.910156 -1.628906 7.335938 -1.9375 7.703125 -2.375 C 7.941406 -2.65625 8.117188 -2.96875 8.234375 -3.3125 C 8.347656 -3.664062 8.40625 -4.113281 8.40625 -4.65625 L 8.40625 -5.453125 C 7.84375 -5.234375 6.957031 -5.023438 5.75 -4.828125 Z M 5.75 -4.828125 "/></g></g></g><g fill="#ffffff" fill-opacity="1"><g transform="translate(197.859604, 306.43026)"><g><path d="M 5.390625 -11.125 C 6.023438 -11.125 6.648438 -10.929688 7.265625 -10.546875 L 6.640625 -8.84375 C 6.191406 -9.101562 5.722656 -9.234375 5.234375 -9.234375 C 4.523438 -9.234375 4.003906 -8.914062 3.671875 -8.28125 C 3.347656 -7.644531 3.1875 -6.820312 3.1875 -5.8125 L 3.1875 0 L 1.34375 0 L 1.34375 -10.875 L 3 -10.875 L 3 -9.234375 C 3.351562 -9.867188 3.703125 -10.34375 4.046875 -10.65625 C 4.390625 -10.96875 4.835938 -11.125 5.390625 -11.125 Z M 5.390625 -11.125 "/></g></g></g><g fill="#ffffff" fill-opacity="1"><g transform="translate(204.852631, 306.43026)"><g><path d="M 10.203125 -15.03125 L 10.203125 0 L 8.484375 0 L 8.484375 -1.390625 C 8.273438 -1.023438 7.921875 -0.660156 7.421875 -0.296875 C 6.921875 0.0546875 6.265625 0.234375 5.453125 0.234375 C 4.578125 0.234375 3.78125 0 3.0625 -0.46875 C 2.351562 -0.9375 1.789062 -1.601562 1.375 -2.46875 C 0.957031 -3.34375 0.75 -4.351562 0.75 -5.5 C 0.75 -6.644531 0.941406 -7.640625 1.328125 -8.484375 C 1.710938 -9.335938 2.257812 -9.988281 2.96875 -10.4375 C 3.675781 -10.894531 4.5 -11.125 5.4375 -11.125 C 6.125 -11.125 6.722656 -10.960938 7.234375 -10.640625 C 7.742188 -10.316406 8.117188 -9.984375 8.359375 -9.640625 L 8.359375 -15.03125 Z M 2.640625 -5.4375 C 2.640625 -4.539062 2.769531 -3.78125 3.03125 -3.15625 C 3.300781 -2.53125 3.664062 -2.0625 4.125 -1.75 C 4.582031 -1.4375 5.082031 -1.28125 5.625 -1.28125 C 6.476562 -1.28125 7.175781 -1.625 7.71875 -2.3125 C 8.257812 -3 8.53125 -3.984375 8.53125 -5.265625 C 8.53125 -6.585938 8.269531 -7.644531 7.75 -8.4375 C 7.226562 -9.226562 6.492188 -9.625 5.546875 -9.625 C 4.628906 -9.625 3.914062 -9.25 3.40625 -8.5 C 2.894531 -7.757812 2.640625 -6.738281 2.640625 -5.4375 Z M 2.640625 -5.4375 "/></g></g></g><g fill="#ffffff" fill-opacity="1"><g transform="translate(216.528682, 306.43026)"><g/></g></g><g fill="#ffffff" fill-opacity="1"><g transform="translate(222.366702, 306.43026)"><g><path d="M 8.171875 -15.28125 C 9.691406 -15.28125 10.960938 -14.890625 11.984375 -14.109375 C 13.015625 -13.328125 13.722656 -12.257812 14.109375 -10.90625 L 12.140625 -10.4375 C 11.816406 -11.445312 11.332031 -12.222656 10.6875 -12.765625 C 10.039062 -13.316406 9.1875 -13.59375 8.125 -13.59375 C 6.5625 -13.59375 5.335938 -13.070312 4.453125 -12.03125 C 3.566406 -11 3.125 -9.53125 3.125 -7.625 C 3.125 -5.632812 3.554688 -4.109375 4.421875 -3.046875 C 5.285156 -1.984375 6.484375 -1.453125 8.015625 -1.453125 C 9.109375 -1.453125 10.039062 -1.773438 10.8125 -2.421875 C 11.582031 -3.078125 12.101562 -4.023438 12.375 -5.265625 L 14.359375 -4.765625 C 13.941406 -3.179688 13.191406 -1.945312 12.109375 -1.0625 C 11.035156 -0.1875 9.691406 0.25 8.078125 0.25 C 6.972656 0.25 6.03125 0.101562 5.25 -0.1875 C 4.46875 -0.476562 3.800781 -0.910156 3.25 -1.484375 C 2.5 -2.285156 1.945312 -3.21875 1.59375 -4.28125 C 1.25 -5.34375 1.078125 -6.457031 1.078125 -7.625 C 1.078125 -9.175781 1.375 -10.53125 1.96875 -11.6875 C 2.5625 -12.84375 3.390625 -13.726562 4.453125 -14.34375 C 5.523438 -14.96875 6.765625 -15.28125 8.171875 -15.28125 Z M 8.171875 -15.28125 "/></g></g></g><g fill="#ffffff" fill-opacity="1"><g transform="translate(237.52876, 306.43026)"><g><path d="M 5.90625 -11.125 C 6.945312 -11.125 7.84375 -10.875 8.59375 -10.375 C 9.34375 -9.882812 9.90625 -9.21875 10.28125 -8.375 C 10.664062 -7.539062 10.859375 -6.601562 10.859375 -5.5625 L 10.859375 -4.984375 L 2.734375 -4.984375 C 2.785156 -3.816406 3.113281 -2.90625 3.71875 -2.25 C 4.320312 -1.601562 5.09375 -1.28125 6.03125 -1.28125 C 6.738281 -1.28125 7.328125 -1.46875 7.796875 -1.84375 C 8.265625 -2.226562 8.628906 -2.78125 8.890625 -3.5 L 10.796875 -3.28125 C 10.503906 -2.1875 9.945312 -1.328125 9.125 -0.703125 C 8.300781 -0.078125 7.296875 0.234375 6.109375 0.234375 C 4.441406 0.234375 3.140625 -0.253906 2.203125 -1.234375 C 1.273438 -2.210938 0.8125 -3.585938 0.8125 -5.359375 C 0.8125 -6.535156 1.019531 -7.554688 1.4375 -8.421875 C 1.863281 -9.285156 2.457031 -9.953125 3.21875 -10.421875 C 3.988281 -10.890625 4.882812 -11.125 5.90625 -11.125 Z M 2.828125 -6.515625 L 8.90625 -6.515625 C 8.863281 -7.546875 8.546875 -8.320312 7.953125 -8.84375 C 7.359375 -9.363281 6.675781 -9.625 5.90625 -9.625 C 5.03125 -9.625 4.316406 -9.328125 3.765625 -8.734375 C 3.210938 -8.148438 2.898438 -7.410156 2.828125 -6.515625 Z M 2.828125 -6.515625 "/></g></g></g><g fill="#ffffff" fill-opacity="1"><g transform="translate(249.204823, 306.43026)"><g><path d="M 5.390625 -11.125 C 6.023438 -11.125 6.648438 -10.929688 7.265625 -10.546875 L 6.640625 -8.84375 C 6.191406 -9.101562 5.722656 -9.234375 5.234375 -9.234375 C 4.523438 -9.234375 4.003906 -8.914062 3.671875 -8.28125 C 3.347656 -7.644531 3.1875 -6.820312 3.1875 -5.8125 L 3.1875 0 L 1.34375 0 L 1.34375 -10.875 L 3 -10.875 L 3 -9.234375 C 3.351562 -9.867188 3.703125 -10.34375 4.046875 -10.65625 C 4.390625 -10.96875 4.835938 -11.125 5.390625 -11.125 Z M 5.390625 -11.125 "/></g></g></g><g fill="#ffffff" fill-opacity="1"><g transform="translate(256.197849, 306.43026)"><g><path d="M 3.546875 -10.875 L 5.390625 -10.875 L 5.390625 -9.484375 L 3.546875 -9.484375 L 3.546875 -2.75 C 3.546875 -2.269531 3.613281 -1.929688 3.75 -1.734375 C 3.882812 -1.546875 4.160156 -1.453125 4.578125 -1.453125 C 4.671875 -1.453125 4.941406 -1.484375 5.390625 -1.546875 L 5.671875 0.078125 C 5.109375 0.191406 4.65625 0.25 4.3125 0.25 C 3.59375 0.25 3.039062 0.132812 2.65625 -0.09375 C 2.28125 -0.320312 2.023438 -0.644531 1.890625 -1.0625 C 1.765625 -1.476562 1.703125 -2.015625 1.703125 -2.671875 L 1.703125 -9.484375 L 0.359375 -9.484375 L 0.359375 -10.875 L 1.703125 -10.875 L 1.703125 -13.59375 L 3.546875 -14.703125 Z M 3.546875 -10.875 "/></g></g></g><g fill="#ffffff" fill-opacity="1"><g transform="translate(262.035869, 306.43026)"><g><path d="M 3.25 -12.9375 L 1.40625 -12.9375 L 1.40625 -15.03125 L 3.25 -15.03125 Z M 3.25 0 L 1.40625 0 L 1.40625 -10.875 L 3.25 -10.875 Z M 3.25 0 "/></g></g></g><g fill="#ffffff" fill-opacity="1"><g transform="translate(266.697894, 306.43026)"><g><path d="M 4.84375 -15.28125 C 5.320312 -15.28125 5.882812 -15.21875 6.53125 -15.09375 L 6.265625 -13.484375 C 5.878906 -13.554688 5.515625 -13.59375 5.171875 -13.59375 C 4.617188 -13.59375 4.226562 -13.472656 4 -13.234375 C 3.769531 -12.992188 3.65625 -12.578125 3.65625 -11.984375 L 3.65625 -10.875 L 5.75 -10.875 L 5.75 -9.484375 L 3.65625 -9.484375 L 3.65625 0 L 1.8125 0 L 1.8125 -9.484375 L 0.171875 -9.484375 L 0.171875 -10.875 L 1.8125 -10.875 L 1.8125 -12.15625 C 1.8125 -13.28125 2.0625 -14.082031 2.5625 -14.5625 C 3.0625 -15.039062 3.820312 -15.28125 4.84375 -15.28125 Z M 4.84375 -15.28125 "/></g></g></g><g fill="#ffffff" fill-opacity="1"><g transform="translate(272.535914, 306.43026)"><g><path d="M 3.25 -12.9375 L 1.40625 -12.9375 L 1.40625 -15.03125 L 3.25 -15.03125 Z M 3.25 0 L 1.40625 0 L 1.40625 -10.875 L 3.25 -10.875 Z M 3.25 0 "/></g></g></g><g fill="#ffffff" fill-opacity="1"><g transform="translate(277.197939, 306.43026)"><g><path d="M 5.96875 -11.125 C 7.039062 -11.125 7.945312 -10.828125 8.6875 -10.234375 C 9.4375 -9.640625 9.914062 -8.789062 10.125 -7.6875 L 8.34375 -7.40625 C 8.1875 -8.070312 7.90625 -8.609375 7.5 -9.015625 C 7.09375 -9.421875 6.546875 -9.625 5.859375 -9.625 C 4.878906 -9.625 4.109375 -9.269531 3.546875 -8.5625 C 2.984375 -7.863281 2.703125 -6.84375 2.703125 -5.5 C 2.703125 -4.125 2.960938 -3.078125 3.484375 -2.359375 C 4.015625 -1.640625 4.769531 -1.28125 5.75 -1.28125 C 6.550781 -1.28125 7.175781 -1.519531 7.625 -2 C 8.070312 -2.488281 8.359375 -3.148438 8.484375 -3.984375 L 10.3125 -3.765625 C 10.113281 -2.503906 9.601562 -1.519531 8.78125 -0.8125 C 7.96875 -0.113281 6.957031 0.234375 5.75 0.234375 C 4.195312 0.234375 2.984375 -0.269531 2.109375 -1.28125 C 1.242188 -2.300781 0.8125 -3.738281 0.8125 -5.59375 C 0.8125 -7.320312 1.269531 -8.675781 2.1875 -9.65625 C 3.101562 -10.632812 4.363281 -11.125 5.96875 -11.125 Z M 5.96875 -11.125 "/></g></g></g><g fill="#ffffff" fill-opacity="1"><g transform="translate(287.697984, 306.43026)"><g><path d="M 5.96875 -11.125 C 6.863281 -11.125 7.585938 -11.035156 8.140625 -10.859375 C 8.691406 -10.691406 9.128906 -10.4375 9.453125 -10.09375 C 9.753906 -9.78125 9.960938 -9.425781 10.078125 -9.03125 C 10.191406 -8.632812 10.25 -8.113281 10.25 -7.46875 L 10.25 -3.09375 C 10.25 -1.675781 10.445312 -0.644531 10.84375 0 L 8.90625 0 C 8.71875 -0.375 8.59375 -0.820312 8.53125 -1.34375 C 7.851562 -0.78125 7.195312 -0.375 6.5625 -0.125 C 5.925781 0.125 5.265625 0.25 4.578125 0.25 C 3.398438 0.25 2.472656 -0.0351562 1.796875 -0.609375 C 1.128906 -1.179688 0.796875 -1.9375 0.796875 -2.875 C 0.796875 -3.363281 0.90625 -3.835938 1.125 -4.296875 C 1.351562 -4.753906 1.664062 -5.109375 2.0625 -5.359375 C 2.476562 -5.640625 2.898438 -5.84375 3.328125 -5.96875 C 3.765625 -6.09375 4.300781 -6.191406 4.9375 -6.265625 C 5.601562 -6.328125 6.269531 -6.414062 6.9375 -6.53125 C 7.601562 -6.65625 8.09375 -6.78125 8.40625 -6.90625 L 8.40625 -7.375 C 8.40625 -8.113281 8.203125 -8.671875 7.796875 -9.046875 C 7.398438 -9.429688 6.71875 -9.625 5.75 -9.625 C 4.84375 -9.625 4.1875 -9.460938 3.78125 -9.140625 C 3.382812 -8.816406 3.097656 -8.28125 2.921875 -7.53125 L 1.109375 -7.765625 C 1.359375 -8.941406 1.882812 -9.796875 2.6875 -10.328125 C 3.5 -10.859375 4.59375 -11.125 5.96875 -11.125 Z M 5.75 -4.828125 C 5.039062 -4.710938 4.492188 -4.601562 4.109375 -4.5 C 3.722656 -4.394531 3.398438 -4.21875 3.140625 -3.96875 C 2.890625 -3.726562 2.765625 -3.378906 2.765625 -2.921875 C 2.765625 -2.367188 2.960938 -1.941406 3.359375 -1.640625 C 3.765625 -1.347656 4.332031 -1.203125 5.0625 -1.203125 C 5.476562 -1.203125 5.929688 -1.285156 6.421875 -1.453125 C 6.910156 -1.628906 7.335938 -1.9375 7.703125 -2.375 C 7.941406 -2.65625 8.117188 -2.96875 8.234375 -3.3125 C 8.347656 -3.664062 8.40625 -4.113281 8.40625 -4.65625 L 8.40625 -5.453125 C 7.84375 -5.234375 6.957031 -5.023438 5.75 -4.828125 Z M 5.75 -4.828125 "/></g></g></g><g fill="#ffffff" fill-opacity="1"><g transform="translate(299.374024, 306.43026)"><g><path d="M 3.546875 -10.875 L 5.390625 -10.875 L 5.390625 -9.484375 L 3.546875 -9.484375 L 3.546875 -2.75 C 3.546875 -2.269531 3.613281 -1.929688 3.75 -1.734375 C 3.882812 -1.546875 4.160156 -1.453125 4.578125 -1.453125 C 4.671875 -1.453125 4.941406 -1.484375 5.390625 -1.546875 L 5.671875 0.078125 C 5.109375 0.191406 4.65625 0.25 4.3125 0.25 C 3.59375 0.25 3.039062 0.132812 2.65625 -0.09375 C 2.28125 -0.320312 2.023438 -0.644531 1.890625 -1.0625 C 1.765625 -1.476562 1.703125 -2.015625 1.703125 -2.671875 L 1.703125 -9.484375 L 0.359375 -9.484375 L 0.359375 -10.875 L 1.703125 -10.875 L 1.703125 -13.59375 L 3.546875 -14.703125 Z M 3.546875 -10.875 "/></g></g></g><g fill="#ffffff" fill-opacity="1"><g transform="translate(305.212043, 306.43026)"><g><path d="M 3.25 -12.9375 L 1.40625 -12.9375 L 1.40625 -15.03125 L 3.25 -15.03125 Z M 3.25 0 L 1.40625 0 L 1.40625 -10.875 L 3.25 -10.875 Z M 3.25 0 "/></g></g></g><g fill="#ffffff" fill-opacity="1"><g transform="translate(309.874069, 306.43026)"><g><path d="M 5.84375 -11.125 C 6.664062 -11.125 7.460938 -10.941406 8.234375 -10.578125 C 9.015625 -10.210938 9.660156 -9.609375 10.171875 -8.765625 C 10.679688 -7.921875 10.9375 -6.8125 10.9375 -5.4375 C 10.9375 -4.21875 10.71875 -3.1875 10.28125 -2.34375 C 9.851562 -1.5 9.253906 -0.859375 8.484375 -0.421875 C 7.710938 0.015625 6.832031 0.234375 5.84375 0.234375 C 4.382812 0.234375 3.191406 -0.222656 2.265625 -1.140625 C 1.242188 -2.128906 0.734375 -3.5625 0.734375 -5.4375 C 0.734375 -6.65625 0.945312 -7.691406 1.375 -8.546875 C 1.8125 -9.398438 2.414062 -10.039062 3.1875 -10.46875 C 3.957031 -10.90625 4.84375 -11.125 5.84375 -11.125 Z M 2.625 -5.4375 C 2.625 -4.125 2.914062 -3.101562 3.5 -2.375 C 4.082031 -1.644531 4.863281 -1.28125 5.84375 -1.28125 C 6.800781 -1.28125 7.570312 -1.640625 8.15625 -2.359375 C 8.75 -3.078125 9.046875 -4.101562 9.046875 -5.4375 C 9.046875 -6.726562 8.757812 -7.75 8.1875 -8.5 C 7.613281 -9.25 6.820312 -9.625 5.8125 -9.625 C 4.863281 -9.625 4.09375 -9.253906 3.5 -8.515625 C 2.914062 -7.773438 2.625 -6.75 2.625 -5.4375 Z M 2.625 -5.4375 "/></g></g></g><g fill="#ffffff" fill-opacity="1"><g transform="translate(321.550108, 306.43026)"><g><path d="M 6.546875 -11.125 C 7.335938 -11.125 8.015625 -10.96875 8.578125 -10.65625 C 9.140625 -10.351562 9.554688 -9.960938 9.828125 -9.484375 C 9.992188 -9.171875 10.113281 -8.828125 10.1875 -8.453125 C 10.257812 -8.078125 10.296875 -7.613281 10.296875 -7.0625 L 10.296875 0 L 8.4375 0 L 8.4375 -6.71875 C 8.4375 -8.59375 7.675781 -9.53125 6.15625 -9.53125 C 5.582031 -9.53125 5.050781 -9.390625 4.5625 -9.109375 C 4.082031 -8.828125 3.738281 -8.421875 3.53125 -7.890625 C 3.363281 -7.441406 3.28125 -6.84375 3.28125 -6.09375 L 3.28125 0 L 1.421875 0 L 1.421875 -10.875 L 3.09375 -10.875 L 3.09375 -9.34375 C 3.914062 -10.53125 5.066406 -11.125 6.546875 -11.125 Z M 6.546875 -11.125 "/></g></g></g></svg>