<svg xmlns="http://www.w3.org/2000/svg" xmlns:xlink="http://www.w3.org/1999/xlink" width="512" zoomAndPan="magnify" viewBox="0 0 384 383.999986" height="512" preserveAspectRatio="xMidYMid meet" version="1.0"><defs><g/><clipPath id="e74e9722bb"><path d="M 97.367188 88.273438 L 286.632812 88.273438 L 286.632812 277.535156 L 97.367188 277.535156 Z M 97.367188 88.273438 " clip-rule="nonzero"/></clipPath><clipPath id="47a9332e41"><path d="M 192 88.273438 C 139.738281 88.273438 97.367188 130.640625 97.367188 182.90625 C 97.367188 235.167969 139.738281 277.535156 192 277.535156 C 244.261719 277.535156 286.632812 235.167969 286.632812 182.90625 C 286.632812 130.640625 244.261719 88.273438 192 88.273438 Z M 192 88.273438 " clip-rule="nonzero"/></clipPath><clipPath id="924a1b3201"><path d="M 116 108.199219 L 268.949219 108.199219 L 268.949219 252 L 116 252 Z M 116 108.199219 " clip-rule="nonzero"/></clipPath></defs><g clip-path="url(#e74e9722bb)"><g clip-path="url(#47a9332e41)"><path fill="#ffffff" d="M 97.367188 88.273438 L 286.632812 88.273438 L 286.632812 277.535156 L 97.367188 277.535156 Z M 97.367188 88.273438 " fill-opacity="1" fill-rule="nonzero"/></g></g><g clip-path="url(#924a1b3201)"><path fill="#f38526" d="M 189.625 161.992188 C 184.707031 157.070312 176.703125 157.070312 171.78125 161.992188 C 166.859375 166.910156 166.859375 174.914062 171.78125 179.835938 C 176.703125 184.753906 184.707031 184.753906 189.625 179.835938 C 194.546875 174.914062 194.546875 166.910156 189.625 161.992188 Z M 165.855469 216.078125 L 165.855469 209.703125 C 165.855469 208.351562 166.929688 207.277344 168.28125 207.277344 C 169.632812 207.277344 170.707031 208.351562 170.707031 209.703125 L 170.707031 216.078125 L 190.699219 216.078125 L 190.699219 209.703125 C 190.699219 208.351562 191.773438 207.277344 193.125 207.277344 C 194.476562 207.277344 195.550781 208.351562 195.550781 209.703125 L 195.550781 216.078125 L 202.617188 216.078125 L 202.617188 201.523438 C 202.617188 195.875 197.976562 191.269531 192.363281 191.269531 L 169.078125 191.269531 C 163.429688 191.269531 158.824219 195.875 158.824219 201.523438 L 158.824219 216.078125 Z M 196.832031 116.53125 L 207.574219 123.703125 C 209.0625 124.675781 209.027344 126.789062 207.609375 127.757812 L 186.195312 142.066406 C 184.394531 143.382812 182.246094 142.03125 182.246094 140.160156 L 182.246094 128.070312 C 152.792969 127.308594 127.121094 148.339844 122.304688 177.582031 C 120.15625 190.714844 122.40625 204.574219 129.441406 216.769531 C 143.578125 241.199219 172.960938 252.285156 199.671875 243.207031 C 226.386719 234.164062 243.019531 207.484375 239.347656 179.523438 C 239.171875 178.207031 240.109375 176.992188 241.425781 176.820312 C 242.742188 176.648438 243.953125 177.582031 244.128906 178.898438 C 248.078125 209.183594 230.09375 238.007812 201.199219 247.78125 C 172.300781 257.585938 140.492188 245.597656 125.25 219.160156 C 117.625 205.925781 115.199219 190.957031 117.519531 176.75 C 122.71875 145.1875 150.4375 122.386719 182.210938 123.148438 L 182.210938 111.335938 C 182.210938 109.464844 184.359375 108.214844 185.988281 109.324219 Z M 209.203125 154.054688 C 208.265625 153.121094 206.8125 154.539062 207.746094 155.511719 C 208.71875 156.445312 210.171875 155.027344 209.203125 154.054688 Z M 257.46875 137.183594 L 241.773438 130.597656 L 214.746094 141.964844 L 241.773438 153.328125 L 268.796875 141.964844 Z M 259.097656 151.25 L 242.707031 158.144531 C 242.082031 158.421875 241.425781 158.386719 240.835938 158.144531 L 224.449219 151.25 L 224.449219 160.015625 L 241.773438 168.433594 L 259.097656 160.015625 Z M 259.097656 151.25 " fill-opacity="1" fill-rule="nonzero"/></g><g fill="#ffffff" fill-opacity="1"><g transform="translate(73.537501, 315.524975)"><g><path d="M 11.578125 -14.046875 C 12.078125 -13.640625 12.453125 -13.144531 12.703125 -12.5625 C 12.953125 -11.988281 13.078125 -11.398438 13.078125 -10.796875 C 13.078125 -9.128906 12.484375 -7.867188 11.296875 -7.015625 C 10.492188 -6.421875 9.269531 -6.125 7.625 -6.125 L 3.609375 -6.125 L 3.609375 0 L 1.609375 0 L 1.609375 -15.03125 L 7.609375 -15.03125 C 8.566406 -15.03125 9.347656 -14.957031 9.953125 -14.8125 C 10.554688 -14.675781 11.097656 -14.421875 11.578125 -14.046875 Z M 11.03125 -10.75 C 11.03125 -11.0625 10.953125 -11.394531 10.796875 -11.75 C 10.648438 -12.101562 10.453125 -12.394531 10.203125 -12.625 C 9.921875 -12.875 9.597656 -13.039062 9.234375 -13.125 C 8.867188 -13.21875 8.390625 -13.265625 7.796875 -13.265625 L 3.609375 -13.265625 L 3.609375 -7.890625 L 7.609375 -7.890625 C 8.765625 -7.890625 9.625 -8.117188 10.1875 -8.578125 C 10.75 -9.046875 11.03125 -9.769531 11.03125 -10.75 Z M 11.03125 -10.75 "/></g></g></g><g fill="#ffffff" fill-opacity="1"><g transform="translate(87.544554, 315.524975)"><g><path d="M 5.90625 -11.125 C 6.945312 -11.125 7.84375 -10.875 8.59375 -10.375 C 9.34375 -9.882812 9.90625 -9.21875 10.28125 -8.375 C 10.664062 -7.539062 10.859375 -6.601562 10.859375 -5.5625 L 10.859375 -4.984375 L 2.734375 -4.984375 C 2.785156 -3.816406 3.113281 -2.90625 3.71875 -2.25 C 4.320312 -1.601562 5.09375 -1.28125 6.03125 -1.28125 C 6.738281 -1.28125 7.328125 -1.46875 7.796875 -1.84375 C 8.265625 -2.226562 8.628906 -2.78125 8.890625 -3.5 L 10.796875 -3.28125 C 10.503906 -2.1875 9.945312 -1.328125 9.125 -0.703125 C 8.300781 -0.078125 7.296875 0.234375 6.109375 0.234375 C 4.441406 0.234375 3.140625 -0.253906 2.203125 -1.234375 C 1.273438 -2.210938 0.8125 -3.585938 0.8125 -5.359375 C 0.8125 -6.535156 1.019531 -7.554688 1.4375 -8.421875 C 1.863281 -9.285156 2.457031 -9.953125 3.21875 -10.421875 C 3.988281 -10.890625 4.882812 -11.125 5.90625 -11.125 Z M 2.828125 -6.515625 L 8.90625 -6.515625 C 8.863281 -7.546875 8.546875 -8.320312 7.953125 -8.84375 C 7.359375 -9.363281 6.675781 -9.625 5.90625 -9.625 C 5.03125 -9.625 4.316406 -9.328125 3.765625 -8.734375 C 3.210938 -8.148438 2.898438 -7.410156 2.828125 -6.515625 Z M 2.828125 -6.515625 "/></g></g></g><g fill="#ffffff" fill-opacity="1"><g transform="translate(99.220605, 315.524975)"><g><path d="M 5.390625 -11.125 C 6.023438 -11.125 6.648438 -10.929688 7.265625 -10.546875 L 6.640625 -8.84375 C 6.191406 -9.101562 5.722656 -9.234375 5.234375 -9.234375 C 4.523438 -9.234375 4.003906 -8.914062 3.671875 -8.28125 C 3.347656 -7.644531 3.1875 -6.820312 3.1875 -5.8125 L 3.1875 0 L 1.34375 0 L 1.34375 -10.875 L 3 -10.875 L 3 -9.234375 C 3.351562 -9.867188 3.703125 -10.34375 4.046875 -10.65625 C 4.390625 -10.96875 4.835938 -11.125 5.390625 -11.125 Z M 5.390625 -11.125 "/></g></g></g><g fill="#ffffff" fill-opacity="1"><g transform="translate(106.213631, 315.524975)"><g><path d="M 5 -11.125 C 6.226562 -11.125 7.21875 -10.867188 7.96875 -10.359375 C 8.726562 -9.847656 9.164062 -9.085938 9.28125 -8.078125 L 7.46875 -7.828125 C 7.382812 -8.378906 7.15625 -8.816406 6.78125 -9.140625 C 6.40625 -9.460938 5.847656 -9.625 5.109375 -9.625 C 4.359375 -9.625 3.773438 -9.492188 3.359375 -9.234375 C 2.953125 -8.984375 2.75 -8.632812 2.75 -8.1875 C 2.75 -7.882812 2.867188 -7.628906 3.109375 -7.421875 C 3.359375 -7.222656 3.648438 -7.066406 3.984375 -6.953125 C 4.328125 -6.847656 4.835938 -6.710938 5.515625 -6.546875 C 6.398438 -6.335938 7.117188 -6.128906 7.671875 -5.921875 C 8.222656 -5.710938 8.695312 -5.390625 9.09375 -4.953125 C 9.5 -4.523438 9.703125 -3.945312 9.703125 -3.21875 C 9.703125 -2.582031 9.523438 -2 9.171875 -1.46875 C 8.828125 -0.945312 8.328125 -0.53125 7.671875 -0.21875 C 7.023438 0.0820312 6.28125 0.234375 5.4375 0.234375 C 3.976562 0.234375 2.863281 -0.0507812 2.09375 -0.625 C 1.320312 -1.195312 0.84375 -2.070312 0.65625 -3.25 L 2.484375 -3.53125 C 2.578125 -2.789062 2.867188 -2.226562 3.359375 -1.84375 C 3.859375 -1.46875 4.503906 -1.28125 5.296875 -1.28125 C 6.085938 -1.28125 6.703125 -1.441406 7.140625 -1.765625 C 7.585938 -2.097656 7.8125 -2.507812 7.8125 -3 C 7.8125 -3.46875 7.585938 -3.8125 7.140625 -4.03125 C 6.703125 -4.257812 6.03125 -4.476562 5.125 -4.6875 C 4.226562 -4.894531 3.507812 -5.097656 2.96875 -5.296875 C 2.425781 -5.503906 1.957031 -5.820312 1.5625 -6.25 C 1.164062 -6.6875 0.96875 -7.269531 0.96875 -8 C 0.96875 -8.59375 1.125 -9.125 1.4375 -9.59375 C 1.75 -10.070312 2.207031 -10.445312 2.8125 -10.71875 C 3.425781 -10.988281 4.15625 -11.125 5 -11.125 Z M 5 -11.125 "/></g></g></g><g fill="#ffffff" fill-opacity="1"><g transform="translate(116.713676, 315.524975)"><g><path d="M 5.84375 -11.125 C 6.664062 -11.125 7.460938 -10.941406 8.234375 -10.578125 C 9.015625 -10.210938 9.660156 -9.609375 10.171875 -8.765625 C 10.679688 -7.921875 10.9375 -6.8125 10.9375 -5.4375 C 10.9375 -4.21875 10.71875 -3.1875 10.28125 -2.34375 C 9.851562 -1.5 9.253906 -0.859375 8.484375 -0.421875 C 7.710938 0.015625 6.832031 0.234375 5.84375 0.234375 C 4.382812 0.234375 3.191406 -0.222656 2.265625 -1.140625 C 1.242188 -2.128906 0.734375 -3.5625 0.734375 -5.4375 C 0.734375 -6.65625 0.945312 -7.691406 1.375 -8.546875 C 1.8125 -9.398438 2.414062 -10.039062 3.1875 -10.46875 C 3.957031 -10.90625 4.84375 -11.125 5.84375 -11.125 Z M 2.625 -5.4375 C 2.625 -4.125 2.914062 -3.101562 3.5 -2.375 C 4.082031 -1.644531 4.863281 -1.28125 5.84375 -1.28125 C 6.800781 -1.28125 7.570312 -1.640625 8.15625 -2.359375 C 8.75 -3.078125 9.046875 -4.101562 9.046875 -5.4375 C 9.046875 -6.726562 8.757812 -7.75 8.1875 -8.5 C 7.613281 -9.25 6.820312 -9.625 5.8125 -9.625 C 4.863281 -9.625 4.09375 -9.253906 3.5 -8.515625 C 2.914062 -7.773438 2.625 -6.75 2.625 -5.4375 Z M 2.625 -5.4375 "/></g></g></g><g fill="#ffffff" fill-opacity="1"><g transform="translate(128.389727, 315.524975)"><g><path d="M 6.546875 -11.125 C 7.335938 -11.125 8.015625 -10.96875 8.578125 -10.65625 C 9.140625 -10.351562 9.554688 -9.960938 9.828125 -9.484375 C 9.992188 -9.171875 10.113281 -8.828125 10.1875 -8.453125 C 10.257812 -8.078125 10.296875 -7.613281 10.296875 -7.0625 L 10.296875 0 L 8.4375 0 L 8.4375 -6.71875 C 8.4375 -8.59375 7.675781 -9.53125 6.15625 -9.53125 C 5.582031 -9.53125 5.050781 -9.390625 4.5625 -9.109375 C 4.082031 -8.828125 3.738281 -8.421875 3.53125 -7.890625 C 3.363281 -7.441406 3.28125 -6.84375 3.28125 -6.09375 L 3.28125 0 L 1.421875 0 L 1.421875 -10.875 L 3.09375 -10.875 L 3.09375 -9.34375 C 3.914062 -10.53125 5.066406 -11.125 6.546875 -11.125 Z M 6.546875 -11.125 "/></g></g></g><g fill="#ffffff" fill-opacity="1"><g transform="translate(140.065778, 315.524975)"><g><path d="M 5.96875 -11.125 C 6.863281 -11.125 7.585938 -11.035156 8.140625 -10.859375 C 8.691406 -10.691406 9.128906 -10.4375 9.453125 -10.09375 C 9.753906 -9.78125 9.960938 -9.425781 10.078125 -9.03125 C 10.191406 -8.632812 10.25 -8.113281 10.25 -7.46875 L 10.25 -3.09375 C 10.25 -1.675781 10.445312 -0.644531 10.84375 0 L 8.90625 0 C 8.71875 -0.375 8.59375 -0.820312 8.53125 -1.34375 C 7.851562 -0.78125 7.195312 -0.375 6.5625 -0.125 C 5.925781 0.125 5.265625 0.25 4.578125 0.25 C 3.398438 0.25 2.472656 -0.0351562 1.796875 -0.609375 C 1.128906 -1.179688 0.796875 -1.9375 0.796875 -2.875 C 0.796875 -3.363281 0.90625 -3.835938 1.125 -4.296875 C 1.351562 -4.753906 1.664062 -5.109375 2.0625 -5.359375 C 2.476562 -5.640625 2.898438 -5.84375 3.328125 -5.96875 C 3.765625 -6.09375 4.300781 -6.191406 4.9375 -6.265625 C 5.601562 -6.328125 6.269531 -6.414062 6.9375 -6.53125 C 7.601562 -6.65625 8.09375 -6.78125 8.40625 -6.90625 L 8.40625 -7.375 C 8.40625 -8.113281 8.203125 -8.671875 7.796875 -9.046875 C 7.398438 -9.429688 6.71875 -9.625 5.75 -9.625 C 4.84375 -9.625 4.1875 -9.460938 3.78125 -9.140625 C 3.382812 -8.816406 3.097656 -8.28125 2.921875 -7.53125 L 1.109375 -7.765625 C 1.359375 -8.941406 1.882812 -9.796875 2.6875 -10.328125 C 3.5 -10.859375 4.59375 -11.125 5.96875 -11.125 Z M 5.75 -4.828125 C 5.039062 -4.710938 4.492188 -4.601562 4.109375 -4.5 C 3.722656 -4.394531 3.398438 -4.21875 3.140625 -3.96875 C 2.890625 -3.726562 2.765625 -3.378906 2.765625 -2.921875 C 2.765625 -2.367188 2.960938 -1.941406 3.359375 -1.640625 C 3.765625 -1.347656 4.332031 -1.203125 5.0625 -1.203125 C 5.476562 -1.203125 5.929688 -1.285156 6.421875 -1.453125 C 6.910156 -1.628906 7.335938 -1.9375 7.703125 -2.375 C 7.941406 -2.65625 8.117188 -2.96875 8.234375 -3.3125 C 8.347656 -3.664062 8.40625 -4.113281 8.40625 -4.65625 L 8.40625 -5.453125 C 7.84375 -5.234375 6.957031 -5.023438 5.75 -4.828125 Z M 5.75 -4.828125 "/></g></g></g><g fill="#ffffff" fill-opacity="1"><g transform="translate(151.741829, 315.524975)"><g><path d="M 3.25 0 L 1.40625 0 L 1.40625 -15.03125 L 3.25 -15.03125 Z M 3.25 0 "/></g></g></g><g fill="#ffffff" fill-opacity="1"><g transform="translate(156.403843, 315.524975)"><g><path d="M 3.25 -12.9375 L 1.40625 -12.9375 L 1.40625 -15.03125 L 3.25 -15.03125 Z M 3.25 0 L 1.40625 0 L 1.40625 -10.875 L 3.25 -10.875 Z M 3.25 0 "/></g></g></g><g fill="#ffffff" fill-opacity="1"><g transform="translate(161.065857, 315.524975)"><g><path d="M 9.75 -9.6875 L 3.84375 -2.765625 C 3.707031 -2.597656 3.457031 -2.320312 3.09375 -1.9375 L 2.6875 -1.484375 C 3.613281 -1.554688 4.34375 -1.59375 4.875 -1.59375 L 10.0625 -1.59375 L 10.0625 0 L 0.421875 0 L 0.421875 -1.484375 L 7.34375 -9.453125 C 6.3125 -9.378906 5.65625 -9.34375 5.375 -9.34375 L 0.84375 -9.34375 L 0.84375 -10.875 L 9.75 -10.875 Z M 9.75 -9.6875 "/></g></g></g><g fill="#ffffff" fill-opacity="1"><g transform="translate(171.565902, 315.524975)"><g><path d="M 5.90625 -11.125 C 6.945312 -11.125 7.84375 -10.875 8.59375 -10.375 C 9.34375 -9.882812 9.90625 -9.21875 10.28125 -8.375 C 10.664062 -7.539062 10.859375 -6.601562 10.859375 -5.5625 L 10.859375 -4.984375 L 2.734375 -4.984375 C 2.785156 -3.816406 3.113281 -2.90625 3.71875 -2.25 C 4.320312 -1.601562 5.09375 -1.28125 6.03125 -1.28125 C 6.738281 -1.28125 7.328125 -1.46875 7.796875 -1.84375 C 8.265625 -2.226562 8.628906 -2.78125 8.890625 -3.5 L 10.796875 -3.28125 C 10.503906 -2.1875 9.945312 -1.328125 9.125 -0.703125 C 8.300781 -0.078125 7.296875 0.234375 6.109375 0.234375 C 4.441406 0.234375 3.140625 -0.253906 2.203125 -1.234375 C 1.273438 -2.210938 0.8125 -3.585938 0.8125 -5.359375 C 0.8125 -6.535156 1.019531 -7.554688 1.4375 -8.421875 C 1.863281 -9.285156 2.457031 -9.953125 3.21875 -10.421875 C 3.988281 -10.890625 4.882812 -11.125 5.90625 -11.125 Z M 2.828125 -6.515625 L 8.90625 -6.515625 C 8.863281 -7.546875 8.546875 -8.320312 7.953125 -8.84375 C 7.359375 -9.363281 6.675781 -9.625 5.90625 -9.625 C 5.03125 -9.625 4.316406 -9.328125 3.765625 -8.734375 C 3.210938 -8.148438 2.898438 -7.410156 2.828125 -6.515625 Z M 2.828125 -6.515625 "/></g></g></g><g fill="#ffffff" fill-opacity="1"><g transform="translate(183.241953, 315.524975)"><g/></g></g><g fill="#ffffff" fill-opacity="1"><g transform="translate(189.079973, 315.524975)"><g><path d="M 11.578125 -14.046875 C 12.078125 -13.640625 12.453125 -13.144531 12.703125 -12.5625 C 12.953125 -11.988281 13.078125 -11.398438 13.078125 -10.796875 C 13.078125 -9.128906 12.484375 -7.867188 11.296875 -7.015625 C 10.492188 -6.421875 9.269531 -6.125 7.625 -6.125 L 3.609375 -6.125 L 3.609375 0 L 1.609375 0 L 1.609375 -15.03125 L 7.609375 -15.03125 C 8.566406 -15.03125 9.347656 -14.957031 9.953125 -14.8125 C 10.554688 -14.675781 11.097656 -14.421875 11.578125 -14.046875 Z M 11.03125 -10.75 C 11.03125 -11.0625 10.953125 -11.394531 10.796875 -11.75 C 10.648438 -12.101562 10.453125 -12.394531 10.203125 -12.625 C 9.921875 -12.875 9.597656 -13.039062 9.234375 -13.125 C 8.867188 -13.21875 8.390625 -13.265625 7.796875 -13.265625 L 3.609375 -13.265625 L 3.609375 -7.890625 L 7.609375 -7.890625 C 8.765625 -7.890625 9.625 -8.117188 10.1875 -8.578125 C 10.75 -9.046875 11.03125 -9.769531 11.03125 -10.75 Z M 11.03125 -10.75 "/></g></g></g><g fill="#ffffff" fill-opacity="1"><g transform="translate(203.087025, 315.524975)"><g><path d="M 5.390625 -11.125 C 6.023438 -11.125 6.648438 -10.929688 7.265625 -10.546875 L 6.640625 -8.84375 C 6.191406 -9.101562 5.722656 -9.234375 5.234375 -9.234375 C 4.523438 -9.234375 4.003906 -8.914062 3.671875 -8.28125 C 3.347656 -7.644531 3.1875 -6.820312 3.1875 -5.8125 L 3.1875 0 L 1.34375 0 L 1.34375 -10.875 L 3 -10.875 L 3 -9.234375 C 3.351562 -9.867188 3.703125 -10.34375 4.046875 -10.65625 C 4.390625 -10.96875 4.835938 -11.125 5.390625 -11.125 Z M 5.390625 -11.125 "/></g></g></g><g fill="#ffffff" fill-opacity="1"><g transform="translate(210.080051, 315.524975)"><g><path d="M 5.96875 -11.125 C 6.863281 -11.125 7.585938 -11.035156 8.140625 -10.859375 C 8.691406 -10.691406 9.128906 -10.4375 9.453125 -10.09375 C 9.753906 -9.78125 9.960938 -9.425781 10.078125 -9.03125 C 10.191406 -8.632812 10.25 -8.113281 10.25 -7.46875 L 10.25 -3.09375 C 10.25 -1.675781 10.445312 -0.644531 10.84375 0 L 8.90625 0 C 8.71875 -0.375 8.59375 -0.820312 8.53125 -1.34375 C 7.851562 -0.78125 7.195312 -0.375 6.5625 -0.125 C 5.925781 0.125 5.265625 0.25 4.578125 0.25 C 3.398438 0.25 2.472656 -0.0351562 1.796875 -0.609375 C 1.128906 -1.179688 0.796875 -1.9375 0.796875 -2.875 C 0.796875 -3.363281 0.90625 -3.835938 1.125 -4.296875 C 1.351562 -4.753906 1.664062 -5.109375 2.0625 -5.359375 C 2.476562 -5.640625 2.898438 -5.84375 3.328125 -5.96875 C 3.765625 -6.09375 4.300781 -6.191406 4.9375 -6.265625 C 5.601562 -6.328125 6.269531 -6.414062 6.9375 -6.53125 C 7.601562 -6.65625 8.09375 -6.78125 8.40625 -6.90625 L 8.40625 -7.375 C 8.40625 -8.113281 8.203125 -8.671875 7.796875 -9.046875 C 7.398438 -9.429688 6.71875 -9.625 5.75 -9.625 C 4.84375 -9.625 4.1875 -9.460938 3.78125 -9.140625 C 3.382812 -8.816406 3.097656 -8.28125 2.921875 -7.53125 L 1.109375 -7.765625 C 1.359375 -8.941406 1.882812 -9.796875 2.6875 -10.328125 C 3.5 -10.859375 4.59375 -11.125 5.96875 -11.125 Z M 5.75 -4.828125 C 5.039062 -4.710938 4.492188 -4.601562 4.109375 -4.5 C 3.722656 -4.394531 3.398438 -4.21875 3.140625 -3.96875 C 2.890625 -3.726562 2.765625 -3.378906 2.765625 -2.921875 C 2.765625 -2.367188 2.960938 -1.941406 3.359375 -1.640625 C 3.765625 -1.347656 4.332031 -1.203125 5.0625 -1.203125 C 5.476562 -1.203125 5.929688 -1.285156 6.421875 -1.453125 C 6.910156 -1.628906 7.335938 -1.9375 7.703125 -2.375 C 7.941406 -2.65625 8.117188 -2.96875 8.234375 -3.3125 C 8.347656 -3.664062 8.40625 -4.113281 8.40625 -4.65625 L 8.40625 -5.453125 C 7.84375 -5.234375 6.957031 -5.023438 5.75 -4.828125 Z M 5.75 -4.828125 "/></g></g></g><g fill="#ffffff" fill-opacity="1"><g transform="translate(221.756102, 315.524975)"><g><path d="M 5.96875 -11.125 C 7.039062 -11.125 7.945312 -10.828125 8.6875 -10.234375 C 9.4375 -9.640625 9.914062 -8.789062 10.125 -7.6875 L 8.34375 -7.40625 C 8.1875 -8.070312 7.90625 -8.609375 7.5 -9.015625 C 7.09375 -9.421875 6.546875 -9.625 5.859375 -9.625 C 4.878906 -9.625 4.109375 -9.269531 3.546875 -8.5625 C 2.984375 -7.863281 2.703125 -6.84375 2.703125 -5.5 C 2.703125 -4.125 2.960938 -3.078125 3.484375 -2.359375 C 4.015625 -1.640625 4.769531 -1.28125 5.75 -1.28125 C 6.550781 -1.28125 7.175781 -1.519531 7.625 -2 C 8.070312 -2.488281 8.359375 -3.148438 8.484375 -3.984375 L 10.3125 -3.765625 C 10.113281 -2.503906 9.601562 -1.519531 8.78125 -0.8125 C 7.96875 -0.113281 6.957031 0.234375 5.75 0.234375 C 4.195312 0.234375 2.984375 -0.269531 2.109375 -1.28125 C 1.242188 -2.300781 0.8125 -3.738281 0.8125 -5.59375 C 0.8125 -7.320312 1.269531 -8.675781 2.1875 -9.65625 C 3.101562 -10.632812 4.363281 -11.125 5.96875 -11.125 Z M 5.96875 -11.125 "/></g></g></g><g fill="#ffffff" fill-opacity="1"><g transform="translate(232.256147, 315.524975)"><g><path d="M 3.546875 -10.875 L 5.390625 -10.875 L 5.390625 -9.484375 L 3.546875 -9.484375 L 3.546875 -2.75 C 3.546875 -2.269531 3.613281 -1.929688 3.75 -1.734375 C 3.882812 -1.546875 4.160156 -1.453125 4.578125 -1.453125 C 4.671875 -1.453125 4.941406 -1.484375 5.390625 -1.546875 L 5.671875 0.078125 C 5.109375 0.191406 4.65625 0.25 4.3125 0.25 C 3.59375 0.25 3.039062 0.132812 2.65625 -0.09375 C 2.28125 -0.320312 2.023438 -0.644531 1.890625 -1.0625 C 1.765625 -1.476562 1.703125 -2.015625 1.703125 -2.671875 L 1.703125 -9.484375 L 0.359375 -9.484375 L 0.359375 -10.875 L 1.703125 -10.875 L 1.703125 -13.59375 L 3.546875 -14.703125 Z M 3.546875 -10.875 "/></g></g></g><g fill="#ffffff" fill-opacity="1"><g transform="translate(238.094167, 315.524975)"><g><path d="M 3.25 -12.9375 L 1.40625 -12.9375 L 1.40625 -15.03125 L 3.25 -15.03125 Z M 3.25 0 L 1.40625 0 L 1.40625 -10.875 L 3.25 -10.875 Z M 3.25 0 "/></g></g></g><g fill="#ffffff" fill-opacity="1"><g transform="translate(242.756181, 315.524975)"><g><path d="M 5.96875 -11.125 C 7.039062 -11.125 7.945312 -10.828125 8.6875 -10.234375 C 9.4375 -9.640625 9.914062 -8.789062 10.125 -7.6875 L 8.34375 -7.40625 C 8.1875 -8.070312 7.90625 -8.609375 7.5 -9.015625 C 7.09375 -9.421875 6.546875 -9.625 5.859375 -9.625 C 4.878906 -9.625 4.109375 -9.269531 3.546875 -8.5625 C 2.984375 -7.863281 2.703125 -6.84375 2.703125 -5.5 C 2.703125 -4.125 2.960938 -3.078125 3.484375 -2.359375 C 4.015625 -1.640625 4.769531 -1.28125 5.75 -1.28125 C 6.550781 -1.28125 7.175781 -1.519531 7.625 -2 C 8.070312 -2.488281 8.359375 -3.148438 8.484375 -3.984375 L 10.3125 -3.765625 C 10.113281 -2.503906 9.601562 -1.519531 8.78125 -0.8125 C 7.96875 -0.113281 6.957031 0.234375 5.75 0.234375 C 4.195312 0.234375 2.984375 -0.269531 2.109375 -1.28125 C 1.242188 -2.300781 0.8125 -3.738281 0.8125 -5.59375 C 0.8125 -7.320312 1.269531 -8.675781 2.1875 -9.65625 C 3.101562 -10.632812 4.363281 -11.125 5.96875 -11.125 Z M 5.96875 -11.125 "/></g></g></g><g fill="#ffffff" fill-opacity="1"><g transform="translate(253.256226, 315.524975)"><g><path d="M 5.90625 -11.125 C 6.945312 -11.125 7.84375 -10.875 8.59375 -10.375 C 9.34375 -9.882812 9.90625 -9.21875 10.28125 -8.375 C 10.664062 -7.539062 10.859375 -6.601562 10.859375 -5.5625 L 10.859375 -4.984375 L 2.734375 -4.984375 C 2.785156 -3.816406 3.113281 -2.90625 3.71875 -2.25 C 4.320312 -1.601562 5.09375 -1.28125 6.03125 -1.28125 C 6.738281 -1.28125 7.328125 -1.46875 7.796875 -1.84375 C 8.265625 -2.226562 8.628906 -2.78125 8.890625 -3.5 L 10.796875 -3.28125 C 10.503906 -2.1875 9.945312 -1.328125 9.125 -0.703125 C 8.300781 -0.078125 7.296875 0.234375 6.109375 0.234375 C 4.441406 0.234375 3.140625 -0.253906 2.203125 -1.234375 C 1.273438 -2.210938 0.8125 -3.585938 0.8125 -5.359375 C 0.8125 -6.535156 1.019531 -7.554688 1.4375 -8.421875 C 1.863281 -9.285156 2.457031 -9.953125 3.21875 -10.421875 C 3.988281 -10.890625 4.882812 -11.125 5.90625 -11.125 Z M 2.828125 -6.515625 L 8.90625 -6.515625 C 8.863281 -7.546875 8.546875 -8.320312 7.953125 -8.84375 C 7.359375 -9.363281 6.675781 -9.625 5.90625 -9.625 C 5.03125 -9.625 4.316406 -9.328125 3.765625 -8.734375 C 3.210938 -8.148438 2.898438 -7.410156 2.828125 -6.515625 Z M 2.828125 -6.515625 "/></g></g></g><g fill="#ffffff" fill-opacity="1"><g transform="translate(264.932277, 315.524975)"><g/></g></g><g fill="#ffffff" fill-opacity="1"><g transform="translate(270.770297, 315.524975)"><g><path d="M 7.921875 -15.28125 C 9.410156 -15.28125 10.71875 -14.953125 11.84375 -14.296875 C 12.976562 -13.648438 13.847656 -12.757812 14.453125 -11.625 C 15.066406 -10.5 15.375 -9.210938 15.375 -7.765625 C 15.375 -6.367188 15.175781 -5.175781 14.78125 -4.1875 C 14.394531 -3.195312 13.835938 -2.335938 13.109375 -1.609375 C 13.492188 -1.335938 13.914062 -1.070312 14.375 -0.8125 C 14.84375 -0.550781 15.265625 -0.347656 15.640625 -0.203125 L 15.0625 1.171875 C 14 0.785156 12.925781 0.171875 11.84375 -0.671875 C 10.707031 -0.0546875 9.519531 0.25 8.28125 0.25 C 6.832031 0.25 5.554688 -0.078125 4.453125 -0.734375 C 3.359375 -1.390625 2.503906 -2.304688 1.890625 -3.484375 C 1.285156 -4.660156 0.984375 -6.003906 0.984375 -7.515625 C 0.984375 -9.023438 1.285156 -10.367188 1.890625 -11.546875 C 2.492188 -12.722656 3.320312 -13.640625 4.375 -14.296875 C 5.4375 -14.953125 6.617188 -15.28125 7.921875 -15.28125 Z M 3.046875 -7.515625 C 3.046875 -6.242188 3.265625 -5.148438 3.703125 -4.234375 C 4.148438 -3.328125 4.753906 -2.632812 5.515625 -2.15625 C 6.285156 -1.6875 7.171875 -1.453125 8.171875 -1.453125 C 8.898438 -1.453125 9.578125 -1.582031 10.203125 -1.84375 C 9.554688 -2.25 8.898438 -2.535156 8.234375 -2.703125 L 8.71875 -4.15625 C 9.851562 -3.851562 10.796875 -3.378906 11.546875 -2.734375 C 12.722656 -3.796875 13.3125 -5.484375 13.3125 -7.796875 C 13.3125 -8.910156 13.097656 -9.90625 12.671875 -10.78125 C 12.242188 -11.65625 11.640625 -12.34375 10.859375 -12.84375 C 10.085938 -13.34375 9.195312 -13.59375 8.1875 -13.59375 C 7.15625 -13.59375 6.25 -13.34375 5.46875 -12.84375 C 4.695312 -12.351562 4.097656 -11.65625 3.671875 -10.75 C 3.253906 -9.84375 3.046875 -8.765625 3.046875 -7.515625 Z M 3.046875 -7.515625 "/></g></g></g><g fill="#ffffff" fill-opacity="1"><g transform="translate(287.108361, 315.524975)"><g><path d="M 3.234375 -3.90625 C 3.234375 -3.0625 3.429688 -2.421875 3.828125 -1.984375 C 4.234375 -1.554688 4.820312 -1.34375 5.59375 -1.34375 C 6.101562 -1.34375 6.597656 -1.492188 7.078125 -1.796875 C 7.566406 -2.097656 7.914062 -2.519531 8.125 -3.0625 C 8.289062 -3.46875 8.375 -4.082031 8.375 -4.90625 L 8.375 -10.875 L 10.234375 -10.875 L 10.234375 0 L 8.5625 0 L 8.5625 -1.59375 C 7.695312 -0.363281 6.546875 0.25 5.109375 0.25 C 4.515625 0.25 3.914062 0.128906 3.3125 -0.109375 C 2.71875 -0.359375 2.25 -0.753906 1.90625 -1.296875 C 1.707031 -1.617188 1.570312 -1.976562 1.5 -2.375 C 1.425781 -2.769531 1.390625 -3.242188 1.390625 -3.796875 L 1.390625 -10.875 L 3.234375 -10.875 Z M 3.234375 -3.90625 "/></g></g></g><g fill="#ffffff" fill-opacity="1"><g transform="translate(298.784401, 315.524975)"><g><path d="M 5.90625 -11.125 C 6.945312 -11.125 7.84375 -10.875 8.59375 -10.375 C 9.34375 -9.882812 9.90625 -9.21875 10.28125 -8.375 C 10.664062 -7.539062 10.859375 -6.601562 10.859375 -5.5625 L 10.859375 -4.984375 L 2.734375 -4.984375 C 2.785156 -3.816406 3.113281 -2.90625 3.71875 -2.25 C 4.320312 -1.601562 5.09375 -1.28125 6.03125 -1.28125 C 6.738281 -1.28125 7.328125 -1.46875 7.796875 -1.84375 C 8.265625 -2.226562 8.628906 -2.78125 8.890625 -3.5 L 10.796875 -3.28125 C 10.503906 -2.1875 9.945312 -1.328125 9.125 -0.703125 C 8.300781 -0.078125 7.296875 0.234375 6.109375 0.234375 C 4.441406 0.234375 3.140625 -0.253906 2.203125 -1.234375 C 1.273438 -2.210938 0.8125 -3.585938 0.8125 -5.359375 C 0.8125 -6.535156 1.019531 -7.554688 1.4375 -8.421875 C 1.863281 -9.285156 2.457031 -9.953125 3.21875 -10.421875 C 3.988281 -10.890625 4.882812 -11.125 5.90625 -11.125 Z M 2.828125 -6.515625 L 8.90625 -6.515625 C 8.863281 -7.546875 8.546875 -8.320312 7.953125 -8.84375 C 7.359375 -9.363281 6.675781 -9.625 5.90625 -9.625 C 5.03125 -9.625 4.316406 -9.328125 3.765625 -8.734375 C 3.210938 -8.148438 2.898438 -7.410156 2.828125 -6.515625 Z M 2.828125 -6.515625 "/></g></g></g></svg>