<svg xmlns="http://www.w3.org/2000/svg" xmlns:xlink="http://www.w3.org/1999/xlink" width="512" zoomAndPan="magnify" viewBox="0 0 384 383.999986" height="512" preserveAspectRatio="xMidYMid meet" version="1.0"><defs><g/><clipPath id="eebf59512b"><path d="M 97.367188 88.273438 L 286.632812 88.273438 L 286.632812 277.535156 L 97.367188 277.535156 Z M 97.367188 88.273438 " clip-rule="nonzero"/></clipPath><clipPath id="cae86c534c"><path d="M 192 88.273438 C 139.738281 88.273438 97.367188 130.640625 97.367188 182.90625 C 97.367188 235.167969 139.738281 277.535156 192 277.535156 C 244.261719 277.535156 286.632812 235.167969 286.632812 182.90625 C 286.632812 130.640625 244.261719 88.273438 192 88.273438 Z M 192 88.273438 " clip-rule="nonzero"/></clipPath><clipPath id="7048c66bc9"><path d="M 135.367188 123.214844 L 248.617188 123.214844 L 248.617188 242.464844 L 135.367188 242.464844 Z M 135.367188 123.214844 " clip-rule="nonzero"/></clipPath></defs><g clip-path="url(#eebf59512b)"><g clip-path="url(#cae86c534c)"><path fill="#ffffff" d="M 97.367188 88.273438 L 286.632812 88.273438 L 286.632812 277.535156 L 97.367188 277.535156 Z M 97.367188 88.273438 " fill-opacity="1" fill-rule="nonzero"/></g></g><g clip-path="url(#7048c66bc9)"><path fill="#f38526" d="M 204.128906 135.019531 L 236.875 135.019531 L 236.875 167.757812 L 204.128906 167.757812 Z M 231.546875 138.828125 L 216.113281 138.828125 C 215.710938 138.828125 215.324219 138.988281 215.035156 139.273438 L 208.390625 145.917969 C 208.097656 146.207031 207.941406 146.59375 207.941406 146.996094 L 207.941406 162.429688 C 207.941406 163.269531 208.613281 163.953125 209.464844 163.953125 L 231.546875 163.953125 C 232.386719 163.953125 233.058594 163.269531 233.058594 162.429688 L 233.058594 140.351562 C 233.0625 139.511719 232.390625 138.828125 231.546875 138.828125 Z M 215.179688 155.804688 L 220.34375 155.804688 L 220.488281 156.09375 C 220.746094 156.625 221.285156 156.9375 221.84375 156.9375 C 222.074219 156.9375 222.3125 156.882812 222.53125 156.773438 C 223.277344 156.398438 223.589844 155.484375 223.203125 154.730469 L 219.117188 146.5625 C 218.859375 146.042969 218.332031 145.71875 217.761719 145.71875 C 217.179688 145.71875 216.652344 146.042969 216.390625 146.5625 L 212.308594 154.730469 C 211.933594 155.484375 212.246094 156.398438 212.992188 156.773438 C 213.75 157.152344 214.660156 156.84375 215.035156 156.09375 Z M 225.039062 147.242188 L 225.039062 155.414062 C 225.039062 156.253906 225.722656 156.9375 226.5625 156.9375 C 227.402344 156.9375 228.082031 156.253906 228.082031 155.414062 L 228.082031 147.242188 C 228.082031 146.402344 227.398438 145.71875 226.5625 145.71875 C 225.722656 145.722656 225.039062 146.402344 225.039062 147.242188 Z M 218.820312 152.761719 L 217.761719 150.652344 L 216.703125 152.761719 Z M 168.550781 202.773438 C 176.367188 196.757812 183.25 189.5 189.078125 181.171875 L 189.554688 183.425781 C 189.699219 184.140625 190.339844 184.632812 191.046875 184.632812 C 191.140625 184.632812 191.253906 184.625 191.359375 184.601562 C 192.179688 184.429688 192.707031 183.621094 192.527344 182.800781 L 191.316406 177.03125 C 191.152344 176.207031 190.339844 175.679688 189.511719 175.851562 L 183.746094 177.066406 C 182.917969 177.238281 182.398438 178.046875 182.5625 178.871094 C 182.738281 179.691406 183.546875 180.21875 184.367188 180.046875 L 186.453125 179.609375 C 174.355469 196.8125 157.597656 209.105469 136.582031 216.160156 C 135.785156 216.425781 135.359375 217.289062 135.628906 218.085938 C 135.847656 218.722656 136.4375 219.125 137.070312 219.125 C 137.234375 219.125 137.394531 219.101562 137.558594 219.042969 C 149.167969 215.148438 159.597656 209.671875 168.550781 202.773438 Z M 149.324219 242.566406 L 149.324219 227.894531 L 135.429688 227.894531 L 135.429688 242.566406 Z M 175.363281 242.566406 L 161.480469 242.566406 L 161.480469 215.027344 L 175.363281 215.027344 Z M 201.402344 242.566406 L 187.523438 242.566406 L 187.523438 200.675781 L 201.402344 200.675781 Z M 227.445312 188.378906 L 213.566406 188.378906 L 213.566406 242.566406 L 227.445312 242.566406 Z M 210.390625 139.726562 C 210.390625 138.882812 209.707031 138.203125 208.867188 138.203125 L 208.785156 138.203125 C 207.933594 138.203125 207.261719 138.882812 207.261719 139.726562 C 207.261719 140.566406 207.933594 141.25 208.785156 141.25 L 208.867188 141.25 C 209.707031 141.25 210.390625 140.5625 210.390625 139.726562 Z M 201.089844 143 L 201.089844 149.867188 L 193.898438 149.867188 C 193.058594 149.867188 192.375 150.550781 192.375 151.390625 C 192.375 152.230469 193.058594 152.914062 193.898438 152.914062 L 201.089844 152.914062 L 201.089844 159.777344 L 193.898438 159.777344 C 193.058594 159.777344 192.375 160.460938 192.375 161.300781 C 192.375 162.140625 193.058594 162.824219 193.898438 162.824219 L 201.089844 162.824219 L 201.089844 169.28125 C 201.089844 170.121094 201.761719 170.804688 202.605469 170.804688 L 209.0625 170.804688 L 209.0625 177.992188 C 209.0625 178.835938 209.746094 179.515625 210.585938 179.515625 C 211.425781 179.515625 212.109375 178.835938 212.109375 177.992188 L 212.109375 170.804688 L 218.980469 170.804688 L 218.980469 177.992188 C 218.980469 178.835938 219.667969 179.515625 220.503906 179.515625 C 221.34375 179.515625 222.015625 178.835938 222.015625 177.992188 L 222.015625 170.804688 L 228.890625 170.804688 L 228.890625 177.992188 C 228.890625 178.835938 229.578125 179.515625 230.414062 179.515625 C 231.253906 179.515625 231.9375 178.835938 231.9375 177.992188 L 231.9375 170.804688 L 238.394531 170.804688 C 239.234375 170.804688 239.917969 170.121094 239.917969 169.28125 L 239.917969 162.824219 L 247.101562 162.824219 C 247.941406 162.824219 248.625 162.140625 248.625 161.300781 C 248.625 160.460938 247.9375 159.777344 247.101562 159.777344 L 239.917969 159.777344 L 239.917969 152.914062 L 247.101562 152.914062 C 247.941406 152.914062 248.625 152.230469 248.625 151.390625 C 248.625 150.550781 247.9375 149.867188 247.101562 149.867188 L 239.917969 149.867188 L 239.917969 143 L 247.101562 143 C 247.941406 143 248.625 142.316406 248.625 141.476562 C 248.625 140.636719 247.9375 139.953125 247.101562 139.953125 L 239.917969 139.953125 L 239.917969 133.496094 C 239.917969 132.65625 239.230469 131.972656 238.394531 131.972656 L 231.9375 131.972656 L 231.9375 124.785156 C 231.9375 123.945312 231.25 123.261719 230.414062 123.261719 C 229.574219 123.261719 228.890625 123.945312 228.890625 124.785156 L 228.890625 131.972656 L 222.015625 131.972656 L 222.015625 124.785156 C 222.015625 123.945312 221.34375 123.261719 220.503906 123.261719 C 219.652344 123.261719 218.980469 123.945312 218.980469 124.785156 L 218.980469 131.972656 L 212.109375 131.972656 L 212.109375 124.785156 C 212.109375 123.945312 211.421875 123.261719 210.585938 123.261719 C 209.746094 123.261719 209.0625 123.945312 209.0625 124.785156 L 209.0625 131.972656 L 202.605469 131.972656 C 201.761719 131.972656 201.089844 132.65625 201.089844 133.496094 L 201.089844 139.953125 L 193.898438 139.953125 C 193.058594 139.953125 192.375 140.636719 192.375 141.476562 C 192.375 142.320312 193.058594 143 193.898438 143 Z M 201.089844 143 " fill-opacity="1" fill-rule="evenodd"/></g><g fill="#ffffff" fill-opacity="1"><g transform="translate(82.286716, 315.524975)"><g><path d="M 6.234375 -3.984375 C 6.523438 -3.203125 6.769531 -2.425781 6.96875 -1.65625 C 7.21875 -2.507812 7.492188 -3.328125 7.796875 -4.109375 L 11.84375 -15.03125 L 13.875 -15.03125 L 8 0 L 5.9375 0 L 0.125 -15.03125 L 2.28125 -15.03125 Z M 6.234375 -3.984375 "/></g></g></g><g fill="#ffffff" fill-opacity="1"><g transform="translate(96.293769, 315.524975)"><g><path d="M 3.25 -12.9375 L 1.40625 -12.9375 L 1.40625 -15.03125 L 3.25 -15.03125 Z M 3.25 0 L 1.40625 0 L 1.40625 -10.875 L 3.25 -10.875 Z M 3.25 0 "/></g></g></g><g fill="#ffffff" fill-opacity="1"><g transform="translate(100.955782, 315.524975)"><g><path d="M 5 -11.125 C 6.226562 -11.125 7.21875 -10.867188 7.96875 -10.359375 C 8.726562 -9.847656 9.164062 -9.085938 9.28125 -8.078125 L 7.46875 -7.828125 C 7.382812 -8.378906 7.15625 -8.816406 6.78125 -9.140625 C 6.40625 -9.460938 5.847656 -9.625 5.109375 -9.625 C 4.359375 -9.625 3.773438 -9.492188 3.359375 -9.234375 C 2.953125 -8.984375 2.75 -8.632812 2.75 -8.1875 C 2.75 -7.882812 2.867188 -7.628906 3.109375 -7.421875 C 3.359375 -7.222656 3.648438 -7.066406 3.984375 -6.953125 C 4.328125 -6.847656 4.835938 -6.710938 5.515625 -6.546875 C 6.398438 -6.335938 7.117188 -6.128906 7.671875 -5.921875 C 8.222656 -5.710938 8.695312 -5.390625 9.09375 -4.953125 C 9.5 -4.523438 9.703125 -3.945312 9.703125 -3.21875 C 9.703125 -2.582031 9.523438 -2 9.171875 -1.46875 C 8.828125 -0.945312 8.328125 -0.53125 7.671875 -0.21875 C 7.023438 0.0820312 6.28125 0.234375 5.4375 0.234375 C 3.976562 0.234375 2.863281 -0.0507812 2.09375 -0.625 C 1.320312 -1.195312 0.84375 -2.070312 0.65625 -3.25 L 2.484375 -3.53125 C 2.578125 -2.789062 2.867188 -2.226562 3.359375 -1.84375 C 3.859375 -1.46875 4.503906 -1.28125 5.296875 -1.28125 C 6.085938 -1.28125 6.703125 -1.441406 7.140625 -1.765625 C 7.585938 -2.097656 7.8125 -2.507812 7.8125 -3 C 7.8125 -3.46875 7.585938 -3.8125 7.140625 -4.03125 C 6.703125 -4.257812 6.03125 -4.476562 5.125 -4.6875 C 4.226562 -4.894531 3.507812 -5.097656 2.96875 -5.296875 C 2.425781 -5.503906 1.957031 -5.820312 1.5625 -6.25 C 1.164062 -6.6875 0.96875 -7.269531 0.96875 -8 C 0.96875 -8.59375 1.125 -9.125 1.4375 -9.59375 C 1.75 -10.070312 2.207031 -10.445312 2.8125 -10.71875 C 3.425781 -10.988281 4.15625 -11.125 5 -11.125 Z M 5 -11.125 "/></g></g></g><g fill="#ffffff" fill-opacity="1"><g transform="translate(111.455827, 315.524975)"><g><path d="M 3.234375 -3.90625 C 3.234375 -3.0625 3.429688 -2.421875 3.828125 -1.984375 C 4.234375 -1.554688 4.820312 -1.34375 5.59375 -1.34375 C 6.101562 -1.34375 6.597656 -1.492188 7.078125 -1.796875 C 7.566406 -2.097656 7.914062 -2.519531 8.125 -3.0625 C 8.289062 -3.46875 8.375 -4.082031 8.375 -4.90625 L 8.375 -10.875 L 10.234375 -10.875 L 10.234375 0 L 8.5625 0 L 8.5625 -1.59375 C 7.695312 -0.363281 6.546875 0.25 5.109375 0.25 C 4.515625 0.25 3.914062 0.128906 3.3125 -0.109375 C 2.71875 -0.359375 2.25 -0.753906 1.90625 -1.296875 C 1.707031 -1.617188 1.570312 -1.976562 1.5 -2.375 C 1.425781 -2.769531 1.390625 -3.242188 1.390625 -3.796875 L 1.390625 -10.875 L 3.234375 -10.875 Z M 3.234375 -3.90625 "/></g></g></g><g fill="#ffffff" fill-opacity="1"><g transform="translate(123.131878, 315.524975)"><g><path d="M 5.96875 -11.125 C 6.863281 -11.125 7.585938 -11.035156 8.140625 -10.859375 C 8.691406 -10.691406 9.128906 -10.4375 9.453125 -10.09375 C 9.753906 -9.78125 9.960938 -9.425781 10.078125 -9.03125 C 10.191406 -8.632812 10.25 -8.113281 10.25 -7.46875 L 10.25 -3.09375 C 10.25 -1.675781 10.445312 -0.644531 10.84375 0 L 8.90625 0 C 8.71875 -0.375 8.59375 -0.820312 8.53125 -1.34375 C 7.851562 -0.78125 7.195312 -0.375 6.5625 -0.125 C 5.925781 0.125 5.265625 0.25 4.578125 0.25 C 3.398438 0.25 2.472656 -0.0351562 1.796875 -0.609375 C 1.128906 -1.179688 0.796875 -1.9375 0.796875 -2.875 C 0.796875 -3.363281 0.90625 -3.835938 1.125 -4.296875 C 1.351562 -4.753906 1.664062 -5.109375 2.0625 -5.359375 C 2.476562 -5.640625 2.898438 -5.84375 3.328125 -5.96875 C 3.765625 -6.09375 4.300781 -6.191406 4.9375 -6.265625 C 5.601562 -6.328125 6.269531 -6.414062 6.9375 -6.53125 C 7.601562 -6.65625 8.09375 -6.78125 8.40625 -6.90625 L 8.40625 -7.375 C 8.40625 -8.113281 8.203125 -8.671875 7.796875 -9.046875 C 7.398438 -9.429688 6.71875 -9.625 5.75 -9.625 C 4.84375 -9.625 4.1875 -9.460938 3.78125 -9.140625 C 3.382812 -8.816406 3.097656 -8.28125 2.921875 -7.53125 L 1.109375 -7.765625 C 1.359375 -8.941406 1.882812 -9.796875 2.6875 -10.328125 C 3.5 -10.859375 4.59375 -11.125 5.96875 -11.125 Z M 5.75 -4.828125 C 5.039062 -4.710938 4.492188 -4.601562 4.109375 -4.5 C 3.722656 -4.394531 3.398438 -4.21875 3.140625 -3.96875 C 2.890625 -3.726562 2.765625 -3.378906 2.765625 -2.921875 C 2.765625 -2.367188 2.960938 -1.941406 3.359375 -1.640625 C 3.765625 -1.347656 4.332031 -1.203125 5.0625 -1.203125 C 5.476562 -1.203125 5.929688 -1.285156 6.421875 -1.453125 C 6.910156 -1.628906 7.335938 -1.9375 7.703125 -2.375 C 7.941406 -2.65625 8.117188 -2.96875 8.234375 -3.3125 C 8.347656 -3.664062 8.40625 -4.113281 8.40625 -4.65625 L 8.40625 -5.453125 C 7.84375 -5.234375 6.957031 -5.023438 5.75 -4.828125 Z M 5.75 -4.828125 "/></g></g></g><g fill="#ffffff" fill-opacity="1"><g transform="translate(134.80793, 315.524975)"><g><path d="M 3.25 0 L 1.40625 0 L 1.40625 -15.03125 L 3.25 -15.03125 Z M 3.25 0 "/></g></g></g><g fill="#ffffff" fill-opacity="1"><g transform="translate(139.469943, 315.524975)"><g><path d="M 3.25 -12.9375 L 1.40625 -12.9375 L 1.40625 -15.03125 L 3.25 -15.03125 Z M 3.25 0 L 1.40625 0 L 1.40625 -10.875 L 3.25 -10.875 Z M 3.25 0 "/></g></g></g><g fill="#ffffff" fill-opacity="1"><g transform="translate(144.131957, 315.524975)"><g><path d="M 9.75 -9.6875 L 3.84375 -2.765625 C 3.707031 -2.597656 3.457031 -2.320312 3.09375 -1.9375 L 2.6875 -1.484375 C 3.613281 -1.554688 4.34375 -1.59375 4.875 -1.59375 L 10.0625 -1.59375 L 10.0625 0 L 0.421875 0 L 0.421875 -1.484375 L 7.34375 -9.453125 C 6.3125 -9.378906 5.65625 -9.34375 5.375 -9.34375 L 0.84375 -9.34375 L 0.84375 -10.875 L 9.75 -10.875 Z M 9.75 -9.6875 "/></g></g></g><g fill="#ffffff" fill-opacity="1"><g transform="translate(154.632002, 315.524975)"><g><path d="M 5.90625 -11.125 C 6.945312 -11.125 7.84375 -10.875 8.59375 -10.375 C 9.34375 -9.882812 9.90625 -9.21875 10.28125 -8.375 C 10.664062 -7.539062 10.859375 -6.601562 10.859375 -5.5625 L 10.859375 -4.984375 L 2.734375 -4.984375 C 2.785156 -3.816406 3.113281 -2.90625 3.71875 -2.25 C 4.320312 -1.601562 5.09375 -1.28125 6.03125 -1.28125 C 6.738281 -1.28125 7.328125 -1.46875 7.796875 -1.84375 C 8.265625 -2.226562 8.628906 -2.78125 8.890625 -3.5 L 10.796875 -3.28125 C 10.503906 -2.1875 9.945312 -1.328125 9.125 -0.703125 C 8.300781 -0.078125 7.296875 0.234375 6.109375 0.234375 C 4.441406 0.234375 3.140625 -0.253906 2.203125 -1.234375 C 1.273438 -2.210938 0.8125 -3.585938 0.8125 -5.359375 C 0.8125 -6.535156 1.019531 -7.554688 1.4375 -8.421875 C 1.863281 -9.285156 2.457031 -9.953125 3.21875 -10.421875 C 3.988281 -10.890625 4.882812 -11.125 5.90625 -11.125 Z M 2.828125 -6.515625 L 8.90625 -6.515625 C 8.863281 -7.546875 8.546875 -8.320312 7.953125 -8.84375 C 7.359375 -9.363281 6.675781 -9.625 5.90625 -9.625 C 5.03125 -9.625 4.316406 -9.328125 3.765625 -8.734375 C 3.210938 -8.148438 2.898438 -7.410156 2.828125 -6.515625 Z M 2.828125 -6.515625 "/></g></g></g><g fill="#ffffff" fill-opacity="1"><g transform="translate(166.308053, 315.524975)"><g/></g></g><g fill="#ffffff" fill-opacity="1"><g transform="translate(172.146073, 315.524975)"><g><path d="M 12.21875 -14.140625 C 12.738281 -13.734375 13.117188 -13.242188 13.359375 -12.671875 C 13.597656 -12.109375 13.71875 -11.523438 13.71875 -10.921875 C 13.71875 -9.828125 13.363281 -8.925781 12.65625 -8.21875 C 11.957031 -7.507812 10.894531 -7.050781 9.46875 -6.84375 C 10.019531 -6.59375 10.507812 -6.253906 10.9375 -5.828125 C 11.375 -5.398438 11.835938 -4.804688 12.328125 -4.046875 L 14.9375 0 L 12.4375 0 L 10.5 -3.03125 C 9.820312 -4.070312 9.285156 -4.832031 8.890625 -5.3125 C 8.492188 -5.800781 8.082031 -6.144531 7.65625 -6.34375 C 7.238281 -6.550781 6.707031 -6.65625 6.0625 -6.65625 L 3.671875 -6.65625 L 3.671875 0 L 1.6875 0 L 1.6875 -15.03125 L 8.59375 -15.03125 C 9.46875 -15.03125 10.179688 -14.960938 10.734375 -14.828125 C 11.296875 -14.703125 11.789062 -14.472656 12.21875 -14.140625 Z M 10.765625 -9.078125 C 11.078125 -9.304688 11.300781 -9.585938 11.4375 -9.921875 C 11.582031 -10.253906 11.65625 -10.585938 11.65625 -10.921875 C 11.65625 -11.804688 11.335938 -12.4375 10.703125 -12.8125 C 10.078125 -13.1875 9.34375 -13.375 8.5 -13.375 L 3.671875 -13.375 L 3.671875 -8.421875 L 8.171875 -8.421875 C 8.867188 -8.421875 9.398438 -8.472656 9.765625 -8.578125 C 10.140625 -8.679688 10.472656 -8.847656 10.765625 -9.078125 Z M 10.765625 -9.078125 "/></g></g></g><g fill="#ffffff" fill-opacity="1"><g transform="translate(187.308132, 315.524975)"><g><path d="M 5.90625 -11.125 C 6.945312 -11.125 7.84375 -10.875 8.59375 -10.375 C 9.34375 -9.882812 9.90625 -9.21875 10.28125 -8.375 C 10.664062 -7.539062 10.859375 -6.601562 10.859375 -5.5625 L 10.859375 -4.984375 L 2.734375 -4.984375 C 2.785156 -3.816406 3.113281 -2.90625 3.71875 -2.25 C 4.320312 -1.601562 5.09375 -1.28125 6.03125 -1.28125 C 6.738281 -1.28125 7.328125 -1.46875 7.796875 -1.84375 C 8.265625 -2.226562 8.628906 -2.78125 8.890625 -3.5 L 10.796875 -3.28125 C 10.503906 -2.1875 9.945312 -1.328125 9.125 -0.703125 C 8.300781 -0.078125 7.296875 0.234375 6.109375 0.234375 C 4.441406 0.234375 3.140625 -0.253906 2.203125 -1.234375 C 1.273438 -2.210938 0.8125 -3.585938 0.8125 -5.359375 C 0.8125 -6.535156 1.019531 -7.554688 1.4375 -8.421875 C 1.863281 -9.285156 2.457031 -9.953125 3.21875 -10.421875 C 3.988281 -10.890625 4.882812 -11.125 5.90625 -11.125 Z M 2.828125 -6.515625 L 8.90625 -6.515625 C 8.863281 -7.546875 8.546875 -8.320312 7.953125 -8.84375 C 7.359375 -9.363281 6.675781 -9.625 5.90625 -9.625 C 5.03125 -9.625 4.316406 -9.328125 3.765625 -8.734375 C 3.210938 -8.148438 2.898438 -7.410156 2.828125 -6.515625 Z M 2.828125 -6.515625 "/></g></g></g><g fill="#ffffff" fill-opacity="1"><g transform="translate(198.984183, 315.524975)"><g><path d="M 6.234375 -11.125 C 7.160156 -11.125 7.972656 -10.894531 8.671875 -10.4375 C 9.367188 -9.976562 9.910156 -9.332031 10.296875 -8.5 C 10.679688 -7.664062 10.875 -6.703125 10.875 -5.609375 C 10.875 -4.421875 10.664062 -3.382812 10.25 -2.5 C 9.832031 -1.613281 9.257812 -0.9375 8.53125 -0.46875 C 7.8125 0 7.007812 0.234375 6.125 0.234375 C 5.550781 0.234375 5.019531 0.113281 4.53125 -0.125 C 4.039062 -0.375 3.625 -0.710938 3.28125 -1.140625 L 3.28125 4.171875 L 1.421875 4.171875 L 1.421875 -10.875 L 3.109375 -10.875 L 3.109375 -9.46875 C 3.515625 -10.03125 3.957031 -10.445312 4.4375 -10.71875 C 4.925781 -10.988281 5.523438 -11.125 6.234375 -11.125 Z M 3.09375 -5.375 C 3.09375 -4.0625 3.359375 -3.050781 3.890625 -2.34375 C 4.421875 -1.632812 5.125 -1.28125 6 -1.28125 C 6.875 -1.28125 7.585938 -1.644531 8.140625 -2.375 C 8.703125 -3.101562 8.984375 -4.148438 8.984375 -5.515625 C 8.984375 -6.804688 8.71875 -7.820312 8.1875 -8.5625 C 7.65625 -9.3125 6.945312 -9.6875 6.0625 -9.6875 C 5.488281 -9.6875 4.976562 -9.503906 4.53125 -9.140625 C 4.082031 -8.785156 3.726562 -8.28125 3.46875 -7.625 C 3.21875 -6.96875 3.09375 -6.21875 3.09375 -5.375 Z M 3.09375 -5.375 "/></g></g></g><g fill="#ffffff" fill-opacity="1"><g transform="translate(210.660234, 315.524975)"><g><path d="M 5.84375 -11.125 C 6.664062 -11.125 7.460938 -10.941406 8.234375 -10.578125 C 9.015625 -10.210938 9.660156 -9.609375 10.171875 -8.765625 C 10.679688 -7.921875 10.9375 -6.8125 10.9375 -5.4375 C 10.9375 -4.21875 10.71875 -3.1875 10.28125 -2.34375 C 9.851562 -1.5 9.253906 -0.859375 8.484375 -0.421875 C 7.710938 0.015625 6.832031 0.234375 5.84375 0.234375 C 4.382812 0.234375 3.191406 -0.222656 2.265625 -1.140625 C 1.242188 -2.128906 0.734375 -3.5625 0.734375 -5.4375 C 0.734375 -6.65625 0.945312 -7.691406 1.375 -8.546875 C 1.8125 -9.398438 2.414062 -10.039062 3.1875 -10.46875 C 3.957031 -10.90625 4.84375 -11.125 5.84375 -11.125 Z M 2.625 -5.4375 C 2.625 -4.125 2.914062 -3.101562 3.5 -2.375 C 4.082031 -1.644531 4.863281 -1.28125 5.84375 -1.28125 C 6.800781 -1.28125 7.570312 -1.640625 8.15625 -2.359375 C 8.75 -3.078125 9.046875 -4.101562 9.046875 -5.4375 C 9.046875 -6.726562 8.757812 -7.75 8.1875 -8.5 C 7.613281 -9.25 6.820312 -9.625 5.8125 -9.625 C 4.863281 -9.625 4.09375 -9.253906 3.5 -8.515625 C 2.914062 -7.773438 2.625 -6.75 2.625 -5.4375 Z M 2.625 -5.4375 "/></g></g></g><g fill="#ffffff" fill-opacity="1"><g transform="translate(222.336285, 315.524975)"><g><path d="M 5.390625 -11.125 C 6.023438 -11.125 6.648438 -10.929688 7.265625 -10.546875 L 6.640625 -8.84375 C 6.191406 -9.101562 5.722656 -9.234375 5.234375 -9.234375 C 4.523438 -9.234375 4.003906 -8.914062 3.671875 -8.28125 C 3.347656 -7.644531 3.1875 -6.820312 3.1875 -5.8125 L 3.1875 0 L 1.34375 0 L 1.34375 -10.875 L 3 -10.875 L 3 -9.234375 C 3.351562 -9.867188 3.703125 -10.34375 4.046875 -10.65625 C 4.390625 -10.96875 4.835938 -11.125 5.390625 -11.125 Z M 5.390625 -11.125 "/></g></g></g><g fill="#ffffff" fill-opacity="1"><g transform="translate(229.329311, 315.524975)"><g><path d="M 3.546875 -10.875 L 5.390625 -10.875 L 5.390625 -9.484375 L 3.546875 -9.484375 L 3.546875 -2.75 C 3.546875 -2.269531 3.613281 -1.929688 3.75 -1.734375 C 3.882812 -1.546875 4.160156 -1.453125 4.578125 -1.453125 C 4.671875 -1.453125 4.941406 -1.484375 5.390625 -1.546875 L 5.671875 0.078125 C 5.109375 0.191406 4.65625 0.25 4.3125 0.25 C 3.59375 0.25 3.039062 0.132812 2.65625 -0.09375 C 2.28125 -0.320312 2.023438 -0.644531 1.890625 -1.0625 C 1.765625 -1.476562 1.703125 -2.015625 1.703125 -2.671875 L 1.703125 -9.484375 L 0.359375 -9.484375 L 0.359375 -10.875 L 1.703125 -10.875 L 1.703125 -13.59375 L 3.546875 -14.703125 Z M 3.546875 -10.875 "/></g></g></g><g fill="#ffffff" fill-opacity="1"><g transform="translate(235.167331, 315.524975)"><g><path d="M 5 -11.125 C 6.226562 -11.125 7.21875 -10.867188 7.96875 -10.359375 C 8.726562 -9.847656 9.164062 -9.085938 9.28125 -8.078125 L 7.46875 -7.828125 C 7.382812 -8.378906 7.15625 -8.816406 6.78125 -9.140625 C 6.40625 -9.460938 5.847656 -9.625 5.109375 -9.625 C 4.359375 -9.625 3.773438 -9.492188 3.359375 -9.234375 C 2.953125 -8.984375 2.75 -8.632812 2.75 -8.1875 C 2.75 -7.882812 2.867188 -7.628906 3.109375 -7.421875 C 3.359375 -7.222656 3.648438 -7.066406 3.984375 -6.953125 C 4.328125 -6.847656 4.835938 -6.710938 5.515625 -6.546875 C 6.398438 -6.335938 7.117188 -6.128906 7.671875 -5.921875 C 8.222656 -5.710938 8.695312 -5.390625 9.09375 -4.953125 C 9.5 -4.523438 9.703125 -3.945312 9.703125 -3.21875 C 9.703125 -2.582031 9.523438 -2 9.171875 -1.46875 C 8.828125 -0.945312 8.328125 -0.53125 7.671875 -0.21875 C 7.023438 0.0820312 6.28125 0.234375 5.4375 0.234375 C 3.976562 0.234375 2.863281 -0.0507812 2.09375 -0.625 C 1.320312 -1.195312 0.84375 -2.070312 0.65625 -3.25 L 2.484375 -3.53125 C 2.578125 -2.789062 2.867188 -2.226562 3.359375 -1.84375 C 3.859375 -1.46875 4.503906 -1.28125 5.296875 -1.28125 C 6.085938 -1.28125 6.703125 -1.441406 7.140625 -1.765625 C 7.585938 -2.097656 7.8125 -2.507812 7.8125 -3 C 7.8125 -3.46875 7.585938 -3.8125 7.140625 -4.03125 C 6.703125 -4.257812 6.03125 -4.476562 5.125 -4.6875 C 4.226562 -4.894531 3.507812 -5.097656 2.96875 -5.296875 C 2.425781 -5.503906 1.957031 -5.820312 1.5625 -6.25 C 1.164062 -6.6875 0.96875 -7.269531 0.96875 -8 C 0.96875 -8.59375 1.125 -9.125 1.4375 -9.59375 C 1.75 -10.070312 2.207031 -10.445312 2.8125 -10.71875 C 3.425781 -10.988281 4.15625 -11.125 5 -11.125 Z M 5 -11.125 "/></g></g></g><g fill="#ffffff" fill-opacity="1"><g transform="translate(245.667376, 315.524975)"><g/></g></g><g fill="#ffffff" fill-opacity="1"><g transform="translate(251.505396, 315.524975)"><g><path d="M 5.96875 -11.125 C 6.863281 -11.125 7.585938 -11.035156 8.140625 -10.859375 C 8.691406 -10.691406 9.128906 -10.4375 9.453125 -10.09375 C 9.753906 -9.78125 9.960938 -9.425781 10.078125 -9.03125 C 10.191406 -8.632812 10.25 -8.113281 10.25 -7.46875 L 10.25 -3.09375 C 10.25 -1.675781 10.445312 -0.644531 10.84375 0 L 8.90625 0 C 8.71875 -0.375 8.59375 -0.820312 8.53125 -1.34375 C 7.851562 -0.78125 7.195312 -0.375 6.5625 -0.125 C 5.925781 0.125 5.265625 0.25 4.578125 0.25 C 3.398438 0.25 2.472656 -0.0351562 1.796875 -0.609375 C 1.128906 -1.179688 0.796875 -1.9375 0.796875 -2.875 C 0.796875 -3.363281 0.90625 -3.835938 1.125 -4.296875 C 1.351562 -4.753906 1.664062 -5.109375 2.0625 -5.359375 C 2.476562 -5.640625 2.898438 -5.84375 3.328125 -5.96875 C 3.765625 -6.09375 4.300781 -6.191406 4.9375 -6.265625 C 5.601562 -6.328125 6.269531 -6.414062 6.9375 -6.53125 C 7.601562 -6.65625 8.09375 -6.78125 8.40625 -6.90625 L 8.40625 -7.375 C 8.40625 -8.113281 8.203125 -8.671875 7.796875 -9.046875 C 7.398438 -9.429688 6.71875 -9.625 5.75 -9.625 C 4.84375 -9.625 4.1875 -9.460938 3.78125 -9.140625 C 3.382812 -8.816406 3.097656 -8.28125 2.921875 -7.53125 L 1.109375 -7.765625 C 1.359375 -8.941406 1.882812 -9.796875 2.6875 -10.328125 C 3.5 -10.859375 4.59375 -11.125 5.96875 -11.125 Z M 5.75 -4.828125 C 5.039062 -4.710938 4.492188 -4.601562 4.109375 -4.5 C 3.722656 -4.394531 3.398438 -4.21875 3.140625 -3.96875 C 2.890625 -3.726562 2.765625 -3.378906 2.765625 -2.921875 C 2.765625 -2.367188 2.960938 -1.941406 3.359375 -1.640625 C 3.765625 -1.347656 4.332031 -1.203125 5.0625 -1.203125 C 5.476562 -1.203125 5.929688 -1.285156 6.421875 -1.453125 C 6.910156 -1.628906 7.335938 -1.9375 7.703125 -2.375 C 7.941406 -2.65625 8.117188 -2.96875 8.234375 -3.3125 C 8.347656 -3.664062 8.40625 -4.113281 8.40625 -4.65625 L 8.40625 -5.453125 C 7.84375 -5.234375 6.957031 -5.023438 5.75 -4.828125 Z M 5.75 -4.828125 "/></g></g></g><g fill="#ffffff" fill-opacity="1"><g transform="translate(263.181447, 315.524975)"><g><path d="M 6.546875 -11.125 C 7.335938 -11.125 8.015625 -10.96875 8.578125 -10.65625 C 9.140625 -10.351562 9.554688 -9.960938 9.828125 -9.484375 C 9.992188 -9.171875 10.113281 -8.828125 10.1875 -8.453125 C 10.257812 -8.078125 10.296875 -7.613281 10.296875 -7.0625 L 10.296875 0 L 8.4375 0 L 8.4375 -6.71875 C 8.4375 -8.59375 7.675781 -9.53125 6.15625 -9.53125 C 5.582031 -9.53125 5.050781 -9.390625 4.5625 -9.109375 C 4.082031 -8.828125 3.738281 -8.421875 3.53125 -7.890625 C 3.363281 -7.441406 3.28125 -6.84375 3.28125 -6.09375 L 3.28125 0 L 1.421875 0 L 1.421875 -10.875 L 3.09375 -10.875 L 3.09375 -9.34375 C 3.914062 -10.53125 5.066406 -11.125 6.546875 -11.125 Z M 6.546875 -11.125 "/></g></g></g><g fill="#ffffff" fill-opacity="1"><g transform="translate(274.857487, 315.524975)"><g><path d="M 10.203125 -15.03125 L 10.203125 0 L 8.484375 0 L 8.484375 -1.390625 C 8.273438 -1.023438 7.921875 -0.660156 7.421875 -0.296875 C 6.921875 0.0546875 6.265625 0.234375 5.453125 0.234375 C 4.578125 0.234375 3.78125 0 3.0625 -0.46875 C 2.351562 -0.9375 1.789062 -1.601562 1.375 -2.46875 C 0.957031 -3.34375 0.75 -4.351562 0.75 -5.5 C 0.75 -6.644531 0.941406 -7.640625 1.328125 -8.484375 C 1.710938 -9.335938 2.257812 -9.988281 2.96875 -10.4375 C 3.675781 -10.894531 4.5 -11.125 5.4375 -11.125 C 6.125 -11.125 6.722656 -10.960938 7.234375 -10.640625 C 7.742188 -10.316406 8.117188 -9.984375 8.359375 -9.640625 L 8.359375 -15.03125 Z M 2.640625 -5.4375 C 2.640625 -4.539062 2.769531 -3.78125 3.03125 -3.15625 C 3.300781 -2.53125 3.664062 -2.0625 4.125 -1.75 C 4.582031 -1.4375 5.082031 -1.28125 5.625 -1.28125 C 6.476562 -1.28125 7.175781 -1.625 7.71875 -2.3125 C 8.257812 -3 8.53125 -3.984375 8.53125 -5.265625 C 8.53125 -6.585938 8.269531 -7.644531 7.75 -8.4375 C 7.226562 -9.226562 6.492188 -9.625 5.546875 -9.625 C 4.628906 -9.625 3.914062 -9.25 3.40625 -8.5 C 2.894531 -7.757812 2.640625 -6.738281 2.640625 -5.4375 Z M 2.640625 -5.4375 "/></g></g></g><g fill="#ffffff" fill-opacity="1"><g transform="translate(142.403899, 337.274973)"><g><path d="M 14.046875 0 L 11.78125 0 L 10.015625 -4.578125 L 3.734375 -4.578125 L 2.09375 0 L -0.015625 0 L 5.75 -15.03125 L 7.890625 -15.03125 Z M 5.96875 -10.578125 L 4.328125 -6.171875 L 9.40625 -6.171875 L 7.5625 -11.125 C 7.332031 -11.71875 7.070312 -12.5 6.78125 -13.46875 C 6.78125 -13.394531 6.695312 -13.035156 6.53125 -12.390625 C 6.363281 -11.753906 6.175781 -11.148438 5.96875 -10.578125 Z M 5.96875 -10.578125 "/></g></g></g><g fill="#ffffff" fill-opacity="1"><g transform="translate(156.410951, 337.274973)"><g><path d="M 6.546875 -11.125 C 7.335938 -11.125 8.015625 -10.96875 8.578125 -10.65625 C 9.140625 -10.351562 9.554688 -9.960938 9.828125 -9.484375 C 9.992188 -9.171875 10.113281 -8.828125 10.1875 -8.453125 C 10.257812 -8.078125 10.296875 -7.613281 10.296875 -7.0625 L 10.296875 0 L 8.4375 0 L 8.4375 -6.71875 C 8.4375 -8.59375 7.675781 -9.53125 6.15625 -9.53125 C 5.582031 -9.53125 5.050781 -9.390625 4.5625 -9.109375 C 4.082031 -8.828125 3.738281 -8.421875 3.53125 -7.890625 C 3.363281 -7.441406 3.28125 -6.84375 3.28125 -6.09375 L 3.28125 0 L 1.421875 0 L 1.421875 -10.875 L 3.09375 -10.875 L 3.09375 -9.34375 C 3.914062 -10.53125 5.066406 -11.125 6.546875 -11.125 Z M 6.546875 -11.125 "/></g></g></g><g fill="#ffffff" fill-opacity="1"><g transform="translate(168.087003, 337.274973)"><g><path d="M 5.96875 -11.125 C 6.863281 -11.125 7.585938 -11.035156 8.140625 -10.859375 C 8.691406 -10.691406 9.128906 -10.4375 9.453125 -10.09375 C 9.753906 -9.78125 9.960938 -9.425781 10.078125 -9.03125 C 10.191406 -8.632812 10.25 -8.113281 10.25 -7.46875 L 10.25 -3.09375 C 10.25 -1.675781 10.445312 -0.644531 10.84375 0 L 8.90625 0 C 8.71875 -0.375 8.59375 -0.820312 8.53125 -1.34375 C 7.851562 -0.78125 7.195312 -0.375 6.5625 -0.125 C 5.925781 0.125 5.265625 0.25 4.578125 0.25 C 3.398438 0.25 2.472656 -0.0351562 1.796875 -0.609375 C 1.128906 -1.179688 0.796875 -1.9375 0.796875 -2.875 C 0.796875 -3.363281 0.90625 -3.835938 1.125 -4.296875 C 1.351562 -4.753906 1.664062 -5.109375 2.0625 -5.359375 C 2.476562 -5.640625 2.898438 -5.84375 3.328125 -5.96875 C 3.765625 -6.09375 4.300781 -6.191406 4.9375 -6.265625 C 5.601562 -6.328125 6.269531 -6.414062 6.9375 -6.53125 C 7.601562 -6.65625 8.09375 -6.78125 8.40625 -6.90625 L 8.40625 -7.375 C 8.40625 -8.113281 8.203125 -8.671875 7.796875 -9.046875 C 7.398438 -9.429688 6.71875 -9.625 5.75 -9.625 C 4.84375 -9.625 4.1875 -9.460938 3.78125 -9.140625 C 3.382812 -8.816406 3.097656 -8.28125 2.921875 -7.53125 L 1.109375 -7.765625 C 1.359375 -8.941406 1.882812 -9.796875 2.6875 -10.328125 C 3.5 -10.859375 4.59375 -11.125 5.96875 -11.125 Z M 5.75 -4.828125 C 5.039062 -4.710938 4.492188 -4.601562 4.109375 -4.5 C 3.722656 -4.394531 3.398438 -4.21875 3.140625 -3.96875 C 2.890625 -3.726562 2.765625 -3.378906 2.765625 -2.921875 C 2.765625 -2.367188 2.960938 -1.941406 3.359375 -1.640625 C 3.765625 -1.347656 4.332031 -1.203125 5.0625 -1.203125 C 5.476562 -1.203125 5.929688 -1.285156 6.421875 -1.453125 C 6.910156 -1.628906 7.335938 -1.9375 7.703125 -2.375 C 7.941406 -2.65625 8.117188 -2.96875 8.234375 -3.3125 C 8.347656 -3.664062 8.40625 -4.113281 8.40625 -4.65625 L 8.40625 -5.453125 C 7.84375 -5.234375 6.957031 -5.023438 5.75 -4.828125 Z M 5.75 -4.828125 "/></g></g></g><g fill="#ffffff" fill-opacity="1"><g transform="translate(179.763054, 337.274973)"><g><path d="M 3.25 0 L 1.40625 0 L 1.40625 -15.03125 L 3.25 -15.03125 Z M 3.25 0 "/></g></g></g><g fill="#ffffff" fill-opacity="1"><g transform="translate(184.425067, 337.274973)"><g><path d="M 4.625 -4.515625 C 4.925781 -3.617188 5.175781 -2.800781 5.375 -2.0625 C 5.582031 -2.882812 5.820312 -3.660156 6.09375 -4.390625 L 8.46875 -10.875 L 10.3125 -10.875 L 6.171875 0.1875 C 5.785156 1.238281 5.453125 2.039062 5.171875 2.59375 C 4.890625 3.144531 4.535156 3.582031 4.109375 3.90625 C 3.691406 4.238281 3.15625 4.40625 2.5 4.40625 C 2.0625 4.40625 1.660156 4.335938 1.296875 4.203125 L 1.09375 2.453125 C 1.539062 2.566406 1.90625 2.625 2.1875 2.625 C 2.613281 2.625 2.953125 2.546875 3.203125 2.390625 C 3.460938 2.234375 3.65625 2.03125 3.78125 1.78125 C 3.90625 1.53125 4.066406 1.132812 4.265625 0.59375 L 4.46875 0.015625 L 0.34375 -10.875 L 2.328125 -10.875 Z M 4.625 -4.515625 "/></g></g></g><g fill="#ffffff" fill-opacity="1"><g transform="translate(194.925112, 337.274973)"><g><path d="M 3.546875 -10.875 L 5.390625 -10.875 L 5.390625 -9.484375 L 3.546875 -9.484375 L 3.546875 -2.75 C 3.546875 -2.269531 3.613281 -1.929688 3.75 -1.734375 C 3.882812 -1.546875 4.160156 -1.453125 4.578125 -1.453125 C 4.671875 -1.453125 4.941406 -1.484375 5.390625 -1.546875 L 5.671875 0.078125 C 5.109375 0.191406 4.65625 0.25 4.3125 0.25 C 3.59375 0.25 3.039062 0.132812 2.65625 -0.09375 C 2.28125 -0.320312 2.023438 -0.644531 1.890625 -1.0625 C 1.765625 -1.476562 1.703125 -2.015625 1.703125 -2.671875 L 1.703125 -9.484375 L 0.359375 -9.484375 L 0.359375 -10.875 L 1.703125 -10.875 L 1.703125 -13.59375 L 3.546875 -14.703125 Z M 3.546875 -10.875 "/></g></g></g><g fill="#ffffff" fill-opacity="1"><g transform="translate(200.763132, 337.274973)"><g><path d="M 3.25 -12.9375 L 1.40625 -12.9375 L 1.40625 -15.03125 L 3.25 -15.03125 Z M 3.25 0 L 1.40625 0 L 1.40625 -10.875 L 3.25 -10.875 Z M 3.25 0 "/></g></g></g><g fill="#ffffff" fill-opacity="1"><g transform="translate(205.425146, 337.274973)"><g><path d="M 5.96875 -11.125 C 7.039062 -11.125 7.945312 -10.828125 8.6875 -10.234375 C 9.4375 -9.640625 9.914062 -8.789062 10.125 -7.6875 L 8.34375 -7.40625 C 8.1875 -8.070312 7.90625 -8.609375 7.5 -9.015625 C 7.09375 -9.421875 6.546875 -9.625 5.859375 -9.625 C 4.878906 -9.625 4.109375 -9.269531 3.546875 -8.5625 C 2.984375 -7.863281 2.703125 -6.84375 2.703125 -5.5 C 2.703125 -4.125 2.960938 -3.078125 3.484375 -2.359375 C 4.015625 -1.640625 4.769531 -1.28125 5.75 -1.28125 C 6.550781 -1.28125 7.175781 -1.519531 7.625 -2 C 8.070312 -2.488281 8.359375 -3.148438 8.484375 -3.984375 L 10.3125 -3.765625 C 10.113281 -2.503906 9.601562 -1.519531 8.78125 -0.8125 C 7.96875 -0.113281 6.957031 0.234375 5.75 0.234375 C 4.195312 0.234375 2.984375 -0.269531 2.109375 -1.28125 C 1.242188 -2.300781 0.8125 -3.738281 0.8125 -5.59375 C 0.8125 -7.320312 1.269531 -8.675781 2.1875 -9.65625 C 3.101562 -10.632812 4.363281 -11.125 5.96875 -11.125 Z M 5.96875 -11.125 "/></g></g></g><g fill="#ffffff" fill-opacity="1"><g transform="translate(215.925191, 337.274973)"><g><path d="M 5 -11.125 C 6.226562 -11.125 7.21875 -10.867188 7.96875 -10.359375 C 8.726562 -9.847656 9.164062 -9.085938 9.28125 -8.078125 L 7.46875 -7.828125 C 7.382812 -8.378906 7.15625 -8.816406 6.78125 -9.140625 C 6.40625 -9.460938 5.847656 -9.625 5.109375 -9.625 C 4.359375 -9.625 3.773438 -9.492188 3.359375 -9.234375 C 2.953125 -8.984375 2.75 -8.632812 2.75 -8.1875 C 2.75 -7.882812 2.867188 -7.628906 3.109375 -7.421875 C 3.359375 -7.222656 3.648438 -7.066406 3.984375 -6.953125 C 4.328125 -6.847656 4.835938 -6.710938 5.515625 -6.546875 C 6.398438 -6.335938 7.117188 -6.128906 7.671875 -5.921875 C 8.222656 -5.710938 8.695312 -5.390625 9.09375 -4.953125 C 9.5 -4.523438 9.703125 -3.945312 9.703125 -3.21875 C 9.703125 -2.582031 9.523438 -2 9.171875 -1.46875 C 8.828125 -0.945312 8.328125 -0.53125 7.671875 -0.21875 C 7.023438 0.0820312 6.28125 0.234375 5.4375 0.234375 C 3.976562 0.234375 2.863281 -0.0507812 2.09375 -0.625 C 1.320312 -1.195312 0.84375 -2.070312 0.65625 -3.25 L 2.484375 -3.53125 C 2.578125 -2.789062 2.867188 -2.226562 3.359375 -1.84375 C 3.859375 -1.46875 4.503906 -1.28125 5.296875 -1.28125 C 6.085938 -1.28125 6.703125 -1.441406 7.140625 -1.765625 C 7.585938 -2.097656 7.8125 -2.507812 7.8125 -3 C 7.8125 -3.46875 7.585938 -3.8125 7.140625 -4.03125 C 6.703125 -4.257812 6.03125 -4.476562 5.125 -4.6875 C 4.226562 -4.894531 3.507812 -5.097656 2.96875 -5.296875 C 2.425781 -5.503906 1.957031 -5.820312 1.5625 -6.25 C 1.164062 -6.6875 0.96875 -7.269531 0.96875 -8 C 0.96875 -8.59375 1.125 -9.125 1.4375 -9.59375 C 1.75 -10.070312 2.207031 -10.445312 2.8125 -10.71875 C 3.425781 -10.988281 4.15625 -11.125 5 -11.125 Z M 5 -11.125 "/></g></g></g></svg>